<svg width="301" height="212" viewBox="0 0 301 212" fill="none" xmlns="http://www.w3.org/2000/svg">
<path d="M113.564 120.403C113.774 120.33 113.967 120.215 114.132 120.065C114.297 119.916 114.43 119.735 114.524 119.533C114.617 119.331 114.669 119.112 114.677 118.89C114.684 118.668 114.647 118.446 114.568 118.238C114.453 117.924 114.248 117.651 113.978 117.453C113.708 117.256 113.385 117.143 113.051 117.129C112.717 117.115 112.386 117.201 112.1 117.375C111.815 117.549 111.587 117.804 111.447 118.107C111.306 118.41 111.259 118.749 111.31 119.079C111.362 119.41 111.511 119.717 111.738 119.963C111.964 120.209 112.259 120.382 112.584 120.461C112.909 120.539 113.25 120.519 113.564 120.403Z" fill="white"/>
<path opacity="0.1" d="M113.564 120.403C113.774 120.33 113.967 120.215 114.132 120.065C114.297 119.916 114.43 119.735 114.524 119.533C114.617 119.331 114.669 119.112 114.677 118.89C114.684 118.668 114.647 118.446 114.568 118.238C114.453 117.924 114.248 117.651 113.978 117.453C113.708 117.256 113.385 117.143 113.051 117.129C112.717 117.115 112.386 117.201 112.1 117.375C111.815 117.549 111.587 117.804 111.447 118.107C111.306 118.41 111.259 118.749 111.31 119.079C111.362 119.41 111.511 119.717 111.738 119.963C111.964 120.209 112.259 120.382 112.584 120.461C112.909 120.539 113.25 120.519 113.564 120.403Z" fill="white"/>
<path d="M116.784 119.876C117.186 119.662 117.518 119.337 117.74 118.94C117.963 118.543 118.066 118.09 118.039 117.635C118.011 117.18 117.853 116.743 117.585 116.376C117.316 116.008 116.947 115.726 116.522 115.562C116.097 115.398 115.634 115.359 115.188 115.451C114.742 115.543 114.331 115.761 114.006 116.079C113.68 116.397 113.452 116.802 113.35 117.246C113.248 117.69 113.276 118.154 113.43 118.583C113.722 119.182 114.231 119.648 114.853 119.888C115.475 120.128 116.164 120.124 116.784 119.876Z" fill="white"/>
<path d="M122.755 118.817C123.286 118.603 123.791 118.328 124.26 117.998C124.545 117.783 124.795 117.525 124.999 117.232C125.429 116.85 125.735 116.349 125.88 115.792C126.024 115.235 126 114.648 125.81 114.105C125.621 113.562 125.275 113.088 124.815 112.742C124.356 112.396 123.804 112.194 123.23 112.162C122.88 112.108 122.524 112.108 122.174 112.162C121.648 112.146 121.125 112.245 120.642 112.453C120.574 112.426 120.499 112.426 120.431 112.453C120.179 112.534 119.939 112.65 119.718 112.796C119.223 113.029 118.776 113.352 118.398 113.747C118.086 114.018 117.834 114.35 117.658 114.724C117.422 115.077 117.274 115.483 117.228 115.906C117.182 116.329 117.239 116.757 117.394 117.153C117.578 117.621 117.873 118.038 118.256 118.365C118.638 118.692 119.095 118.919 119.586 119.028C119.993 119.121 120.409 119.174 120.827 119.186H121.804L122.755 118.817Z" fill="#407BFF"/>
<path d="M124.306 117.97C124.591 117.756 124.84 117.497 125.045 117.205C124.549 115.484 123.958 113.791 123.276 112.135C122.926 112.081 122.569 112.081 122.219 112.135C123.042 114.032 123.739 115.981 124.306 117.97Z" fill="white"/>
<path d="M118.45 113.697C118.138 113.968 117.886 114.301 117.71 114.674C118.116 116.203 118.767 117.657 119.638 118.978C120.045 119.071 120.461 119.124 120.879 119.136C119.69 117.518 118.861 115.663 118.45 113.697Z" fill="white"/>
<path d="M122.75 118.817C121.6 116.846 120.897 114.646 120.69 112.374C120.622 112.347 120.547 112.347 120.479 112.374C120.227 112.455 119.987 112.571 119.766 112.717C120.042 114.937 120.75 117.081 121.852 119.028L122.75 118.817Z" fill="white"/>
<path d="M114.515 119.531C114.515 119.531 118.397 126.344 121.856 125.129C125.315 123.914 115.519 119.161 115.519 119.161L114.515 119.531Z" fill="#407BFF"/>
<path opacity="0.6" d="M114.515 119.531C114.515 119.531 118.397 126.344 121.856 125.129C125.315 123.914 115.519 119.161 115.519 119.161L114.515 119.531Z" fill="white"/>
<path d="M113.56 117.182C113.56 117.182 112.108 109.472 115.541 108.152C118.974 106.831 114.537 116.813 114.537 116.813L113.56 117.182Z" fill="#407BFF"/>
<path opacity="0.6" d="M113.56 117.182C113.56 117.182 112.108 109.472 115.541 108.152C118.974 106.831 114.537 116.813 114.537 116.813L113.56 117.182Z" fill="white"/>
<path d="M292.955 174.562C292.955 174.562 288.809 181.243 285.403 179.843C281.997 178.444 291.978 174.113 291.978 174.113L292.955 174.562Z" fill="#407BFF"/>
<path opacity="0.6" d="M292.955 174.562C292.955 174.562 288.809 181.243 285.403 179.843C281.997 178.444 291.978 174.113 291.978 174.113L292.955 174.562Z" fill="white"/>
<path d="M296.395 170.601C296.061 170.612 295.738 170.721 295.466 170.915C295.194 171.11 294.986 171.38 294.868 171.693C294.75 172.006 294.727 172.346 294.802 172.672C294.878 172.997 295.048 173.293 295.292 173.522C295.535 173.751 295.841 173.902 296.171 173.957C296.5 174.012 296.839 173.968 297.144 173.831C297.448 173.693 297.705 173.469 297.882 173.185C298.059 172.902 298.148 172.572 298.138 172.238C298.135 172.015 298.086 171.795 297.996 171.591C297.906 171.387 297.776 171.203 297.614 171.05C297.451 170.898 297.259 170.779 297.05 170.702C296.841 170.625 296.618 170.59 296.395 170.601Z" fill="white"/>
<path opacity="0.1" d="M296.395 170.601C296.061 170.612 295.738 170.721 295.466 170.915C295.194 171.11 294.986 171.38 294.868 171.693C294.75 172.006 294.727 172.346 294.802 172.672C294.878 172.997 295.048 173.293 295.292 173.522C295.535 173.751 295.841 173.902 296.171 173.957C296.5 174.012 296.839 173.968 297.144 173.831C297.448 173.693 297.705 173.469 297.882 173.185C298.059 172.902 298.148 172.572 298.138 172.238C298.135 172.015 298.086 171.795 297.996 171.591C297.906 171.387 297.776 171.203 297.614 171.05C297.451 170.898 297.259 170.779 297.05 170.702C296.841 170.625 296.618 170.59 296.395 170.601Z" fill="white"/>
<path d="M293.122 170.044C292.457 170.042 291.815 170.291 291.326 170.741C290.836 171.191 290.534 171.81 290.481 172.473C290.439 173.002 290.557 173.532 290.82 173.993C291.083 174.454 291.479 174.825 291.956 175.058C292.434 175.291 292.97 175.374 293.495 175.297C294.02 175.22 294.51 174.987 294.901 174.628C295.292 174.268 295.565 173.799 295.685 173.282C295.806 172.765 295.767 172.224 295.575 171.729C295.383 171.234 295.046 170.808 294.608 170.508C294.171 170.207 293.653 170.046 293.122 170.044Z" fill="white"/>
<path d="M287.098 169.281C286.522 169.305 285.953 169.412 285.408 169.598C285.081 169.705 284.77 169.856 284.484 170.047C283.949 170.269 283.492 170.645 283.17 171.127C282.849 171.608 282.678 172.175 282.678 172.754C282.678 173.333 282.849 173.899 283.17 174.381C283.492 174.862 283.949 175.238 284.484 175.46C284.796 175.615 285.124 175.739 285.461 175.83C285.962 175.996 286.491 176.068 287.019 176.041H287.23C287.484 176.078 287.742 176.078 287.996 176.041C288.541 175.987 289.071 175.826 289.554 175.566C289.943 175.416 290.288 175.171 290.557 174.853C290.9 174.596 291.175 174.261 291.359 173.874C291.543 173.488 291.63 173.062 291.613 172.635C291.569 172.134 291.408 171.65 291.141 171.224C290.875 170.797 290.512 170.439 290.082 170.179C289.737 169.947 289.365 169.761 288.973 169.625C288.682 169.625 288.339 169.466 288.022 169.387C287.718 169.325 287.408 169.289 287.098 169.281Z" fill="#407BFF"/>
<path d="M285.193 169.515C284.866 169.622 284.555 169.773 284.269 169.964C284.174 171.767 284.174 173.574 284.269 175.377C284.582 175.532 284.909 175.656 285.246 175.747C285.096 173.673 285.079 171.591 285.193 169.515Z" fill="white"/>
<path d="M289.553 175.407C289.942 175.257 290.287 175.012 290.556 174.694C290.678 173.12 290.517 171.537 290.081 170.02C289.736 169.788 289.364 169.602 288.972 169.466C289.581 171.383 289.779 173.408 289.553 175.407Z" fill="white"/>
<path d="M287.1 169.281C287.574 171.51 287.574 173.813 287.1 176.041H287.311C287.565 176.078 287.823 176.078 288.077 176.041C288.514 173.845 288.514 171.584 288.077 169.387C287.755 169.321 287.428 169.286 287.1 169.281Z" fill="white"/>
<path d="M295.199 173.582C295.199 173.582 294.169 181.504 290.473 181.504C286.776 181.504 294.143 173.582 294.143 173.582H295.199Z" fill="#407BFF"/>
<path opacity="0.6" d="M295.199 173.582C295.199 173.582 294.169 181.504 290.473 181.504C286.776 181.504 294.143 173.582 294.143 173.582H295.199Z" fill="white"/>
<path d="M138.07 107.862C138.225 107.854 138.378 107.901 138.502 107.994C138.625 108.088 138.712 108.222 138.747 108.373C138.782 108.525 138.762 108.683 138.691 108.822C138.62 108.96 138.503 109.069 138.36 109.129L135.931 110.212C135.769 110.275 135.589 110.275 135.428 110.212C135.266 110.148 135.134 110.025 135.06 109.868C135.002 109.706 135.005 109.529 135.068 109.368C135.131 109.208 135.25 109.076 135.403 108.997L137.806 107.941C137.885 107.89 137.976 107.863 138.07 107.862Z" fill="white"/>
<path d="M106.016 -208.325L111.297 -208.034C111.47 -208.014 111.629 -207.93 111.741 -207.797C111.854 -207.665 111.912 -207.495 111.905 -207.321C111.905 -207.234 111.887 -207.148 111.852 -207.069C111.817 -206.989 111.765 -206.919 111.7 -206.861C111.635 -206.803 111.558 -206.76 111.475 -206.735C111.392 -206.71 111.304 -206.702 111.218 -206.714L105.937 -207.004C105.849 -207.004 105.762 -207.022 105.682 -207.057C105.601 -207.092 105.529 -207.144 105.469 -207.208C105.409 -207.273 105.364 -207.349 105.335 -207.432C105.307 -207.515 105.296 -207.603 105.303 -207.691C105.317 -207.868 105.399 -208.033 105.532 -208.152C105.665 -208.27 105.838 -208.332 106.016 -208.325ZM116.578 -207.691L121.86 -207.295C122.032 -207.275 122.191 -207.19 122.304 -207.058C122.416 -206.926 122.475 -206.755 122.467 -206.582C122.447 -206.411 122.361 -206.255 122.228 -206.147C122.095 -206.038 121.925 -205.986 121.754 -206.001L116.473 -206.397C116.302 -206.41 116.144 -206.49 116.03 -206.618C115.917 -206.746 115.858 -206.913 115.865 -207.083C115.869 -207.174 115.89 -207.262 115.928 -207.344C115.965 -207.426 116.019 -207.5 116.085 -207.561C116.151 -207.623 116.229 -207.67 116.314 -207.702C116.398 -207.733 116.488 -207.747 116.578 -207.744V-207.691ZM127.141 -206.819L132.422 -206.318C132.597 -206.3 132.758 -206.214 132.869 -206.078C132.981 -205.942 133.033 -205.767 133.016 -205.592C132.998 -205.416 132.912 -205.255 132.776 -205.144C132.64 -205.033 132.465 -204.98 132.29 -204.997C130.468 -205.182 128.725 -205.367 127.009 -205.499C126.831 -205.519 126.668 -205.608 126.555 -205.746C126.442 -205.884 126.386 -206.06 126.401 -206.238C126.401 -206.329 126.419 -206.418 126.456 -206.501C126.493 -206.583 126.547 -206.657 126.614 -206.717C126.682 -206.777 126.761 -206.822 126.847 -206.849C126.934 -206.876 127.025 -206.884 127.114 -206.872L127.141 -206.819ZM137.703 -205.79L142.984 -205.209C143.159 -205.188 143.319 -205.098 143.428 -204.959C143.537 -204.821 143.586 -204.644 143.565 -204.469C143.544 -204.294 143.454 -204.135 143.316 -204.026C143.177 -203.917 143.001 -203.867 142.826 -203.888L137.545 -204.496C137.374 -204.516 137.218 -204.601 137.11 -204.734C137.001 -204.867 136.949 -205.038 136.964 -205.209C136.976 -205.377 137.051 -205.535 137.173 -205.652C137.295 -205.768 137.455 -205.836 137.624 -205.842L137.703 -205.79ZM148.265 -204.522L153.546 -203.836C153.719 -203.803 153.873 -203.706 153.976 -203.563C154.08 -203.421 154.124 -203.244 154.101 -203.07C154.069 -202.902 153.975 -202.752 153.839 -202.65C153.702 -202.547 153.532 -202.499 153.362 -202.515L148.08 -203.202C147.905 -203.202 147.737 -203.271 147.614 -203.395C147.49 -203.519 147.42 -203.687 147.42 -203.862C147.42 -204.037 147.49 -204.205 147.614 -204.329C147.737 -204.453 147.905 -204.522 148.08 -204.522H148.265ZM158.828 -203.07L164.109 -202.251C164.264 -202.207 164.397 -202.106 164.484 -201.97C164.57 -201.833 164.604 -201.67 164.578 -201.511C164.552 -201.351 164.468 -201.207 164.343 -201.105C164.217 -201.003 164.059 -200.95 163.897 -200.957L158.616 -201.776C158.446 -201.802 158.292 -201.894 158.188 -202.032C158.084 -202.171 158.039 -202.344 158.062 -202.515C158.088 -202.641 158.148 -202.758 158.237 -202.851C158.326 -202.945 158.439 -203.011 158.563 -203.043L158.828 -203.07ZM169.258 -201.406L174.539 -200.482C174.71 -200.45 174.862 -200.351 174.961 -200.208C175.06 -200.065 175.098 -199.888 175.067 -199.716C175.055 -199.63 175.024 -199.547 174.978 -199.473C174.932 -199.398 174.872 -199.334 174.8 -199.285C174.728 -199.235 174.646 -199.201 174.561 -199.184C174.475 -199.168 174.387 -199.169 174.301 -199.188L169.02 -200.086C168.847 -200.118 168.693 -200.216 168.59 -200.358C168.487 -200.501 168.442 -200.677 168.466 -200.852C168.479 -200.996 168.537 -201.132 168.631 -201.241C168.726 -201.35 168.853 -201.426 168.994 -201.459L169.258 -201.406ZM179.635 -199.505H179.767L185.048 -198.475C185.134 -198.456 185.214 -198.421 185.286 -198.371C185.357 -198.321 185.418 -198.257 185.464 -198.184C185.511 -198.11 185.543 -198.028 185.557 -197.942C185.572 -197.856 185.57 -197.768 185.55 -197.683C185.507 -197.52 185.404 -197.378 185.263 -197.286C185.122 -197.193 184.951 -197.156 184.784 -197.181L179.503 -198.211C179.33 -198.249 179.178 -198.353 179.08 -198.501C178.981 -198.648 178.944 -198.829 178.975 -199.003C178.987 -199.122 179.03 -199.236 179.1 -199.333C179.169 -199.43 179.263 -199.508 179.371 -199.558L179.635 -199.505ZM189.96 -197.366H190.092L195.373 -196.178C195.54 -196.134 195.684 -196.027 195.772 -195.879C195.861 -195.731 195.889 -195.554 195.848 -195.386C195.83 -195.301 195.795 -195.221 195.744 -195.151C195.694 -195.081 195.629 -195.021 195.555 -194.977C195.481 -194.932 195.398 -194.903 195.313 -194.892C195.227 -194.881 195.14 -194.887 195.056 -194.91L189.934 -196.072C189.848 -196.091 189.768 -196.126 189.696 -196.176C189.625 -196.226 189.564 -196.29 189.518 -196.364C189.471 -196.437 189.439 -196.52 189.425 -196.606C189.41 -196.691 189.412 -196.779 189.432 -196.864C189.428 -196.971 189.449 -197.078 189.495 -197.174C189.541 -197.271 189.61 -197.355 189.696 -197.419L189.96 -197.366ZM200.232 -194.937H200.39L205.513 -193.617C205.685 -193.571 205.831 -193.459 205.92 -193.306C206.009 -193.152 206.034 -192.97 205.988 -192.798C205.943 -192.626 205.831 -192.48 205.677 -192.391C205.524 -192.302 205.341 -192.277 205.17 -192.323C203.48 -192.798 201.763 -193.22 200.073 -193.643C199.988 -193.664 199.907 -193.703 199.837 -193.756C199.766 -193.809 199.707 -193.876 199.663 -193.952C199.618 -194.028 199.59 -194.113 199.579 -194.2C199.568 -194.288 199.574 -194.377 199.598 -194.462C199.588 -194.596 199.618 -194.73 199.684 -194.847C199.749 -194.964 199.848 -195.06 199.968 -195.122L200.232 -194.937ZM210.424 -192.296H210.609C212.326 -191.821 214.016 -191.319 215.706 -190.791C215.845 -190.72 215.954 -190.602 216.015 -190.457C216.075 -190.313 216.082 -190.152 216.034 -190.003C215.987 -189.853 215.888 -189.726 215.755 -189.643C215.622 -189.56 215.464 -189.527 215.309 -189.55L210.266 -191.029C210.097 -191.078 209.953 -191.191 209.865 -191.343C209.776 -191.495 209.75 -191.676 209.791 -191.847C209.822 -191.935 209.871 -192.015 209.935 -192.083C209.998 -192.152 210.075 -192.206 210.16 -192.243L210.424 -192.296ZM220.538 -189.233H220.723C222.413 -188.705 224.076 -188.151 225.74 -187.57C225.904 -187.51 226.038 -187.388 226.113 -187.229C226.187 -187.071 226.195 -186.889 226.136 -186.725C226.109 -186.641 226.066 -186.564 226.008 -186.498C225.951 -186.432 225.88 -186.378 225.8 -186.341C225.721 -186.304 225.635 -186.284 225.547 -186.281C225.459 -186.279 225.372 -186.295 225.291 -186.329L220.327 -187.992C220.171 -188.037 220.038 -188.137 219.951 -188.273C219.865 -188.41 219.832 -188.573 219.858 -188.733C219.884 -188.892 219.967 -189.037 220.093 -189.139C220.218 -189.241 220.376 -189.293 220.538 -189.286V-189.233ZM230.308 -185.721H230.519L235.457 -183.846C235.539 -183.815 235.614 -183.766 235.678 -183.705C235.741 -183.644 235.791 -183.57 235.826 -183.489C235.86 -183.408 235.878 -183.32 235.878 -183.232C235.878 -183.144 235.861 -183.056 235.827 -182.975C235.798 -182.894 235.752 -182.819 235.693 -182.756C235.634 -182.693 235.563 -182.642 235.484 -182.608C235.405 -182.573 235.319 -182.555 235.233 -182.555C235.147 -182.554 235.061 -182.572 234.982 -182.605C233.345 -183.266 231.707 -183.873 230.07 -184.48C229.904 -184.545 229.769 -184.673 229.695 -184.835C229.621 -184.998 229.614 -185.183 229.674 -185.352C229.731 -185.469 229.822 -185.567 229.935 -185.633C230.048 -185.698 230.178 -185.729 230.308 -185.721ZM240.025 -181.919C240.103 -181.943 240.186 -181.943 240.263 -181.919C241.9 -181.232 243.511 -180.519 245.122 -179.78C245.21 -179.751 245.291 -179.703 245.36 -179.64C245.429 -179.577 245.483 -179.5 245.52 -179.415C245.557 -179.329 245.575 -179.237 245.574 -179.144C245.573 -179.05 245.552 -178.959 245.512 -178.874C245.473 -178.79 245.416 -178.715 245.345 -178.654C245.275 -178.593 245.192 -178.547 245.103 -178.521C245.014 -178.494 244.92 -178.487 244.827 -178.499C244.735 -178.511 244.646 -178.543 244.567 -178.592L239.761 -180.704C239.681 -180.739 239.609 -180.789 239.548 -180.851C239.488 -180.914 239.44 -180.987 239.408 -181.068C239.376 -181.149 239.361 -181.236 239.362 -181.323C239.364 -181.41 239.383 -181.496 239.418 -181.576C239.474 -181.686 239.562 -181.777 239.67 -181.838C239.778 -181.899 239.901 -181.927 240.025 -181.919ZM249.61 -177.535H249.901C251.485 -176.743 253.043 -175.951 254.601 -175.106C254.678 -175.065 254.745 -175.008 254.8 -174.941C254.854 -174.873 254.895 -174.796 254.92 -174.712C254.944 -174.629 254.952 -174.541 254.943 -174.455C254.933 -174.368 254.907 -174.285 254.865 -174.208C254.777 -174.059 254.635 -173.949 254.468 -173.9C254.302 -173.851 254.123 -173.867 253.967 -173.944C252.436 -174.763 250.878 -175.581 249.32 -176.347C249.177 -176.408 249.06 -176.516 248.989 -176.655C248.918 -176.793 248.899 -176.952 248.933 -177.103C248.968 -177.254 249.055 -177.388 249.179 -177.482C249.303 -177.576 249.455 -177.623 249.61 -177.615V-177.535ZM258.879 -172.545C258.99 -172.583 259.111 -172.583 259.222 -172.545C260.754 -171.647 262.259 -170.723 263.738 -169.904C263.885 -169.807 263.989 -169.656 264.028 -169.484C264.068 -169.312 264.039 -169.132 263.949 -168.98C263.847 -168.837 263.695 -168.738 263.523 -168.704C263.352 -168.67 263.173 -168.702 263.025 -168.795C261.572 -169.719 260.067 -170.617 258.562 -171.436C258.432 -171.506 258.33 -171.617 258.271 -171.752C258.212 -171.887 258.2 -172.037 258.236 -172.18C258.272 -172.323 258.355 -172.449 258.472 -172.539C258.588 -172.629 258.732 -172.678 258.879 -172.677V-172.545ZM267.778 -166.867C267.912 -166.864 268.041 -166.818 268.147 -166.736C269.626 -165.706 271.052 -164.649 272.425 -163.593C272.545 -163.48 272.619 -163.325 272.63 -163.16C272.642 -162.995 272.592 -162.832 272.489 -162.702C272.386 -162.573 272.238 -162.487 272.075 -162.461C271.911 -162.435 271.744 -162.472 271.606 -162.563C270.26 -163.593 268.966 -164.649 267.382 -165.653C267.31 -165.703 267.249 -165.767 267.203 -165.84C267.156 -165.914 267.124 -165.996 267.11 -166.082C267.095 -166.168 267.097 -166.256 267.117 -166.341C267.136 -166.426 267.172 -166.506 267.223 -166.577C267.296 -166.647 267.384 -166.7 267.48 -166.731C267.576 -166.763 267.677 -166.774 267.778 -166.762V-166.867ZM276.095 -160.398C276.25 -160.392 276.398 -160.337 276.518 -160.24C277.865 -159.051 279.159 -157.863 280.426 -156.648C280.552 -156.526 280.624 -156.358 280.627 -156.183C280.629 -156.007 280.562 -155.837 280.439 -155.711C280.317 -155.585 280.149 -155.513 279.973 -155.51C279.797 -155.508 279.628 -155.575 279.502 -155.698C278.287 -156.886 276.993 -158.074 275.647 -159.236C275.526 -159.36 275.458 -159.526 275.458 -159.698C275.458 -159.871 275.526 -160.037 275.647 -160.16C275.775 -160.258 275.935 -160.305 276.095 -160.292V-160.398ZM283.621 -152.872C283.8 -152.864 283.97 -152.789 284.096 -152.661C285.285 -151.341 286.447 -150.021 287.503 -148.595C287.594 -148.457 287.631 -148.29 287.605 -148.127C287.579 -147.963 287.493 -147.815 287.364 -147.713C287.234 -147.61 287.071 -147.559 286.906 -147.571C286.741 -147.583 286.586 -147.656 286.473 -147.776C285.417 -149.123 284.281 -150.417 283.119 -151.79C282.998 -151.913 282.931 -152.079 282.931 -152.252C282.931 -152.425 282.998 -152.591 283.119 -152.714C283.26 -152.829 283.44 -152.886 283.621 -152.872ZM290.038 -144.555C290.147 -144.554 290.254 -144.527 290.35 -144.476C290.446 -144.426 290.529 -144.353 290.592 -144.264C291.569 -142.785 292.493 -141.254 293.233 -139.722C293.317 -139.568 293.336 -139.387 293.287 -139.219C293.237 -139.05 293.123 -138.909 292.969 -138.825C292.815 -138.741 292.634 -138.721 292.465 -138.771C292.297 -138.82 292.155 -138.935 292.071 -139.089C291.252 -140.594 290.355 -142.099 289.43 -143.551C289.36 -143.649 289.319 -143.764 289.312 -143.884C289.304 -144.004 289.331 -144.124 289.389 -144.229C289.448 -144.334 289.534 -144.42 289.64 -144.478C289.745 -144.536 289.865 -144.562 289.985 -144.555H290.038ZM295.028 -135.339C295.157 -135.339 295.283 -135.302 295.391 -135.232C295.499 -135.161 295.584 -135.061 295.636 -134.943C296.349 -133.332 296.982 -131.642 297.537 -129.952C297.563 -129.869 297.572 -129.782 297.564 -129.695C297.557 -129.608 297.532 -129.523 297.491 -129.446C297.451 -129.369 297.396 -129.3 297.329 -129.245C297.262 -129.189 297.184 -129.147 297.101 -129.121C297.018 -129.095 296.93 -129.085 296.844 -129.093C296.757 -129.101 296.672 -129.126 296.595 -129.166C296.518 -129.207 296.449 -129.262 296.393 -129.329C296.338 -129.396 296.295 -129.473 296.269 -129.556C295.741 -131.193 295.108 -132.831 294.421 -134.415C294.357 -134.577 294.357 -134.757 294.421 -134.918C294.485 -135.08 294.607 -135.211 294.764 -135.286L295.028 -135.339ZM298.303 -125.358C298.448 -125.352 298.587 -125.3 298.701 -125.21C298.815 -125.12 298.897 -124.996 298.936 -124.856C299.34 -123.114 299.649 -121.351 299.861 -119.575C299.876 -119.49 299.873 -119.402 299.853 -119.318C299.833 -119.234 299.795 -119.154 299.743 -119.085C299.691 -119.016 299.626 -118.958 299.551 -118.915C299.475 -118.872 299.392 -118.845 299.306 -118.835C299.135 -118.813 298.961 -118.858 298.823 -118.962C298.685 -119.065 298.593 -119.219 298.567 -119.39C298.329 -121.106 298.039 -122.849 297.643 -124.513C297.61 -124.684 297.644 -124.861 297.737 -125.008C297.83 -125.155 297.976 -125.261 298.144 -125.305L298.303 -125.358ZM299.676 -114.98C299.846 -114.98 300.01 -114.914 300.133 -114.796C300.257 -114.678 300.329 -114.517 300.336 -114.347C300.336 -113.396 300.336 -112.445 300.336 -111.468C300.336 -110.94 300.336 -110.438 300.336 -109.91V-109.039C300.323 -108.866 300.244 -108.705 300.117 -108.587C299.99 -108.47 299.823 -108.405 299.649 -108.405C299.562 -108.405 299.475 -108.423 299.394 -108.458C299.313 -108.493 299.241 -108.545 299.181 -108.609C299.122 -108.674 299.076 -108.75 299.048 -108.833C299.019 -108.916 299.008 -109.004 299.016 -109.092V-109.937C299.016 -110.465 299.016 -110.967 299.016 -111.468C299.016 -112.419 299.016 -113.343 299.016 -114.294C299.012 -114.38 299.026 -114.467 299.056 -114.548C299.086 -114.63 299.131 -114.705 299.19 -114.768C299.249 -114.832 299.32 -114.884 299.399 -114.92C299.477 -114.956 299.563 -114.977 299.649 -114.98H299.676ZM299.28 -104.418C299.45 -104.392 299.604 -104.3 299.708 -104.162C299.812 -104.023 299.857 -103.85 299.834 -103.679C299.629 -101.903 299.33 -100.141 298.936 -98.3974C298.936 -98.2998 298.913 -98.2036 298.871 -98.1156C298.828 -98.0277 298.767 -97.9503 298.691 -97.889C298.615 -97.8277 298.526 -97.784 298.431 -97.7611C298.336 -97.7382 298.237 -97.7366 298.142 -97.7566C298.046 -97.7765 297.956 -97.8174 297.878 -97.8763C297.8 -97.9352 297.736 -98.0106 297.691 -98.0972C297.646 -98.1837 297.621 -98.2793 297.617 -98.3769C297.613 -98.4745 297.631 -98.5717 297.669 -98.6615C298.012 -100.351 298.329 -102.094 298.54 -103.784C298.521 -103.885 298.527 -103.99 298.558 -104.088C298.588 -104.186 298.642 -104.276 298.715 -104.349C298.788 -104.422 298.877 -104.476 298.976 -104.506C299.074 -104.536 299.178 -104.543 299.28 -104.524V-104.418ZM297.062 -94.1725H297.246C297.33 -94.1482 297.407 -94.1078 297.475 -94.0536C297.542 -93.9993 297.599 -93.9322 297.64 -93.8562C297.682 -93.7802 297.708 -93.6967 297.718 -93.6105C297.727 -93.5243 297.72 -93.4372 297.695 -93.3539C297.194 -91.6904 296.586 -90.0004 295.953 -88.3369C295.878 -88.1793 295.748 -88.0547 295.587 -87.9866C295.427 -87.9184 295.247 -87.9116 295.081 -87.9672C294.999 -87.9991 294.924 -88.0472 294.861 -88.1086C294.797 -88.1701 294.747 -88.2435 294.712 -88.3248C294.678 -88.406 294.66 -88.4933 294.66 -88.5816C294.66 -88.6698 294.677 -88.7572 294.712 -88.8386C295.345 -90.4493 295.926 -92.1129 296.428 -93.75C296.458 -93.8969 296.537 -94.0293 296.652 -94.1253C296.767 -94.2213 296.912 -94.2752 297.062 -94.2782V-94.1725ZM293.206 -84.376H293.497C293.578 -84.3392 293.651 -84.2865 293.711 -84.221C293.771 -84.1554 293.817 -84.0784 293.847 -83.9946C293.876 -83.9108 293.888 -83.8218 293.883 -83.733C293.877 -83.6443 293.854 -83.5576 293.814 -83.4782C293.048 -81.8939 292.229 -80.3359 291.358 -78.778C291.27 -78.6281 291.126 -78.5191 290.958 -78.4746C290.79 -78.4301 290.611 -78.4537 290.46 -78.5404C290.384 -78.5818 290.316 -78.6379 290.262 -78.7056C290.207 -78.7732 290.166 -78.8509 290.142 -78.9343C290.117 -79.0177 290.109 -79.1053 290.119 -79.1917C290.128 -79.2782 290.154 -79.3619 290.196 -79.4381C291.067 -80.9433 291.886 -82.5012 292.625 -84.0591C292.668 -84.1801 292.747 -84.2852 292.85 -84.3606C292.954 -84.436 293.078 -84.4783 293.206 -84.4816V-84.376ZM287.925 -75.2396C288.047 -75.2661 288.173 -75.2661 288.295 -75.2396C288.438 -75.1383 288.537 -74.9861 288.571 -74.8142C288.605 -74.6424 288.573 -74.464 288.48 -74.3154C287.529 -72.8631 286.499 -71.4108 285.443 -69.9585C285.338 -69.8184 285.182 -69.7258 285.008 -69.701C284.835 -69.6763 284.659 -69.7214 284.519 -69.8264C284.379 -69.9315 284.286 -70.0878 284.261 -70.2612C284.237 -70.4345 284.282 -70.6106 284.387 -70.7506C285.443 -72.1765 286.447 -73.6024 287.371 -75.0284C287.437 -75.1404 287.535 -75.2303 287.653 -75.2867C287.77 -75.3431 287.902 -75.3635 288.031 -75.3453L287.925 -75.2396ZM281.667 -66.7634C281.823 -66.7668 281.974 -66.71 282.09 -66.6049C282.211 -66.4815 282.278 -66.3156 282.278 -66.1428C282.278 -65.97 282.211 -65.8042 282.09 -65.6808C280.981 -64.3605 279.819 -63.0402 278.63 -61.6671C278.569 -61.6032 278.495 -61.5524 278.413 -61.5177C278.332 -61.4829 278.244 -61.465 278.155 -61.465C278.066 -61.465 277.979 -61.4829 277.897 -61.5177C277.815 -61.5524 277.741 -61.6032 277.68 -61.6671C277.617 -61.7263 277.566 -61.7979 277.532 -61.8774C277.497 -61.9569 277.48 -62.0426 277.48 -62.1292C277.48 -62.2158 277.497 -62.3015 277.532 -62.3809C277.566 -62.4604 277.617 -62.532 277.68 -62.5913C278.877 -63.9116 280.012 -65.2318 281.086 -66.5521C281.154 -66.6689 281.257 -66.7619 281.38 -66.8186C281.502 -66.8753 281.64 -66.8929 281.773 -66.869L281.667 -66.7634ZM274.617 -58.8417C274.793 -58.8434 274.963 -58.7772 275.092 -58.6568C275.215 -58.529 275.283 -58.3587 275.283 -58.1816C275.283 -58.0044 275.215 -57.834 275.092 -57.7062C273.851 -56.4651 272.584 -55.2505 271.29 -54.0358C271.16 -53.9436 271.001 -53.9014 270.843 -53.917C270.684 -53.9326 270.537 -54.0049 270.427 -54.1207C270.318 -54.2365 270.254 -54.3878 270.248 -54.5469C270.241 -54.706 270.292 -54.8621 270.392 -54.9864C271.686 -56.2011 273.032 -57.4158 274.141 -58.6568C274.194 -58.7691 274.275 -58.8651 274.377 -58.9349C274.48 -59.0046 274.599 -59.0454 274.722 -59.0529L274.617 -58.8417ZM266.933 -51.6329C267.029 -51.6321 267.123 -51.6105 267.21 -51.5694C267.296 -51.5284 267.373 -51.4689 267.434 -51.3953C267.555 -51.2719 267.623 -51.1059 267.623 -50.9331C267.623 -50.7603 267.555 -50.5945 267.434 -50.4711C266.114 -49.3356 264.794 -48.1737 263.368 -47.0647C263.245 -46.9437 263.079 -46.876 262.906 -46.876C262.733 -46.876 262.567 -46.9437 262.444 -47.0647C262.321 -47.1925 262.253 -47.3628 262.253 -47.54C262.253 -47.7171 262.321 -47.8875 262.444 -48.0153L266.457 -51.3953C266.492 -51.5232 266.567 -51.6364 266.672 -51.7174C266.777 -51.7985 266.906 -51.8429 267.038 -51.8441L266.933 -51.6329ZM258.773 -44.9523C258.873 -44.9518 258.972 -44.9304 259.063 -44.8895C259.154 -44.8486 259.235 -44.789 259.301 -44.7146C259.353 -44.6453 259.391 -44.5664 259.413 -44.4824C259.434 -44.3984 259.439 -44.311 259.427 -44.2252C259.415 -44.1393 259.385 -44.0568 259.341 -43.9822C259.297 -43.9076 259.239 -43.8424 259.169 -43.7904C257.77 -42.7078 256.37 -41.6515 254.918 -40.6217C254.851 -40.5678 254.773 -40.529 254.689 -40.5077C254.605 -40.4863 254.518 -40.4831 254.433 -40.4981C254.348 -40.5131 254.268 -40.546 254.196 -40.5946C254.125 -40.6432 254.065 -40.7065 254.02 -40.7801C253.957 -40.8394 253.907 -40.9109 253.872 -40.9904C253.838 -41.0699 253.82 -41.1557 253.82 -41.2423C253.82 -41.3289 253.838 -41.4145 253.872 -41.494C253.907 -41.5735 253.957 -41.6451 254.02 -41.7043L258.245 -44.8202C258.293 -44.9435 258.382 -45.0459 258.499 -45.1088C258.615 -45.1718 258.75 -45.1911 258.879 -45.1635L258.773 -44.9523ZM250.218 -38.7997C250.327 -38.7987 250.434 -38.7719 250.53 -38.7214C250.627 -38.6709 250.71 -38.5982 250.772 -38.5093C250.823 -38.4383 250.859 -38.358 250.879 -38.2731C250.898 -38.1881 250.9 -38.1001 250.886 -38.0141C250.871 -37.9282 250.839 -37.846 250.793 -37.7724C250.746 -37.6987 250.685 -37.6351 250.614 -37.585C249.162 -36.5816 247.683 -35.6046 246.204 -34.654C246.132 -34.6047 246.05 -34.5702 245.964 -34.5527C245.878 -34.5353 245.789 -34.5352 245.703 -34.5524C245.617 -34.5696 245.535 -34.6038 245.463 -34.653C245.39 -34.7022 245.328 -34.7653 245.28 -34.8388C245.19 -34.9905 245.161 -35.1712 245.2 -35.3433C245.24 -35.5154 245.344 -35.6657 245.491 -35.763C246.97 -36.7136 248.422 -37.6907 249.848 -38.6677C249.957 -38.8387 250.127 -38.9615 250.323 -39.011L250.218 -38.7997ZM241.398 -33.0432C241.51 -33.0417 241.619 -33.0118 241.716 -32.9564C241.813 -32.901 241.895 -32.8218 241.953 -32.7264C242 -32.6543 242.033 -32.5733 242.048 -32.4883C242.063 -32.4032 242.061 -32.316 242.041 -32.2319C242.021 -32.1479 241.984 -32.0687 241.933 -31.9994C241.881 -31.93 241.816 -31.8719 241.742 -31.8286C240.236 -30.9044 238.731 -29.9802 237.2 -29.188C237.051 -29.1207 236.882 -29.1111 236.727 -29.1609C236.571 -29.2107 236.439 -29.3165 236.357 -29.4577C236.275 -29.599 236.248 -29.7658 236.282 -29.9257C236.316 -30.0856 236.407 -30.2273 236.54 -30.3235L241.055 -32.964C241.097 -33.048 241.161 -33.1192 241.24 -33.1702C241.319 -33.2213 241.41 -33.2505 241.504 -33.2545L241.398 -33.0432ZM232.315 -27.7621C232.43 -27.7635 232.544 -27.732 232.642 -27.6712C232.74 -27.6104 232.819 -27.5228 232.869 -27.4188C232.956 -27.268 232.98 -27.0892 232.935 -26.9211C232.891 -26.7529 232.782 -26.6092 232.632 -26.521L228.011 -23.8805C227.935 -23.8348 227.851 -23.8054 227.764 -23.7941C227.677 -23.7827 227.588 -23.7897 227.504 -23.8145C227.419 -23.8394 227.341 -23.8816 227.273 -23.9384C227.206 -23.9952 227.151 -24.0654 227.113 -24.1445C227.071 -24.2208 227.045 -24.3045 227.035 -24.391C227.026 -24.4774 227.034 -24.5649 227.058 -24.6483C227.083 -24.7318 227.124 -24.8095 227.178 -24.8771C227.233 -24.9447 227.3 -25.0009 227.377 -25.0423L231.971 -27.6829C232.092 -27.8029 232.251 -27.8776 232.42 -27.8942L232.315 -27.7621ZM223.02 -22.7715C223.165 -22.7665 223.304 -22.714 223.416 -22.6219C223.529 -22.5298 223.607 -22.4034 223.64 -22.2621C223.673 -22.1208 223.659 -21.9726 223.599 -21.8403C223.54 -21.708 223.438 -21.5992 223.31 -21.5304C221.752 -20.7118 220.195 -19.9196 218.61 -19.1538C218.452 -19.0783 218.27 -19.0663 218.103 -19.1204C217.937 -19.1744 217.797 -19.2903 217.712 -19.4443C217.637 -19.6027 217.625 -19.784 217.679 -19.951C217.733 -20.118 217.849 -20.2579 218.003 -20.3421L222.729 -22.6922C222.776 -22.7544 222.835 -22.8055 222.904 -22.8421C222.972 -22.8786 223.048 -22.8995 223.126 -22.9035L223.02 -22.7715ZM213.672 -18.2032C213.794 -18.2042 213.914 -18.1698 214.017 -18.1042C214.12 -18.0386 214.202 -17.9446 214.253 -17.8335C214.293 -17.7541 214.317 -17.6674 214.322 -17.5787C214.328 -17.49 214.316 -17.401 214.286 -17.3171C214.256 -17.2333 214.21 -17.1563 214.15 -17.0908C214.09 -17.0252 214.017 -16.9725 213.936 -16.9357L209.131 -14.7177C209.051 -14.6827 208.965 -14.6639 208.878 -14.6622C208.791 -14.6606 208.704 -14.6761 208.623 -14.708C208.542 -14.7399 208.469 -14.7876 208.406 -14.8481C208.343 -14.9087 208.294 -14.981 208.259 -15.061C208.195 -15.2227 208.195 -15.4025 208.259 -15.5643C208.323 -15.726 208.445 -15.8576 208.602 -15.9324C210.187 -16.6453 211.797 -17.3847 213.382 -18.1505L213.672 -18.2032ZM204.061 -13.8463C204.185 -13.8417 204.305 -13.8021 204.408 -13.732C204.511 -13.662 204.592 -13.5643 204.642 -13.4502C204.714 -13.2925 204.721 -13.1126 204.662 -12.9495C204.603 -12.7864 204.481 -12.6533 204.325 -12.5788L199.466 -10.4927C199.386 -10.4581 199.3 -10.4394 199.213 -10.4379C199.127 -10.4364 199.04 -10.4521 198.959 -10.4839C198.878 -10.5158 198.804 -10.5633 198.742 -10.6238C198.679 -10.6842 198.629 -10.7563 198.595 -10.836C198.56 -10.9158 198.541 -11.0016 198.54 -11.0886C198.538 -11.1755 198.554 -11.2619 198.586 -11.3428C198.618 -11.4237 198.665 -11.4976 198.726 -11.5601C198.786 -11.6227 198.858 -11.6728 198.938 -11.7075L203.797 -13.7671C203.871 -13.83 203.963 -13.867 204.061 -13.8727V-13.8463ZM194.343 -9.75337C194.494 -9.74873 194.638 -9.6929 194.752 -9.59502C194.867 -9.49715 194.944 -9.36314 194.972 -9.21523C195 -9.06732 194.976 -8.91441 194.905 -8.78177C194.834 -8.64913 194.719 -8.54475 194.581 -8.48595L189.669 -6.5583C189.587 -6.51022 189.495 -6.48058 189.4 -6.47135C189.306 -6.46212 189.21 -6.47356 189.12 -6.50487C189.03 -6.53619 188.948 -6.58663 188.879 -6.65274C188.81 -6.71885 188.757 -6.79902 188.722 -6.8878C188.687 -6.97659 188.672 -7.07185 188.678 -7.16703C188.683 -7.26221 188.709 -7.35505 188.754 -7.43916C188.799 -7.52328 188.862 -7.59669 188.938 -7.65432C189.014 -7.71194 189.101 -7.75237 189.194 -7.77294L194.079 -9.70058C194.157 -9.7525 194.249 -9.78006 194.343 -9.7798V-9.75337ZM147.367 -8.77637H152.649C152.824 -8.77637 152.992 -8.70685 153.115 -8.58305C153.239 -8.45925 153.309 -8.29131 153.309 -8.11623C153.29 -7.94293 153.212 -7.78171 153.086 -7.66093C152.96 -7.54015 152.796 -7.46757 152.622 -7.45609H147.341C147.166 -7.45609 146.998 -7.52568 146.874 -7.64948C146.751 -7.77328 146.681 -7.94115 146.681 -8.11623C146.677 -8.20738 146.692 -8.2983 146.726 -8.38329C146.759 -8.46826 146.809 -8.54546 146.874 -8.60996C146.938 -8.67448 147.015 -8.72498 147.1 -8.75816C147.185 -8.79134 147.276 -8.80653 147.367 -8.8028V-8.77637ZM142.086 -8.77637C142.257 -8.7765 142.421 -8.71062 142.544 -8.59248C142.667 -8.47433 142.74 -8.31313 142.746 -8.14266C142.747 -7.96937 142.682 -7.80228 142.564 -7.67495C142.447 -7.54762 142.286 -7.46941 142.113 -7.45609C140.344 -7.45609 138.574 -7.45609 136.832 -7.29765C136.743 -7.29047 136.653 -7.30136 136.569 -7.32965C136.484 -7.35793 136.406 -7.40307 136.34 -7.46229C136.273 -7.52151 136.219 -7.5936 136.181 -7.67422C136.143 -7.75485 136.122 -7.84229 136.119 -7.93137C136.115 -8.01807 136.129 -8.10464 136.159 -8.1861C136.189 -8.26754 136.234 -8.34232 136.293 -8.40609C136.352 -8.46986 136.423 -8.52139 136.502 -8.55775C136.581 -8.5941 136.666 -8.61454 136.752 -8.61794C138.522 -8.61794 140.264 -8.74996 142.034 -8.77637H142.086ZM157.93 -8.5123C159.699 -8.5123 161.468 -8.30112 163.211 -8.16909C163.307 -8.18856 163.406 -8.18645 163.501 -8.16296C163.596 -8.13948 163.684 -8.09514 163.76 -8.03323C163.836 -7.97131 163.897 -7.89333 163.939 -7.80493C163.981 -7.71653 164.002 -7.61991 164.002 -7.52208C164.002 -7.42425 163.981 -7.32771 163.939 -7.23931C163.897 -7.15092 163.836 -7.07293 163.76 -7.01102C163.684 -6.9491 163.596 -6.90477 163.501 -6.88128C163.406 -6.85779 163.307 -6.85568 163.211 -6.87515C161.451 -6.99838 159.69 -7.10399 157.93 -7.19201C157.752 -7.20554 157.587 -7.28746 157.469 -7.42046C157.351 -7.55347 157.289 -7.72722 157.296 -7.90501C157.314 -8.05732 157.385 -8.19862 157.495 -8.30463C157.606 -8.41064 157.75 -8.47474 157.903 -8.48595L157.93 -8.5123ZM131.524 -8.35387C131.695 -8.354 131.859 -8.28812 131.982 -8.16998C132.105 -8.05183 132.177 -7.89062 132.184 -7.72015C132.192 -7.54935 132.132 -7.38235 132.019 -7.2543C131.906 -7.12625 131.747 -7.0471 131.577 -7.03358L126.296 -6.61108C126.209 -6.60386 126.122 -6.61391 126.039 -6.64057C125.956 -6.66724 125.879 -6.71 125.813 -6.76645C125.747 -6.82289 125.692 -6.89187 125.653 -6.96944C125.613 -7.04701 125.589 -7.13165 125.583 -7.21844C125.576 -7.30519 125.586 -7.39248 125.612 -7.47534C125.639 -7.5582 125.682 -7.63504 125.738 -7.7013C125.795 -7.76756 125.864 -7.82201 125.941 -7.8615C126.019 -7.90099 126.103 -7.92471 126.19 -7.93137L131.471 -8.35387H131.524ZM168.492 -7.69373L173.773 -7.08645C173.944 -7.0603 174.098 -6.96819 174.201 -6.82995C174.305 -6.69171 174.35 -6.51838 174.328 -6.34708C174.302 -6.17436 174.211 -6.0181 174.073 -5.91016C173.936 -5.80223 173.762 -5.75075 173.588 -5.76616C171.828 -6.01261 170.068 -6.22383 168.307 -6.39987C168.158 -6.43018 168.024 -6.51115 167.928 -6.62905C167.831 -6.74696 167.779 -6.89452 167.779 -7.0468C167.779 -7.19907 167.831 -7.34673 167.928 -7.46462C168.024 -7.58253 168.158 -7.66342 168.307 -7.69373H168.492ZM121.147 -7.37687C121.306 -7.37743 121.46 -7.31796 121.577 -7.2103C121.694 -7.10265 121.767 -6.9547 121.78 -6.79594C121.803 -6.62465 121.758 -6.45132 121.654 -6.31308C121.55 -6.17484 121.397 -6.08273 121.226 -6.05658L115.945 -5.37009C115.858 -5.35506 115.769 -5.35754 115.683 -5.37742C115.597 -5.39731 115.516 -5.43413 115.445 -5.48581C115.374 -5.53748 115.313 -5.60297 115.268 -5.67832C115.222 -5.75367 115.192 -5.83741 115.179 -5.92458C115.156 -6.09588 115.201 -6.26921 115.305 -6.40745C115.409 -6.54568 115.563 -6.63779 115.733 -6.66394C117.45 -6.928 119.193 -7.16563 121.015 -7.37687H121.147ZM178.949 -6.32066L183.121 -5.5813L184.23 -6.0038C184.398 -6.05765 184.581 -6.04694 184.742 -5.97374C184.903 -5.90054 185.031 -5.77009 185.101 -5.60773C185.161 -5.44315 185.152 -5.26164 185.078 -5.1032C185.004 -4.94475 184.87 -4.82231 184.705 -4.76273V-4.63065C184.667 -4.45729 184.563 -4.30549 184.416 -4.20702C184.268 -4.10855 184.088 -4.07113 183.913 -4.10258L183.253 -4.23458L179.767 -2.96716C179.603 -2.9077 179.421 -2.91602 179.263 -2.99029C179.104 -3.06455 178.982 -3.19869 178.922 -3.36323C178.889 -3.44439 178.873 -3.53155 178.875 -3.61924C178.877 -3.70694 178.898 -3.79325 178.935 -3.87268C178.972 -3.9521 179.025 -4.02291 179.091 -4.08067C179.157 -4.13842 179.235 -4.18189 179.318 -4.20823L180.718 -4.70995L178.764 -5.05315C178.677 -5.06596 178.593 -5.09612 178.518 -5.14179C178.442 -5.18747 178.377 -5.2478 178.325 -5.31916C178.273 -5.39053 178.237 -5.47153 178.217 -5.55737C178.197 -5.6432 178.194 -5.73212 178.209 -5.81894C178.254 -5.95818 178.343 -6.07938 178.462 -6.16489C178.58 -6.25039 178.723 -6.29569 178.87 -6.29423L178.949 -6.32066ZM110.716 -5.79251C110.866 -5.76221 111 -5.68131 111.096 -5.56341C111.192 -5.4455 111.245 -5.29786 111.245 -5.14558C111.245 -4.99331 111.192 -4.84574 111.096 -4.72784C111 -4.60993 110.866 -4.52895 110.716 -4.49866C108.974 -4.15538 107.257 -3.8121 105.594 -3.41601C105.423 -3.38362 105.246 -3.41747 105.099 -3.51061C104.951 -3.60376 104.845 -3.74924 104.801 -3.91772C104.782 -4.0027 104.78 -4.09071 104.794 -4.17664C104.809 -4.26257 104.841 -4.34474 104.887 -4.41839C104.934 -4.49204 104.995 -4.55571 105.066 -4.60575C105.137 -4.65578 105.218 -4.69122 105.303 -4.70995C106.967 -5.10603 108.71 -5.44923 110.584 -5.79251H110.716ZM189.273 -4.20823H189.432C191.148 -3.81214 192.891 -3.33681 194.555 -2.86151C194.726 -2.81248 194.871 -2.69734 194.958 -2.54135C195.045 -2.38536 195.066 -2.2013 195.017 -2.02972C194.968 -1.85815 194.852 -1.71306 194.696 -1.6264C194.54 -1.53974 194.356 -1.51863 194.185 -1.56766C192.521 -2.06937 190.831 -2.51823 189.115 -2.94073C188.948 -2.98435 188.805 -3.09176 188.716 -3.23985C188.627 -3.38795 188.6 -3.56489 188.64 -3.73286C188.682 -3.85132 188.756 -3.95589 188.854 -4.03506C188.952 -4.11422 189.069 -4.16497 189.194 -4.1818L189.273 -4.20823ZM100.445 -3.41601C100.587 -3.41601 100.726 -3.36971 100.841 -3.28401C100.955 -3.19831 101.038 -3.07785 101.078 -2.94073C101.102 -2.8575 101.11 -2.77032 101.101 -2.68414C101.091 -2.59797 101.065 -2.51446 101.023 -2.43845C100.982 -2.36243 100.925 -2.29537 100.858 -2.2411C100.79 -2.18682 100.713 -2.14642 100.629 -2.12215C98.8602 -1.62045 97.1966 -1.06588 95.6651 -0.51136C95.5005 -0.451904 95.319 -0.460297 95.1606 -0.534569C95.0021 -0.608841 94.8797 -0.742981 94.8201 -0.907509C94.7868 -0.98867 94.7707 -1.07584 94.7729 -1.16353C94.775 -1.25122 94.7953 -1.33753 94.8326 -1.41696C94.8698 -1.49639 94.9231 -1.56719 94.9892 -1.62495C95.0552 -1.68271 95.1325 -1.7261 95.2162 -1.75243C96.7741 -2.33336 98.4641 -2.88795 100.26 -3.38966L100.445 -3.41601ZM174.645 -2.46544C174.806 -2.47243 174.964 -2.41991 175.09 -2.31797C175.215 -2.21603 175.299 -2.07168 175.325 -1.91223C175.351 -1.75279 175.317 -1.58933 175.231 -1.45282C175.145 -1.31631 175.011 -1.21622 174.856 -1.17151L169.839 0.491989C169.684 0.514709 169.526 0.481705 169.393 0.398834C169.261 0.315964 169.162 0.188667 169.114 0.0395889C169.066 -0.109489 169.073 -0.270622 169.134 -0.415062C169.194 -0.559509 169.303 -0.677917 169.443 -0.749084L174.433 -2.43901L174.645 -2.46544ZM199.387 -1.22437H199.598C201.341 -0.617035 202.978 0.0431595 204.536 0.729713C204.618 0.761093 204.693 0.809242 204.756 0.871216C204.819 0.933189 204.868 1.00759 204.9 1.0896C204.932 1.17161 204.947 1.25948 204.943 1.34755C204.94 1.43562 204.918 1.52194 204.879 1.60107C204.804 1.75797 204.673 1.88065 204.511 1.94435C204.349 2.00806 204.17 2.00807 204.008 1.94435C202.476 1.2578 200.866 0.624039 199.149 0.0167084C198.99 -0.0268631 198.852 -0.128716 198.764 -0.268723C198.676 -0.408737 198.644 -0.576668 198.674 -0.739334C198.704 -0.901993 198.794 -1.04758 198.926 -1.14717C199.058 -1.24676 199.222 -1.29311 199.387 -1.27715V-1.22437ZM90.3575 0.280777C90.4811 0.288696 90.6009 0.326469 90.7067 0.390854C90.8125 0.455246 90.9011 0.544365 90.9649 0.650497C91.0048 0.729927 91.0283 0.816566 91.0339 0.905304C91.0396 0.994041 91.0273 1.08303 90.9977 1.16688C90.9681 1.25072 90.9218 1.3277 90.8617 1.39324C90.8016 1.45878 90.7289 1.51154 90.6479 1.54829C89.1029 2.29643 87.6272 3.18008 86.2382 4.18886C86.1148 4.30981 85.9489 4.3775 85.7761 4.3775C85.6033 4.3775 85.4374 4.30981 85.314 4.18886C85.2584 4.12095 85.2175 4.0422 85.1939 3.95766C85.1703 3.87312 85.1646 3.78458 85.177 3.6977C85.1894 3.61081 85.2197 3.52744 85.2661 3.45288C85.3124 3.37833 85.3737 3.31426 85.4461 3.26464C86.9077 2.25339 88.4538 1.36993 90.0671 0.624069C90.1164 0.476692 90.2203 0.353828 90.3575 0.280777ZM164.294 0.86171C164.455 0.854721 164.613 0.90715 164.739 1.00909C164.864 1.11104 164.948 1.25539 164.974 1.41483C165 1.57428 164.966 1.73773 164.88 1.87424C164.794 2.01076 164.66 2.11085 164.505 2.15556L159.435 3.71349C159.267 3.76251 159.086 3.7428 158.933 3.65862C158.779 3.57443 158.665 3.43272 158.616 3.26464C158.567 3.09657 158.587 2.91587 158.671 2.76236C158.755 2.60885 158.897 2.49509 159.065 2.44607L164.109 0.888138L164.294 0.86171ZM208.682 3.10621H208.998C210.556 3.97144 212.063 4.92352 213.514 5.95799C213.585 6.00803 213.646 6.07171 213.693 6.14536C213.739 6.219 213.771 6.30118 213.786 6.38711C213.8 6.47303 213.798 6.56104 213.778 6.64602C213.759 6.731 213.723 6.81126 213.672 6.88221C213.622 6.95361 213.559 7.01437 213.485 7.06103C213.411 7.10768 213.329 7.13929 213.243 7.15402C213.157 7.16875 213.069 7.16631 212.984 7.14685C212.899 7.12739 212.819 7.09129 212.748 7.04064C211.344 6.02927 209.88 5.10342 208.365 4.26807C208.235 4.19814 208.133 4.08687 208.074 3.95202C208.015 3.81717 208.002 3.66645 208.039 3.5238C208.075 3.38115 208.158 3.25474 208.275 3.16472C208.391 3.07469 208.534 3.02625 208.682 3.027V3.10621ZM154.18 3.89835C154.323 3.89835 154.462 3.94473 154.576 4.03043C154.691 4.11613 154.774 4.23651 154.814 4.37363C154.838 4.45686 154.846 4.54412 154.836 4.63029C154.827 4.71648 154.801 4.7999 154.759 4.87592C154.717 4.95193 154.661 5.01899 154.593 5.07327C154.526 5.12754 154.448 5.16793 154.365 5.19221L149.269 6.59179C149.187 6.61575 149.102 6.62303 149.017 6.6133C148.933 6.60358 148.851 6.57701 148.778 6.53514C148.704 6.49326 148.639 6.43692 148.587 6.36954C148.535 6.30215 148.498 6.22507 148.477 6.14285C148.428 5.97478 148.447 5.79409 148.531 5.64058C148.616 5.48706 148.757 5.37331 148.925 5.32429L153.995 3.92478L154.18 3.89835ZM143.988 6.53893C144.135 6.53307 144.28 6.57672 144.399 6.66286C144.519 6.749 144.607 6.87265 144.648 7.01421C144.689 7.18558 144.662 7.36613 144.574 7.5185C144.485 7.67088 144.342 7.78339 144.172 7.83278L138.891 9.10029C138.806 9.11935 138.718 9.12154 138.633 9.10665C138.547 9.09176 138.465 9.06008 138.391 9.0135C138.318 8.96691 138.254 8.90627 138.204 8.83508C138.154 8.76389 138.118 8.68353 138.099 8.59857C138.08 8.51361 138.078 8.42577 138.093 8.33997C138.108 8.25419 138.139 8.17219 138.186 8.09863C138.232 8.02507 138.293 7.9614 138.364 7.91127C138.435 7.86114 138.516 7.8255 138.601 7.80643L143.697 6.53893H143.988ZM82.0925 6.53893C82.2037 6.5007 82.3246 6.5007 82.4358 6.53893C82.5105 6.5822 82.5757 6.64033 82.6272 6.70969C82.6786 6.77904 82.7154 6.85817 82.7352 6.94225C82.7549 7.02633 82.7573 7.11355 82.7422 7.19859C82.727 7.28362 82.6946 7.36465 82.647 7.43671C82.3641 7.91196 82.1339 8.41667 81.9605 8.94186C81.8376 9.25288 81.7748 9.58442 81.7756 9.91885C81.7769 10.2093 81.836 10.4966 81.9493 10.7641C82.0626 11.0316 82.228 11.2738 82.4358 11.4768C82.5095 11.5358 82.5697 11.6099 82.6123 11.6942C82.655 11.7785 82.679 11.8709 82.6828 11.9652C82.6867 12.0595 82.6703 12.1536 82.6348 12.241C82.5992 12.3285 82.5452 12.4073 82.4766 12.4722C82.4079 12.537 82.3262 12.5863 82.2368 12.6169C82.1475 12.6474 82.0526 12.6584 81.9586 12.6492C81.8647 12.64 81.7738 12.6107 81.6922 12.5633C81.6105 12.5159 81.5399 12.4515 81.4852 12.3746C81.1586 12.0545 80.8992 11.6724 80.7224 11.2507C80.5456 10.829 80.4548 10.3761 80.4554 9.91885C80.4595 9.45129 80.5397 8.98754 80.693 8.54578C80.9038 7.91642 81.1874 7.31383 81.538 6.75021C81.5933 6.68755 81.6605 6.63637 81.7357 6.59977C81.8108 6.56316 81.8924 6.54182 81.9759 6.53691C82.0593 6.53201 82.1429 6.5437 82.2218 6.57124C82.3008 6.59878 82.3735 6.6416 82.4358 6.69735L82.0925 6.53893ZM133.742 8.88908C133.892 8.89205 134.036 8.94595 134.152 9.04194C134.267 9.13793 134.346 9.27023 134.376 9.41714C134.395 9.50212 134.398 9.59013 134.383 9.67606C134.368 9.76199 134.337 9.84415 134.29 9.91781C134.243 9.99146 134.183 10.0551 134.111 10.1052C134.04 10.1552 133.959 10.1906 133.874 10.2094L128.593 11.3184C128.422 11.3492 128.245 11.3111 128.101 11.2122C127.958 11.1132 127.859 10.9616 127.827 10.7903C127.808 10.7069 127.806 10.6205 127.821 10.5363C127.836 10.4521 127.868 10.3718 127.915 10.3003C127.961 10.2287 128.022 10.1674 128.094 10.12C128.165 10.0726 128.245 10.0401 128.329 10.0245L133.478 8.91543L133.742 8.88908ZM217.131 9.15307C217.221 9.15426 217.309 9.17365 217.391 9.20996C217.472 9.24627 217.546 9.2988 217.607 9.36436C218.869 10.6453 219.984 12.0623 220.934 13.5893C221.018 13.7425 221.043 13.9212 221.004 14.0916C220.965 14.262 220.865 14.4121 220.723 14.5135C220.568 14.6015 220.385 14.6258 220.212 14.5814C220.04 14.5371 219.892 14.4275 219.798 14.2758C218.919 12.8224 217.864 11.4832 216.656 10.2886C216.592 10.227 216.541 10.1531 216.507 10.0715C216.472 9.98981 216.454 9.90195 216.454 9.81321C216.454 9.72447 216.472 9.63669 216.507 9.55502C216.541 9.47335 216.592 9.39951 216.656 9.33793C216.755 9.25486 216.879 9.20717 217.008 9.20238C217.137 9.1976 217.264 9.23606 217.369 9.31158L217.131 9.15307ZM123.391 11.0015C123.548 11.0046 123.699 11.0614 123.819 11.1623C123.939 11.2632 124.021 11.4021 124.051 11.556C124.075 11.7266 124.035 11.9001 123.937 12.042C123.839 12.1839 123.691 12.2837 123.523 12.3218C121.754 12.6651 120.011 12.9555 118.242 13.246C118.071 13.2687 117.897 13.2234 117.759 13.1197C117.621 13.0161 117.529 12.8623 117.503 12.6915C117.472 12.52 117.51 12.3432 117.609 12.1998C117.708 12.0563 117.859 11.9578 118.031 11.9257C119.721 11.6617 121.463 11.3448 123.312 11.0279L123.391 11.0015ZM112.987 12.7179C113.162 12.7179 113.33 12.7875 113.454 12.9113C113.578 13.0351 113.647 13.2029 113.647 13.378C113.647 13.5531 113.578 13.721 113.454 13.8448C113.33 13.9686 113.162 14.0381 112.987 14.0381C111.192 14.3022 109.422 14.5135 107.706 14.6983C107.613 14.7244 107.516 14.73 107.421 14.7145C107.326 14.699 107.235 14.6629 107.156 14.6088C107.076 14.5546 107.009 14.4837 106.96 14.4009C106.911 14.3182 106.88 14.2257 106.87 14.1299C106.861 14.0341 106.872 13.9373 106.903 13.8464C106.935 13.7554 106.986 13.6724 107.053 13.6032C107.12 13.5341 107.202 13.4805 107.292 13.4462C107.382 13.4118 107.478 13.3976 107.574 13.4044L112.855 12.7443L112.987 12.7179ZM86.5815 13.4837H86.7135C88.4032 13.8115 90.116 14.0058 91.8362 14.0646C92.0137 14.0781 92.1789 14.16 92.2971 14.293C92.4154 14.426 92.4773 14.5997 92.4699 14.7775C92.4564 14.9479 92.3773 15.1065 92.2493 15.2197C92.1212 15.333 91.9542 15.3922 91.7834 15.3849C90.0114 15.3018 88.2469 15.0989 86.5023 14.7775C86.3321 14.7337 86.1841 14.6287 86.0866 14.4825C85.9892 14.3363 85.9491 14.1593 85.9741 13.9854C86.0104 13.8942 86.0658 13.8118 86.1366 13.7439C86.2074 13.6759 86.292 13.6238 86.3846 13.5913C86.4771 13.5588 86.5756 13.5465 86.6734 13.5553C86.7711 13.564 86.8658 13.5936 86.9511 13.6421L86.5815 13.4837ZM102.425 13.8797C102.6 13.8797 102.768 13.9493 102.892 14.0731C103.015 14.1969 103.085 14.3648 103.085 14.5399C103.085 14.7149 103.015 14.8829 102.892 15.0067C102.768 15.1305 102.6 15.2 102.425 15.2C100.577 15.332 98.8074 15.4377 97.1438 15.4641C96.9732 15.4642 96.8091 15.3983 96.6861 15.2802C96.563 15.162 96.4905 15.0008 96.4837 14.8304C96.4835 14.6528 96.5522 14.482 96.6753 14.354C96.7984 14.2259 96.9663 14.1506 97.1438 14.1438C98.8074 14.1438 100.55 14.0117 102.425 13.8797ZM222.386 18.0782C222.531 18.0841 222.671 18.1358 222.785 18.2259C222.899 18.3161 222.981 18.44 223.02 18.5799C223.423 20.1411 223.627 21.747 223.627 23.3594V24.0459C223.628 24.1338 223.61 24.2208 223.574 24.3013C223.539 24.3819 223.488 24.4542 223.423 24.5138C223.359 24.5734 223.283 24.6189 223.199 24.6475C223.116 24.6761 223.028 24.687 222.941 24.6797C222.77 24.6728 222.609 24.6003 222.491 24.4772C222.373 24.3542 222.307 24.1901 222.307 24.0195V23.4386C222.311 21.9423 222.125 20.4516 221.752 19.0024C221.728 18.9192 221.721 18.832 221.73 18.7459C221.739 18.6597 221.766 18.5762 221.807 18.5002C221.849 18.4241 221.905 18.3571 221.973 18.3028C222.041 18.2485 222.118 18.2081 222.201 18.1839L222.386 18.0782ZM222.254 28.5085H222.386C222.471 28.5272 222.552 28.5626 222.623 28.6126C222.695 28.6627 222.755 28.7264 222.802 28.8001C222.849 28.8737 222.88 28.9559 222.895 29.0418C222.91 29.1278 222.907 29.2157 222.888 29.3007C222.505 31.0409 222.002 32.7525 221.383 34.4234C221.32 34.5833 221.197 34.7123 221.04 34.783C220.884 34.8538 220.706 34.8607 220.544 34.8022C220.382 34.7438 220.25 34.6246 220.175 34.47C220.1 34.3155 220.088 34.1377 220.142 33.9745C220.743 32.3564 221.229 30.6974 221.594 29.0102C221.631 28.9226 221.685 28.8436 221.754 28.7782C221.823 28.7127 221.905 28.6622 221.994 28.63C222.083 28.5977 222.178 28.5844 222.273 28.5907C222.368 28.5971 222.46 28.623 222.545 28.667L222.254 28.5085ZM218.689 38.3579H218.98C219.132 38.437 219.247 38.5722 219.301 38.7348C219.356 38.8974 219.345 39.0747 219.27 39.2292C218.505 40.7608 217.633 42.3451 216.63 43.903C216.528 44.0454 216.378 44.1456 216.208 44.1845C216.037 44.2235 215.859 44.1985 215.706 44.1143C215.558 44.017 215.454 43.8667 215.415 43.6946C215.375 43.5225 215.404 43.3418 215.494 43.1901C216.455 41.7246 217.337 40.2085 218.135 38.6483C218.237 38.5296 218.378 38.4511 218.533 38.427C218.688 38.4028 218.846 38.4345 218.98 38.5163L218.689 38.3579ZM213.171 47.3358C213.314 47.3316 213.454 47.3784 213.567 47.4678C213.688 47.5912 213.755 47.7572 213.755 47.93C213.755 48.1028 213.688 48.2686 213.567 48.392C212.537 49.7651 211.454 51.1911 210.292 52.5642C210.241 52.6416 210.174 52.7073 210.095 52.7569C210.016 52.8066 209.928 52.8391 209.836 52.8523C209.744 52.8655 209.65 52.859 209.561 52.8334C209.471 52.8078 209.388 52.7636 209.317 52.7037C209.246 52.6438 209.188 52.5696 209.148 52.4858C209.108 52.4021 209.085 52.3108 209.083 52.2178C209.08 52.1248 209.097 52.0324 209.133 51.9464C209.168 51.8605 209.221 51.783 209.289 51.7191C210.424 50.3725 211.507 49.0786 212.51 47.5999C212.555 47.517 212.619 47.4462 212.697 47.3935C212.775 47.3409 212.865 47.3079 212.958 47.2975C213.052 47.2871 213.146 47.2995 213.234 47.3338C213.321 47.3681 213.399 47.4232 213.461 47.4943L213.171 47.3358ZM206.437 55.4424C206.521 55.439 206.604 55.4537 206.682 55.4856C206.759 55.5175 206.829 55.5659 206.886 55.6272C206.949 55.6865 206.999 55.7581 207.034 55.8376C207.068 55.917 207.086 56.0027 207.086 56.0893C207.086 56.1759 207.068 56.2616 207.034 56.3411C206.999 56.4206 206.949 56.4921 206.886 56.5514C205.724 57.8189 204.483 59.192 203.189 60.3802C203.066 60.5012 202.9 60.569 202.727 60.569C202.554 60.569 202.388 60.5012 202.265 60.3802C202.202 60.321 202.152 60.2494 202.117 60.1699C202.083 60.0904 202.065 60.0048 202.065 59.9182C202.065 59.8316 202.083 59.7459 202.117 59.6664C202.152 59.5869 202.202 59.5153 202.265 59.4561C203.533 58.1886 204.906 56.8155 205.909 55.68C206.021 55.5839 206.159 55.5247 206.306 55.5105C206.452 55.4963 206.6 55.5278 206.728 55.6008L206.437 55.4424ZM198.964 62.8624C199.056 62.8634 199.147 62.8853 199.229 62.9265C199.312 62.9676 199.384 63.027 199.44 63.1C199.503 63.1593 199.553 63.2309 199.588 63.3104C199.622 63.3899 199.64 63.4755 199.64 63.5621C199.64 63.6487 199.622 63.7344 199.588 63.8139C199.553 63.8934 199.503 63.965 199.44 64.0242C198.146 65.2125 196.799 66.3743 195.479 67.5362C195.413 67.5934 195.336 67.6371 195.254 67.6647C195.171 67.6924 195.083 67.7035 194.996 67.6973C194.909 67.6912 194.824 67.668 194.746 67.629C194.668 67.5901 194.599 67.5361 194.541 67.4702C194.484 67.4043 194.44 67.3278 194.413 67.245C194.385 67.1622 194.374 67.0749 194.38 66.9878C194.386 66.9008 194.41 66.8158 194.449 66.7377C194.488 66.6596 194.541 66.59 194.607 66.5328C195.954 65.3709 197.248 64.2355 198.542 63.0472C198.649 62.983 198.77 62.947 198.895 62.9424C199.02 62.9377 199.143 62.9647 199.255 63.0208L198.964 62.8624ZM191.043 69.7279C191.145 69.7298 191.245 69.7546 191.336 69.8002C191.428 69.8459 191.508 69.9114 191.571 69.9919C191.634 70.0512 191.684 70.1228 191.719 70.2023C191.753 70.2818 191.771 70.3674 191.771 70.454C191.771 70.5406 191.753 70.6263 191.719 70.7058C191.684 70.7853 191.634 70.8569 191.571 70.9161C190.198 72.0252 188.798 73.1078 187.399 74.1905C187.259 74.2955 187.082 74.3406 186.909 74.3158C186.736 74.2911 186.579 74.1985 186.474 74.0584C186.369 73.9184 186.324 73.7423 186.349 73.569C186.374 73.3956 186.466 73.2393 186.606 73.1342C188.006 72.078 189.247 70.9689 190.752 69.8863C190.827 69.8528 190.908 69.8355 190.99 69.8355C191.072 69.8355 191.153 69.8528 191.227 69.8863L191.043 69.7279ZM182.646 76.1445C182.752 76.1402 182.859 76.1621 182.955 76.2081C183.052 76.2541 183.136 76.3229 183.2 76.4085C183.251 76.4795 183.287 76.5598 183.306 76.6448C183.326 76.7297 183.328 76.8177 183.313 76.9036C183.299 76.9896 183.267 77.0717 183.22 77.1454C183.174 77.219 183.113 77.2827 183.042 77.3327L178.738 80.3958C178.589 80.4887 178.411 80.5214 178.239 80.487C178.067 80.4526 177.915 80.3539 177.813 80.211C177.763 80.1421 177.728 80.0639 177.709 79.981C177.689 79.8981 177.687 79.8122 177.702 79.7284C177.717 79.6446 177.748 79.5647 177.795 79.4934C177.841 79.422 177.901 79.3607 177.972 79.3131L182.276 76.2765C182.354 76.2364 182.442 76.2177 182.53 76.2224C182.618 76.227 182.704 76.2548 182.778 76.3029L182.646 76.1445ZM173.985 82.1386C174.093 82.1396 174.2 82.1664 174.297 82.2169C174.393 82.2674 174.476 82.3401 174.539 82.429C174.632 82.5776 174.665 82.756 174.63 82.9278C174.596 83.0997 174.497 83.2519 174.354 83.3533C172.875 84.3303 171.397 85.3073 169.918 86.2315C169.766 86.3218 169.586 86.3503 169.414 86.311C169.241 86.2716 169.091 86.1675 168.994 86.0202C168.905 85.8726 168.877 85.696 168.917 85.5283C168.956 85.3605 169.06 85.2149 169.205 85.1224C170.684 84.1982 172.136 83.2212 173.615 82.2442C173.801 82.2076 173.993 82.226 174.169 82.297L173.985 82.1386ZM165.086 87.8158C165.227 87.8189 165.363 87.8673 165.475 87.9538C165.587 88.0403 165.668 88.1603 165.706 88.2963C165.745 88.4322 165.739 88.5769 165.689 88.7091C165.639 88.8412 165.548 88.9539 165.429 89.0305L160.914 91.671C160.759 91.759 160.576 91.7834 160.403 91.739C160.231 91.6947 160.083 91.5851 159.989 91.4334C159.903 91.2826 159.879 91.1037 159.924 90.9356C159.968 90.7675 160.077 90.6238 160.227 90.5356L164.742 87.895C164.83 87.865 164.924 87.8566 165.016 87.8703C165.108 87.8841 165.195 87.9198 165.271 87.9743L165.086 87.8158ZM156.002 93.0969C156.118 93.094 156.233 93.1217 156.335 93.1774C156.437 93.233 156.523 93.3146 156.583 93.4138C156.67 93.5646 156.693 93.7435 156.649 93.9116C156.604 94.0797 156.495 94.2234 156.345 94.3116L151.724 96.9522C151.65 97.013 151.563 97.0568 151.469 97.0803C151.376 97.1039 151.278 97.1067 151.184 97.0885C151.089 97.0704 150.999 97.0318 150.921 96.9754C150.843 96.9189 150.778 96.8461 150.731 96.7619C150.684 96.6778 150.656 96.5843 150.649 96.4882C150.642 96.3921 150.656 96.2956 150.691 96.2055C150.725 96.1155 150.778 96.034 150.848 95.9668C150.917 95.8996 151 95.8484 151.091 95.8167L155.685 93.1761L156.002 93.0969ZM146.76 98.1933C146.907 98.1925 147.051 98.241 147.167 98.331C147.284 98.421 147.367 98.5475 147.403 98.6901C147.44 98.8328 147.427 98.9835 147.368 99.1183C147.309 99.2532 147.207 99.3644 147.077 99.4343L142.403 101.89C142.326 101.935 142.241 101.963 142.152 101.972C142.064 101.982 141.974 101.973 141.889 101.945C141.805 101.918 141.727 101.873 141.661 101.813C141.594 101.754 141.542 101.681 141.505 101.6C141.465 101.524 141.441 101.441 141.433 101.355C141.426 101.269 141.437 101.183 141.464 101.102C141.491 101.02 141.534 100.945 141.591 100.881C141.649 100.817 141.718 100.765 141.796 100.728L146.443 98.2725L146.76 98.1933ZM137.386 103.026C137.541 103.018 137.694 103.065 137.818 103.158C137.942 103.252 138.029 103.386 138.063 103.537C138.098 103.689 138.078 103.847 138.008 103.986C137.937 104.124 137.82 104.233 137.677 104.293L132.924 106.617C132.77 106.668 132.603 106.66 132.455 106.596C132.306 106.532 132.186 106.416 132.118 106.269C132.049 106.123 132.037 105.956 132.084 105.801C132.13 105.646 132.231 105.513 132.369 105.428L137.096 103.105C137.182 103.09 137.27 103.096 137.353 103.124C137.436 103.152 137.511 103.199 137.571 103.263L137.386 103.026Z" fill="white"/>
<path d="M265.714 171.233H266.823C267.001 171.24 267.169 171.315 267.292 171.444C267.415 171.572 267.484 171.742 267.483 171.92C267.477 172.09 267.404 172.252 267.281 172.37C267.158 172.488 266.994 172.554 266.823 172.554H265.714C264.816 172.554 263.391 172.554 261.516 172.554C261.341 172.554 261.173 172.484 261.049 172.36C260.925 172.236 260.856 172.069 260.856 171.893C260.848 171.807 260.859 171.72 260.888 171.638C260.916 171.557 260.962 171.482 261.022 171.419C261.082 171.357 261.155 171.308 261.236 171.276C261.316 171.244 261.403 171.229 261.489 171.233C263.39 171.233 264.816 171.233 265.714 171.233ZM256.208 171.418C256.379 171.418 256.543 171.484 256.666 171.602C256.789 171.72 256.861 171.881 256.868 172.052C256.869 172.225 256.804 172.392 256.686 172.52C256.569 172.647 256.407 172.725 256.235 172.738C254.624 172.738 252.855 172.738 250.953 172.95C250.866 172.957 250.778 172.946 250.695 172.918C250.612 172.889 250.535 172.843 250.471 172.784C250.406 172.724 250.355 172.652 250.32 172.571C250.285 172.491 250.267 172.404 250.267 172.316C250.26 172.228 250.27 172.14 250.299 172.057C250.328 171.974 250.373 171.898 250.433 171.833C250.492 171.769 250.565 171.717 250.645 171.682C250.726 171.647 250.813 171.629 250.901 171.629C252.828 171.629 254.597 171.471 256.182 171.418H256.208ZM245.646 171.893C245.821 171.893 245.989 171.963 246.113 172.087C246.236 172.211 246.306 172.379 246.306 172.554C246.306 172.729 246.236 172.897 246.113 173.02C245.989 173.144 245.821 173.214 245.646 173.214L240.365 173.557C240.278 173.561 240.191 173.547 240.11 173.517C240.029 173.487 239.954 173.441 239.89 173.383C239.826 173.324 239.775 173.253 239.738 173.174C239.702 173.095 239.682 173.01 239.678 172.923C239.671 172.753 239.73 172.585 239.843 172.457C239.957 172.329 240.115 172.25 240.285 172.237L245.567 171.893H245.646ZM235.084 172.633C235.25 172.632 235.41 172.695 235.533 172.807C235.655 172.92 235.73 173.074 235.744 173.24C235.752 173.414 235.693 173.584 235.58 173.716C235.468 173.849 235.309 173.933 235.136 173.953L229.855 174.402C229.684 174.417 229.514 174.365 229.381 174.256C229.248 174.148 229.162 173.992 229.142 173.821C229.127 173.643 229.183 173.466 229.296 173.328C229.409 173.19 229.572 173.102 229.75 173.082L235.031 172.633H235.084ZM224.521 173.61C224.696 173.61 224.864 173.679 224.988 173.803C225.112 173.927 225.181 174.095 225.181 174.27C225.181 174.445 225.112 174.613 224.988 174.737C224.864 174.861 224.696 174.93 224.521 174.93L219.24 175.511C219.155 175.522 219.068 175.516 218.985 175.492C218.903 175.468 218.825 175.428 218.759 175.374C218.692 175.319 218.637 175.252 218.597 175.176C218.558 175.1 218.534 175.016 218.527 174.93C218.516 174.843 218.522 174.755 218.546 174.671C218.569 174.587 218.609 174.508 218.663 174.439C218.717 174.37 218.784 174.313 218.861 174.27C218.937 174.228 219.021 174.201 219.108 174.191L224.389 173.61H224.521ZM213.959 174.851C214.118 174.85 214.272 174.91 214.389 175.017C214.507 175.125 214.579 175.273 214.593 175.432C214.615 175.603 214.57 175.777 214.466 175.915C214.363 176.053 214.209 176.145 214.038 176.171L208.757 176.858C208.67 176.873 208.581 176.87 208.495 176.85C208.41 176.831 208.329 176.794 208.257 176.742C208.186 176.69 208.126 176.625 208.08 176.55C208.034 176.474 208.004 176.39 207.991 176.303C207.98 176.216 207.987 176.128 208.01 176.044C208.033 175.96 208.073 175.881 208.127 175.812C208.181 175.743 208.248 175.686 208.325 175.643C208.401 175.601 208.485 175.574 208.572 175.564L213.853 174.851H213.959ZM203.397 176.33C203.553 176.333 203.705 176.389 203.825 176.49C203.945 176.591 204.027 176.73 204.057 176.884C204.072 176.971 204.069 177.06 204.049 177.146C204.03 177.232 203.993 177.313 203.941 177.384C203.889 177.455 203.824 177.516 203.749 177.561C203.673 177.607 203.589 177.637 203.502 177.65L198.221 178.495C198.05 178.526 197.873 178.488 197.729 178.389C197.586 178.29 197.487 178.138 197.455 177.967C197.436 177.882 197.435 177.793 197.452 177.708C197.468 177.622 197.502 177.54 197.552 177.468C197.602 177.397 197.666 177.336 197.74 177.29C197.814 177.244 197.897 177.213 197.984 177.201L203.265 176.356L203.397 176.33ZM192.966 178.099C193.123 178.102 193.274 178.159 193.394 178.26C193.514 178.36 193.596 178.499 193.627 178.653C193.651 178.824 193.61 178.997 193.512 179.139C193.414 179.281 193.267 179.381 193.098 179.419L187.817 180.423C187.646 180.453 187.469 180.415 187.326 180.316C187.182 180.217 187.084 180.066 187.052 179.894C187.032 179.809 187.031 179.721 187.048 179.635C187.064 179.549 187.099 179.468 187.148 179.396C187.198 179.324 187.262 179.263 187.336 179.217C187.41 179.171 187.493 179.141 187.58 179.129C189.322 178.759 191.039 178.442 192.861 178.125L192.966 178.099ZM182.589 180.185C182.742 180.187 182.89 180.24 183.01 180.335C183.13 180.431 183.214 180.564 183.249 180.713C183.281 180.881 183.246 181.054 183.153 181.197C183.059 181.34 182.914 181.441 182.747 181.479L177.466 182.641C177.381 182.66 177.293 182.663 177.207 182.648C177.121 182.633 177.039 182.601 176.966 182.555C176.892 182.508 176.828 182.447 176.778 182.376C176.728 182.305 176.693 182.224 176.674 182.139C176.641 181.971 176.671 181.797 176.759 181.651C176.846 181.504 176.986 181.396 177.149 181.347L182.431 180.211L182.589 180.185ZM172.291 182.588C172.442 182.583 172.589 182.631 172.709 182.722C172.829 182.813 172.915 182.943 172.951 183.09C172.991 183.257 172.964 183.435 172.875 183.583C172.786 183.731 172.643 183.838 172.476 183.882L167.379 185.202C167.296 185.226 167.209 185.234 167.123 185.224C167.036 185.215 166.953 185.189 166.877 185.147C166.801 185.105 166.734 185.049 166.68 184.982C166.625 184.914 166.585 184.836 166.561 184.753C166.537 184.668 166.53 184.579 166.541 184.492C166.553 184.404 166.581 184.32 166.625 184.243C166.67 184.167 166.729 184.1 166.799 184.047C166.87 183.994 166.95 183.956 167.036 183.935L172.211 182.482L172.291 182.588ZM162.124 185.36C162.266 185.364 162.403 185.412 162.517 185.497C162.63 185.583 162.715 185.701 162.758 185.836C162.8 186.004 162.778 186.181 162.694 186.333C162.611 186.485 162.474 186.6 162.309 186.654C160.619 187.13 158.929 187.658 157.239 188.159C157.158 188.188 157.072 188.2 156.986 188.194C156.9 188.188 156.816 188.164 156.739 188.125C156.663 188.085 156.595 188.03 156.54 187.964C156.485 187.897 156.445 187.82 156.421 187.737C156.371 187.572 156.387 187.395 156.466 187.242C156.545 187.089 156.68 186.973 156.843 186.918C158.533 186.39 160.223 185.862 161.94 185.387L162.124 185.36ZM152.011 188.529C152.151 188.527 152.287 188.57 152.401 188.65C152.515 188.731 152.6 188.846 152.645 188.978C152.696 189.146 152.681 189.328 152.602 189.485C152.523 189.642 152.388 189.763 152.222 189.823C150.559 190.377 148.895 190.958 147.258 191.566C147.177 191.599 147.09 191.615 147.002 191.613C146.914 191.611 146.828 191.59 146.749 191.553C146.669 191.516 146.598 191.463 146.541 191.397C146.483 191.331 146.439 191.253 146.413 191.17C146.354 191.005 146.362 190.824 146.436 190.665C146.511 190.507 146.645 190.384 146.809 190.325C148.446 189.717 150.136 189.136 151.8 188.556L152.011 188.529ZM142.083 192.147C142.214 192.148 142.343 192.19 142.451 192.265C142.559 192.34 142.642 192.446 142.69 192.569C142.752 192.734 142.748 192.917 142.679 193.079C142.61 193.241 142.482 193.37 142.32 193.441C140.683 194.074 139.072 194.734 137.462 195.421C137.382 195.46 137.296 195.482 137.208 195.485C137.12 195.489 137.032 195.474 136.95 195.442C136.868 195.409 136.794 195.36 136.732 195.298C136.67 195.235 136.622 195.16 136.59 195.078C136.555 194.998 136.536 194.912 136.535 194.825C136.533 194.738 136.549 194.652 136.581 194.571C136.612 194.49 136.66 194.416 136.721 194.353C136.781 194.291 136.854 194.241 136.933 194.206C138.544 193.52 140.181 192.86 141.845 192.199L142.083 192.147ZM132.365 196.292C132.492 196.301 132.614 196.341 132.721 196.411C132.827 196.48 132.914 196.576 132.973 196.688C133.036 196.85 133.036 197.03 132.973 197.192C132.909 197.353 132.786 197.485 132.629 197.56L127.903 199.831C127.744 199.906 127.563 199.918 127.396 199.864C127.229 199.81 127.089 199.694 127.005 199.54C126.929 199.382 126.917 199.201 126.971 199.034C127.025 198.867 127.141 198.727 127.295 198.642L132.075 196.345L132.365 196.292ZM122.912 201.019C123.031 201.019 123.147 201.05 123.25 201.111C123.352 201.171 123.436 201.258 123.493 201.362C123.538 201.438 123.568 201.522 123.579 201.609C123.591 201.696 123.584 201.785 123.559 201.869C123.534 201.954 123.492 202.032 123.435 202.099C123.378 202.167 123.308 202.221 123.229 202.26C121.697 203.105 120.166 203.976 118.661 204.901C118.51 204.987 118.331 205.011 118.163 204.966C117.995 204.922 117.851 204.813 117.763 204.663C117.674 204.515 117.646 204.339 117.686 204.171C117.725 204.003 117.829 203.858 117.974 203.765L122.595 201.125C122.722 201.022 122.881 200.966 123.044 200.966L122.912 201.019ZM113.828 206.3C113.938 206.296 114.047 206.321 114.144 206.372C114.241 206.423 114.324 206.498 114.383 206.591C114.432 206.663 114.467 206.745 114.484 206.831C114.502 206.917 114.502 207.005 114.485 207.092C114.467 207.178 114.433 207.259 114.384 207.332C114.335 207.405 114.272 207.467 114.198 207.515C112.719 208.465 111.241 209.469 109.868 210.472C109.796 210.523 109.716 210.558 109.631 210.578C109.546 210.597 109.458 210.599 109.373 210.584C109.287 210.57 109.205 210.538 109.131 210.492C109.057 210.445 108.994 210.385 108.943 210.314C108.893 210.243 108.857 210.162 108.838 210.078C108.819 209.993 108.816 209.905 108.831 209.819C108.846 209.733 108.877 209.651 108.924 209.577C108.97 209.504 109.031 209.44 109.102 209.39C110.501 208.386 111.98 207.383 113.485 206.406C113.562 206.376 113.644 206.364 113.726 206.368C113.808 206.373 113.888 206.394 113.96 206.432L113.828 206.3ZM105.273 212.453C105.369 212.454 105.463 212.475 105.55 212.516C105.637 212.557 105.713 212.617 105.775 212.69C105.838 212.75 105.888 212.821 105.923 212.901C105.957 212.98 105.975 213.066 105.975 213.152C105.975 213.239 105.957 213.325 105.923 213.404C105.888 213.484 105.838 213.555 105.775 213.615C104.402 214.724 103.134 215.859 101.761 216.994C101.633 217.117 101.463 217.186 101.286 217.186C101.109 217.186 100.938 217.117 100.81 216.994C100.746 216.933 100.696 216.859 100.661 216.777C100.626 216.696 100.608 216.608 100.608 216.519C100.608 216.43 100.626 216.343 100.661 216.261C100.696 216.179 100.746 216.105 100.81 216.044C102.104 214.908 103.451 213.747 104.877 212.638C105.042 212.56 105.228 212.541 105.405 212.585L105.273 212.453ZM97.3512 219.424C97.4406 219.425 97.5288 219.444 97.6105 219.481C97.6922 219.517 97.7657 219.57 97.8265 219.635C97.8896 219.694 97.94 219.766 97.9744 219.845C98.0089 219.925 98.0266 220.011 98.0266 220.097C98.0266 220.184 98.0089 220.269 97.9744 220.349C97.94 220.428 97.8896 220.5 97.8265 220.559C96.5854 221.8 95.3708 223.068 94.2089 224.362C94.0855 224.483 93.9196 224.55 93.7469 224.55C93.5741 224.55 93.4081 224.483 93.2847 224.362C93.162 224.234 93.0936 224.064 93.0936 223.886C93.0936 223.709 93.162 223.539 93.2847 223.411C94.4466 222.117 95.6877 220.77 96.9551 219.556C97.0315 219.504 97.1177 219.467 97.2084 219.449C97.2992 219.431 97.3927 219.431 97.4833 219.45L97.3512 219.424ZM129.698 226.791C131.23 226.791 132.735 226.791 134.214 226.976C134.384 226.989 134.543 227.068 134.656 227.197C134.769 227.325 134.828 227.492 134.821 227.662C134.818 227.75 134.797 227.837 134.758 227.916C134.72 227.996 134.666 228.066 134.599 228.123C134.531 228.181 134.453 228.223 134.369 228.248C134.284 228.274 134.195 228.281 134.108 228.27C132.624 228.137 131.135 228.084 129.645 228.111H128.906C128.51 228.111 128.246 227.847 128.22 227.478C128.219 227.3 128.288 227.129 128.411 227.001C128.534 226.873 128.702 226.798 128.88 226.791H129.698ZM123.625 227.055C123.8 227.055 123.968 227.125 124.092 227.248C124.215 227.372 124.285 227.54 124.285 227.715C124.285 227.89 124.215 228.058 124.092 228.182C123.968 228.306 123.8 228.375 123.625 228.375C121.935 228.534 120.192 228.719 118.344 228.983C118.257 228.998 118.168 228.995 118.082 228.975C117.996 228.955 117.915 228.919 117.844 228.867C117.773 228.815 117.712 228.75 117.667 228.674C117.621 228.599 117.591 228.515 117.578 228.428C117.555 228.257 117.601 228.083 117.704 227.945C117.808 227.807 117.962 227.715 118.133 227.689C119.928 227.425 121.724 227.214 123.414 227.055H123.625ZM90.3537 227.372C90.5058 227.364 90.6558 227.411 90.7762 227.504C90.8913 227.63 90.955 227.795 90.955 227.966C90.955 228.137 90.8913 228.302 90.7762 228.428C89.6936 229.801 88.6637 231.227 87.7131 232.653C87.6151 232.8 87.4627 232.902 87.2893 232.937C87.116 232.972 86.936 232.936 86.7889 232.838C86.6418 232.74 86.5398 232.587 86.5051 232.414C86.4704 232.241 86.506 232.061 86.604 231.914C87.5811 230.461 88.6374 229.009 89.72 227.61C89.7977 227.521 89.8963 227.452 90.0069 227.411C90.1175 227.369 90.2366 227.356 90.3537 227.372ZM139.442 227.662C141.228 227.949 142.992 228.354 144.723 228.877C144.808 228.898 144.888 228.936 144.958 228.99C145.027 229.043 145.085 229.111 145.127 229.188C145.17 229.265 145.195 229.35 145.203 229.437C145.211 229.524 145.2 229.613 145.172 229.696C145.148 229.779 145.107 229.857 145.053 229.924C144.999 229.992 144.932 230.048 144.856 230.09C144.78 230.131 144.696 230.158 144.61 230.167C144.524 230.176 144.437 230.169 144.353 230.145C142.692 229.634 140.998 229.237 139.284 228.956C139.115 228.918 138.968 228.818 138.87 228.676C138.772 228.535 138.731 228.361 138.755 228.191C138.81 228.032 138.92 227.899 139.066 227.816C139.212 227.733 139.384 227.707 139.548 227.742L139.442 227.662ZM113.195 228.666C113.35 228.677 113.496 228.742 113.607 228.85C113.719 228.959 113.789 229.103 113.804 229.257C113.82 229.412 113.781 229.567 113.694 229.696C113.606 229.824 113.476 229.918 113.327 229.96C111.637 230.303 109.92 230.699 108.204 231.148C108.121 231.172 108.033 231.178 107.948 231.166C107.862 231.155 107.779 231.126 107.705 231.082C107.631 231.037 107.566 230.978 107.516 230.908C107.466 230.837 107.43 230.757 107.412 230.673C107.372 230.505 107.399 230.328 107.488 230.18C107.577 230.031 107.72 229.924 107.887 229.88C109.604 229.432 111.346 229.009 113.168 228.666H113.195ZM149.503 230.725C149.598 230.701 149.698 230.701 149.793 230.725C151.423 231.489 152.994 232.371 154.493 233.366C154.639 233.459 154.742 233.604 154.782 233.772C154.821 233.94 154.793 234.116 154.704 234.264C154.607 234.411 154.457 234.515 154.285 234.555C154.113 234.594 153.932 234.565 153.78 234.475C152.328 233.539 150.811 232.709 149.238 231.993C149.082 231.918 148.961 231.785 148.901 231.622C148.842 231.459 148.849 231.279 148.922 231.122C148.987 231.002 149.089 230.907 149.212 230.849C149.336 230.792 149.475 230.777 149.608 230.805L149.503 230.725ZM102.976 231.28C103.115 231.281 103.25 231.329 103.36 231.415C103.47 231.501 103.548 231.62 103.583 231.755C103.633 231.92 103.617 232.098 103.538 232.25C103.459 232.403 103.324 232.519 103.161 232.574C101.497 233.076 99.8334 233.63 98.1434 234.211C97.9788 234.261 97.8011 234.245 97.6482 234.166C97.4953 234.087 97.3793 233.952 97.3249 233.789C97.2917 233.709 97.2758 233.624 97.2782 233.538C97.2806 233.452 97.3012 233.367 97.3386 233.29C97.3761 233.213 97.4295 233.144 97.4954 233.089C97.5613 233.034 97.6382 232.993 97.7209 232.97C99.4109 232.363 101.101 231.808 102.764 231.306L102.976 231.28ZM92.9943 234.739C93.1261 234.741 93.2545 234.782 93.3627 234.857C93.471 234.933 93.5542 235.039 93.6016 235.162C93.6636 235.327 93.6597 235.509 93.5909 235.671C93.5221 235.833 93.3936 235.963 93.2319 236.033C91.5948 236.667 89.984 237.327 88.3468 238.013C88.2671 238.048 88.1813 238.067 88.0943 238.069C88.0073 238.071 87.9207 238.055 87.8397 238.023C87.7587 237.991 87.6849 237.944 87.6224 237.883C87.5599 237.822 87.5099 237.75 87.4755 237.67C87.4118 237.508 87.4118 237.329 87.4755 237.167C87.5392 237.005 87.6619 236.874 87.8188 236.799L92.7302 234.792L92.9943 234.739ZM84.4916 236.086C84.5959 236.062 84.7042 236.062 84.8085 236.086C84.9598 236.179 85.0708 236.326 85.1197 236.497C85.1685 236.668 85.1517 236.851 85.0726 237.01C84.6501 237.723 84.254 238.462 83.8579 239.202C83.9302 239.359 83.9375 239.539 83.8782 239.702C83.8189 239.865 83.6978 239.999 83.5411 240.073H83.3562L82.6432 241.525C82.5638 241.678 82.4304 241.795 82.2691 241.853C82.1078 241.912 81.9304 241.908 81.7718 241.842C81.6151 241.768 81.494 241.635 81.4347 241.472C81.3754 241.309 81.3827 241.129 81.455 240.971L78.8144 242.265C78.6599 242.339 78.4825 242.35 78.3199 242.296C78.1572 242.242 78.0221 242.126 77.943 241.974C77.8675 241.816 77.8555 241.635 77.9095 241.468C77.9636 241.301 78.0795 241.161 78.2335 241.077C79.633 240.39 81.0325 239.703 82.4055 239.07C82.9073 238.119 83.409 237.168 83.9371 236.244C84.0314 236.176 84.1415 236.133 84.257 236.119C84.3724 236.106 84.4895 236.121 84.5973 236.165L84.4916 236.086ZM158.428 236.429C158.591 236.429 158.75 236.485 158.877 236.588C160.21 237.78 161.454 239.069 162.6 240.443C162.721 240.566 162.788 240.732 162.788 240.905C162.788 241.078 162.721 241.244 162.6 241.367C162.54 241.43 162.469 241.48 162.389 241.515C162.31 241.549 162.224 241.567 162.138 241.567C162.051 241.567 161.965 241.549 161.886 241.515C161.806 241.48 161.735 241.43 161.676 241.367C160.565 240.036 159.356 238.792 158.058 237.644C157.937 237.52 157.869 237.354 157.869 237.182C157.869 237.009 157.937 236.843 158.058 236.72C158.16 236.603 158.301 236.528 158.454 236.508L158.428 236.429ZM73.9293 243.638C74.047 243.643 74.1616 243.677 74.263 243.736C74.3643 243.796 74.4493 243.88 74.5103 243.981C74.5511 244.059 74.576 244.144 74.5835 244.232C74.591 244.319 74.5808 244.407 74.5538 244.491C74.5267 244.575 74.4832 244.652 74.4259 244.719C74.3685 244.785 74.2985 244.84 74.2198 244.879C72.6883 245.698 71.1567 246.569 69.6252 247.52C69.4711 247.607 69.2886 247.63 69.1178 247.583C68.9469 247.536 68.8017 247.423 68.7142 247.269C68.6266 247.115 68.6039 246.932 68.6509 246.761C68.698 246.59 68.811 246.445 68.965 246.358C70.4966 245.486 72.0545 244.641 73.6125 243.717C73.7164 243.69 73.8254 243.69 73.9293 243.717V243.638ZM165.188 244.509C165.297 244.508 165.405 244.534 165.501 244.585C165.598 244.635 165.681 244.709 165.742 244.8C166.429 245.935 167.089 247.123 167.696 248.338L168.277 249.526C168.349 249.691 168.353 249.877 168.289 250.045C168.225 250.213 168.097 250.349 167.934 250.424C167.772 250.488 167.592 250.488 167.43 250.424C167.269 250.36 167.137 250.238 167.062 250.081L166.508 248.919C165.927 247.731 165.293 246.595 164.633 245.513C164.543 245.361 164.514 245.18 164.554 245.008C164.593 244.836 164.697 244.686 164.844 244.588C164.957 244.564 165.074 244.564 165.188 244.588V244.509ZM80.0818 245.618C80.1592 245.594 80.2422 245.594 80.3196 245.618C80.4841 245.678 80.6182 245.8 80.6925 245.959C80.7668 246.117 80.7751 246.299 80.7156 246.463L80.4516 247.15C79.9234 248.576 79.4481 250.002 79.0256 251.401C79.0047 251.486 78.9662 251.566 78.9127 251.636C78.8593 251.705 78.7919 251.763 78.715 251.805C78.638 251.848 78.5532 251.873 78.4657 251.881C78.3783 251.889 78.2902 251.878 78.207 251.85C78.1238 251.826 78.0462 251.785 77.9786 251.731C77.911 251.677 77.8548 251.61 77.8131 251.534C77.7714 251.458 77.7451 251.374 77.7356 251.288C77.7262 251.202 77.7339 251.115 77.7582 251.031C78.1807 249.606 78.656 248.153 79.2105 246.675L79.4746 245.988C79.5404 245.89 79.6315 245.811 79.7384 245.759C79.8452 245.708 79.9639 245.687 80.0818 245.698V245.618ZM64.7401 248.893C64.8813 248.896 65.0179 248.944 65.1296 249.031C65.2413 249.117 65.3223 249.237 65.3608 249.373C65.3992 249.509 65.393 249.654 65.343 249.786C65.2931 249.918 65.2021 250.031 65.0834 250.107C63.5783 251.005 62.0995 251.956 60.6208 252.906C60.5488 252.954 60.4677 252.986 60.3827 253.001C60.2977 253.017 60.2104 253.014 60.1264 252.994C60.0423 252.975 59.9632 252.938 59.8938 252.886C59.8244 252.835 59.7663 252.77 59.723 252.695C59.6737 252.622 59.6393 252.541 59.6218 252.455C59.6044 252.369 59.6042 252.28 59.6214 252.194C59.6386 252.108 59.6729 252.026 59.7221 251.954C59.7713 251.881 59.8344 251.819 59.9079 251.771C61.3866 250.82 62.8918 249.896 64.3969 248.972C64.51 248.948 64.627 248.948 64.7401 248.972V248.893ZM169.571 254.121C169.706 254.125 169.837 254.17 169.945 254.25C170.054 254.33 170.135 254.442 170.178 254.57C170.774 256.296 171.25 258.06 171.604 259.851C171.623 259.938 171.625 260.028 171.608 260.115C171.592 260.202 171.558 260.286 171.509 260.36C171.459 260.434 171.396 260.497 171.321 260.546C171.247 260.594 171.164 260.627 171.076 260.643C170.905 260.674 170.728 260.636 170.584 260.537C170.441 260.438 170.342 260.286 170.31 260.115C169.957 258.416 169.498 256.74 168.937 255.098C168.887 254.933 168.903 254.756 168.982 254.603C169.061 254.45 169.196 254.334 169.36 254.279L169.571 254.121ZM55.7622 254.675C55.871 254.676 55.9781 254.703 56.0745 254.754C56.1709 254.804 56.2539 254.877 56.3167 254.966C56.3661 255.038 56.4005 255.12 56.418 255.206C56.4354 255.292 56.4355 255.381 56.4183 255.467C56.4011 255.553 56.3669 255.635 56.3177 255.707C56.2685 255.78 56.2054 255.842 56.1319 255.89C54.6796 256.867 53.2537 257.871 51.8277 258.9C51.7567 258.952 51.676 258.99 51.5904 259.011C51.5049 259.032 51.416 259.035 51.3289 259.022C51.2419 259.008 51.1584 258.978 51.0831 258.932C51.0079 258.886 50.9423 258.826 50.8903 258.755C50.8383 258.684 50.8008 258.603 50.78 258.518C50.7591 258.432 50.7553 258.343 50.7688 258.256C50.7823 258.169 50.8128 258.086 50.8586 258.011C50.9043 257.935 50.9644 257.87 51.0355 257.818L55.3925 254.781C55.5225 254.688 55.6837 254.65 55.8414 254.675H55.7622ZM77.1508 255.811C77.3172 255.849 77.4625 255.95 77.556 256.093C77.6496 256.235 77.6842 256.409 77.6526 256.577C77.3117 258.322 77.0737 260.085 76.9396 261.858C76.9141 262.028 76.8279 262.183 76.6968 262.295C76.5658 262.407 76.3988 262.467 76.2266 262.465C76.1398 262.458 76.0553 262.435 75.9777 262.395C75.9001 262.356 75.8311 262.301 75.7746 262.235C75.7182 262.169 75.6754 262.092 75.6488 262.009C75.6221 261.926 75.6121 261.839 75.6193 261.752C75.7674 259.979 76.0143 258.216 76.3587 256.471C76.3652 256.375 76.3911 256.281 76.4349 256.195C76.4787 256.109 76.5395 256.033 76.6136 255.972C76.6876 255.91 76.7734 255.864 76.8657 255.836C76.9581 255.809 77.0551 255.8 77.1508 255.811ZM47.1803 260.828C47.2828 260.828 47.3839 260.852 47.4756 260.898C47.5672 260.944 47.647 261.01 47.7085 261.092C47.8135 261.232 47.8586 261.408 47.8338 261.581C47.8091 261.755 47.7164 261.911 47.5764 262.016L43.4043 265.238C43.3378 265.3 43.259 265.349 43.173 265.379C43.0869 265.41 42.9953 265.423 42.9041 265.416C42.8129 265.41 42.7241 265.384 42.6433 265.342C42.5624 265.299 42.4913 265.24 42.4344 265.168C42.3775 265.097 42.3361 265.014 42.3128 264.926C42.2895 264.838 42.2849 264.745 42.2991 264.655C42.3133 264.565 42.3461 264.478 42.3955 264.401C42.4448 264.324 42.5096 264.259 42.5857 264.208L46.7842 260.96C46.9197 260.856 47.09 260.809 47.2595 260.828H47.1803ZM171.683 264.34C171.854 264.34 172.018 264.406 172.141 264.524C172.264 264.642 172.337 264.803 172.343 264.974C172.343 265.475 172.343 265.951 172.343 266.426C172.337 267.742 172.249 269.056 172.079 270.36C172.07 270.447 172.043 270.53 172 270.605C171.957 270.68 171.899 270.746 171.83 270.798C171.761 270.85 171.681 270.887 171.597 270.907C171.513 270.927 171.425 270.93 171.34 270.915C171.253 270.905 171.169 270.878 171.093 270.836C171.016 270.793 170.949 270.736 170.895 270.667C170.841 270.598 170.801 270.519 170.778 270.435C170.754 270.351 170.748 270.262 170.759 270.176C170.941 268.934 171.029 267.681 171.023 266.426C171.023 265.977 171.023 265.502 171.023 265.026C171.016 264.856 171.075 264.689 171.188 264.561C171.302 264.433 171.46 264.353 171.631 264.34H171.683ZM76.2795 266.215C76.4501 266.215 76.614 266.281 76.7371 266.399C76.8602 266.517 76.9328 266.678 76.9396 266.848C77.0054 268.57 77.2084 270.283 77.5469 271.971C77.5661 272.058 77.5676 272.148 77.5512 272.235C77.5348 272.323 77.5009 272.406 77.4516 272.48C77.4023 272.554 77.3385 272.617 77.2641 272.666C77.1898 272.715 77.1064 272.748 77.0188 272.763C76.8473 272.794 76.6706 272.756 76.5271 272.657C76.3837 272.558 76.2852 272.407 76.2531 272.235C75.9084 270.493 75.6966 268.728 75.6193 266.954C75.612 266.783 75.6711 266.616 75.7844 266.488C75.8977 266.36 76.0562 266.281 76.2266 266.268L76.2795 266.215ZM38.9945 267.324C39.1831 267.325 39.3635 267.401 39.4962 267.535C39.6189 267.663 39.6874 267.833 39.6874 268.01C39.6874 268.188 39.6189 268.358 39.4962 268.486C38.1495 269.621 36.8557 270.757 35.509 271.918C35.3856 272.039 35.2197 272.107 35.0469 272.107C34.8741 272.107 34.7082 272.039 34.5848 271.918C34.5179 271.861 34.4642 271.791 34.4274 271.711C34.3906 271.631 34.3716 271.544 34.3716 271.456C34.3716 271.368 34.3906 271.282 34.4274 271.202C34.4642 271.122 34.5179 271.051 34.5848 270.994C35.8787 269.832 37.2253 268.67 38.5984 267.509C38.7168 267.436 38.8573 267.408 38.9945 267.429V267.324ZM31.0728 274.348C31.1627 274.346 31.252 274.363 31.3342 274.4C31.4164 274.436 31.4895 274.491 31.5482 274.559C31.6691 274.682 31.7368 274.848 31.7368 275.021C31.7368 275.194 31.6691 275.36 31.5482 275.483C30.2543 276.698 28.9075 277.913 27.7721 279.154C27.7105 279.217 27.6367 279.268 27.5551 279.303C27.4734 279.338 27.3855 279.356 27.2968 279.356C27.2081 279.356 27.1203 279.338 27.0386 279.303C26.9569 279.268 26.8831 279.217 26.8215 279.154C26.7065 279.027 26.6427 278.862 26.6427 278.691C26.6427 278.521 26.7065 278.356 26.8215 278.229C28.0626 276.988 29.3301 275.747 30.6239 274.533C30.7658 274.445 30.9365 274.416 31.0992 274.453L31.0728 274.348ZM170.284 274.902H170.495C170.66 274.962 170.796 275.083 170.875 275.241C170.953 275.398 170.969 275.579 170.918 275.747C170.336 277.451 169.594 279.096 168.7 280.659C168.611 280.808 168.469 280.918 168.303 280.967C168.136 281.016 167.957 281 167.802 280.923C167.65 280.829 167.539 280.683 167.491 280.512C167.442 280.341 167.459 280.158 167.538 279.999C168.407 278.521 169.115 276.954 169.65 275.325C169.699 275.197 169.786 275.089 169.9 275.013C170.013 274.937 170.148 274.899 170.284 274.902ZM78.3655 276.671C78.4973 276.673 78.6257 276.714 78.7339 276.79C78.8421 276.865 78.9254 276.971 78.9728 277.094C79.5906 278.699 80.3506 280.245 81.2437 281.715C81.3303 281.866 81.3539 282.045 81.3094 282.213C81.265 282.381 81.1559 282.525 81.0061 282.613C80.934 282.66 80.853 282.693 80.7679 282.708C80.6829 282.723 80.5957 282.721 80.5116 282.701C80.4275 282.681 80.3484 282.644 80.279 282.593C80.2097 282.541 80.1516 282.476 80.1083 282.401C79.183 280.864 78.3966 279.247 77.7582 277.569C77.724 277.488 77.7064 277.401 77.7065 277.312C77.7067 277.224 77.7245 277.137 77.7589 277.055C77.7934 276.974 77.8438 276.901 77.9072 276.839C77.9706 276.778 78.0456 276.73 78.1278 276.698L78.3655 276.671ZM23.6264 281.953C23.7926 281.962 23.9507 282.027 24.0753 282.137C24.1384 282.197 24.1888 282.268 24.2232 282.348C24.2576 282.427 24.2754 282.513 24.2754 282.6C24.2754 282.686 24.2576 282.772 24.2232 282.851C24.1888 282.931 24.1384 283.002 24.0753 283.062C22.887 284.382 21.6988 285.702 20.5634 286.996C20.44 287.117 20.274 287.185 20.1012 287.185C19.9284 287.185 19.7625 287.117 19.6391 286.996C19.576 286.937 19.5257 286.865 19.4913 286.786C19.4569 286.706 19.4391 286.621 19.4391 286.534C19.4391 286.447 19.4569 286.362 19.4913 286.282C19.5257 286.203 19.576 286.131 19.6391 286.072C20.801 284.752 21.9893 283.431 23.2039 282.111C23.318 282.001 23.468 281.935 23.6264 281.926V281.953ZM165.108 284.012C165.26 284.004 165.41 284.051 165.531 284.144C165.595 284.206 165.646 284.28 165.68 284.361C165.715 284.443 165.733 284.531 165.733 284.62C165.733 284.708 165.715 284.796 165.68 284.878C165.646 284.959 165.595 285.033 165.531 285.095C164.377 286.461 163.123 287.741 161.781 288.924C161.72 288.995 161.644 289.052 161.559 289.091C161.473 289.131 161.381 289.152 161.287 289.152C161.193 289.153 161.1 289.134 161.014 289.096C160.928 289.058 160.852 289.002 160.789 288.932C160.727 288.861 160.68 288.779 160.652 288.689C160.624 288.6 160.615 288.505 160.626 288.412C160.638 288.319 160.669 288.229 160.718 288.149C160.767 288.068 160.832 288 160.91 287.947C162.195 286.795 163.403 285.56 164.527 284.25C164.594 284.16 164.682 284.089 164.784 284.043C164.885 283.997 164.997 283.977 165.108 283.986V284.012ZM83.7787 285.649C83.8728 285.645 83.9666 285.662 84.0533 285.698C84.1401 285.735 84.2177 285.79 84.2804 285.861C85.3964 287.179 86.6244 288.398 87.9508 289.505C88.0282 289.556 88.094 289.623 88.1436 289.702C88.1933 289.781 88.2257 289.869 88.2389 289.961C88.252 290.053 88.2457 290.147 88.2201 290.236C88.1945 290.326 88.1503 290.409 88.0903 290.48C88.0304 290.551 87.9562 290.608 87.8725 290.649C87.7887 290.689 87.6974 290.712 87.6044 290.714C87.5115 290.717 87.419 290.7 87.3331 290.664C87.2472 290.629 87.1697 290.576 87.1058 290.508C85.7333 289.351 84.4532 288.088 83.277 286.732C83.156 286.609 83.0883 286.443 83.0883 286.27C83.0883 286.097 83.156 285.931 83.277 285.808C83.4139 285.683 83.5938 285.617 83.7787 285.623V285.649ZM16.7081 289.954C16.8586 289.956 17.0051 290.002 17.1306 290.086C17.2532 290.213 17.3217 290.384 17.3217 290.561C17.3217 290.738 17.2532 290.908 17.1306 291.036C16.0215 292.409 14.9389 293.835 13.9355 295.208C13.8121 295.329 13.6462 295.397 13.4734 295.397C13.3006 295.397 13.1347 295.329 13.0113 295.208C12.9428 295.159 12.8849 295.096 12.8411 295.024C12.7972 294.951 12.7683 294.871 12.756 294.787C12.7437 294.704 12.7483 294.618 12.7695 294.536C12.7906 294.454 12.828 294.378 12.8793 294.31C13.8827 292.911 14.9653 291.485 16.1008 290.059C16.1834 289.989 16.282 289.94 16.3879 289.917C16.4938 289.894 16.6038 289.898 16.7081 289.927V289.954ZM157.239 290.983C157.348 290.984 157.455 291.011 157.552 291.062C157.648 291.112 157.731 291.185 157.794 291.274C157.881 291.424 157.91 291.601 157.876 291.771C157.842 291.941 157.747 292.093 157.609 292.198C156.121 293.167 154.578 294.048 152.988 294.839C152.912 294.88 152.828 294.907 152.742 294.916C152.655 294.925 152.568 294.918 152.484 294.893C152.401 294.869 152.323 294.828 152.256 294.773C152.188 294.718 152.132 294.651 152.09 294.575C152.015 294.416 152.003 294.235 152.057 294.068C152.111 293.901 152.227 293.761 152.381 293.677C153.923 292.877 155.421 291.995 156.87 291.036C156.981 290.971 157.111 290.943 157.239 290.957V290.983ZM91.7796 292.462C91.8909 292.424 92.0117 292.424 92.1229 292.462C93.5897 293.389 95.1156 294.218 96.6911 294.944C96.8497 295.024 96.9713 295.162 97.0304 295.329C97.0895 295.497 97.0814 295.68 97.0079 295.842C96.9236 295.996 96.7854 296.114 96.6197 296.172C96.454 296.231 96.2725 296.226 96.1101 296.159C94.5026 295.37 92.942 294.488 91.4364 293.518C91.3607 293.472 91.2951 293.412 91.2433 293.34C91.1916 293.268 91.1548 293.187 91.1351 293.101C91.1153 293.015 91.1132 292.925 91.1287 292.838C91.1441 292.751 91.1769 292.668 91.2251 292.594C91.3005 292.529 91.3892 292.481 91.4849 292.454C91.5807 292.426 91.6812 292.42 91.7796 292.436V292.462ZM147.865 295.842C148.001 295.842 148.133 295.882 148.246 295.957C148.359 296.032 148.447 296.139 148.499 296.264C148.533 296.344 148.55 296.43 148.55 296.516C148.549 296.602 148.531 296.688 148.497 296.767C148.462 296.846 148.412 296.917 148.349 296.976C148.285 297.035 148.211 297.08 148.129 297.109C146.492 297.77 144.802 298.351 143.086 298.852C143.005 298.885 142.918 298.9 142.83 298.896C142.743 298.892 142.657 298.869 142.58 298.829C142.502 298.789 142.434 298.732 142.38 298.663C142.326 298.595 142.288 298.515 142.267 298.43C142.217 298.265 142.233 298.087 142.312 297.935C142.391 297.782 142.527 297.666 142.69 297.611C144.38 297.109 146.043 296.529 147.628 295.895L147.865 295.842ZM101.286 297.004H101.497C103.142 297.593 104.817 298.095 106.514 298.509C106.686 298.551 106.833 298.659 106.925 298.81C107.017 298.962 107.045 299.143 107.003 299.314C106.96 299.486 106.852 299.634 106.701 299.725C106.55 299.817 106.369 299.845 106.197 299.803C104.428 299.354 102.712 298.852 101.074 298.271C100.909 298.211 100.773 298.09 100.695 297.933C100.616 297.776 100.601 297.595 100.652 297.426C100.697 297.294 100.782 297.18 100.896 297.099C101.01 297.018 101.146 296.976 101.286 296.977V297.004ZM10.5291 298.509C10.6424 298.486 10.7591 298.486 10.8724 298.509C11.0197 298.606 11.1238 298.757 11.1632 298.929C11.2025 299.101 11.1741 299.282 11.0837 299.433C10.1067 300.938 9.1825 302.443 8.44315 303.922C8.35495 304.072 8.21115 304.181 8.04303 304.226C7.87494 304.27 7.69614 304.246 7.54535 304.16C7.4689 304.118 7.4014 304.062 7.34671 303.995C7.29205 303.927 7.25125 303.849 7.22672 303.766C7.20218 303.682 7.1944 303.595 7.20377 303.508C7.2131 303.422 7.23947 303.338 7.28128 303.262C8.12625 301.757 9.05045 300.225 10.0539 298.72C10.1111 298.649 10.1833 298.59 10.2654 298.549C10.3474 298.508 10.4374 298.485 10.5291 298.483V298.509ZM137.884 298.852C138.034 298.855 138.178 298.909 138.294 299.005C138.409 299.101 138.488 299.233 138.518 299.38C138.537 299.465 138.54 299.553 138.525 299.639C138.51 299.725 138.479 299.807 138.432 299.881C138.385 299.955 138.325 300.018 138.253 300.068C138.182 300.118 138.101 300.154 138.016 300.173C136.3 300.542 134.53 300.833 132.735 301.097C132.648 301.108 132.56 301.101 132.476 301.078C132.391 301.055 132.313 301.015 132.244 300.961C132.175 300.907 132.117 300.84 132.075 300.763C132.032 300.687 132.005 300.603 131.996 300.516C131.973 300.345 132.018 300.171 132.122 300.033C132.226 299.895 132.379 299.803 132.55 299.776C134.293 299.539 136.036 299.248 137.831 298.879L137.884 298.852ZM111.61 299.565C113.327 299.829 115.069 300.067 116.891 300.199C116.978 300.206 117.063 300.229 117.14 300.269C117.218 300.308 117.287 300.363 117.343 300.429C117.4 300.495 117.443 300.572 117.469 300.655C117.496 300.738 117.506 300.825 117.499 300.912C117.479 301.085 117.394 301.243 117.262 301.356C117.13 301.469 116.96 301.527 116.786 301.519C114.99 301.361 113.221 301.15 111.505 300.859C111.339 300.827 111.191 300.732 111.093 300.595C110.995 300.457 110.953 300.287 110.977 300.12C110.991 299.986 111.047 299.86 111.137 299.761C111.227 299.661 111.347 299.592 111.478 299.565H111.61ZM127.454 300.305C127.62 300.304 127.78 300.366 127.903 300.479C128.025 300.592 128.101 300.746 128.114 300.912C128.121 301.09 128.059 301.263 127.941 301.396C127.823 301.529 127.658 301.611 127.48 301.625C125.949 301.625 124.364 301.625 122.806 301.625H122.041C121.866 301.625 121.698 301.555 121.574 301.432C121.45 301.308 121.38 301.14 121.38 300.965C121.38 300.79 121.45 300.622 121.574 300.498C121.698 300.374 121.866 300.305 122.041 300.305H122.674C124.206 300.305 125.764 300.305 127.269 300.305H127.454ZM5.48563 307.698H5.77612C5.93478 307.778 6.0564 307.916 6.11548 308.083C6.17456 308.251 6.16647 308.434 6.09299 308.596C5.33926 310.161 4.66934 311.765 4.08612 313.402C4.02112 313.562 3.89798 313.692 3.7413 313.766C3.58463 313.839 3.40604 313.851 3.24121 313.798C3.07666 313.738 2.94254 313.616 2.86826 313.457C2.79401 313.299 2.78561 313.118 2.84506 312.953C3.42599 311.342 4.11258 309.679 4.87836 308.015C4.93146 307.932 5.00107 307.861 5.08286 307.807C5.16467 307.752 5.25684 307.715 5.35364 307.698H5.48563ZM1.92093 317.6H2.07935C2.16394 317.619 2.24384 317.654 2.31418 317.705C2.38452 317.755 2.44379 317.819 2.48831 317.894C2.53284 317.968 2.56177 318.05 2.57315 318.136C2.58456 318.222 2.57825 318.309 2.55463 318.393C2.16608 320.072 1.88382 321.774 1.70963 323.489C1.70963 323.664 1.64011 323.832 1.5163 323.956C1.39252 324.079 1.22458 324.149 1.04947 324.149C0.87439 324.149 0.706543 324.079 0.582733 323.956C0.458954 323.832 0.389343 323.664 0.389343 323.489C0.555725 321.708 0.855835 319.943 1.28714 318.208C1.29831 318.067 1.35251 317.934 1.44226 317.825C1.53201 317.716 1.65298 317.638 1.78885 317.6H1.92093ZM0.996704 328.163C1.16299 328.162 1.32339 328.224 1.4458 328.337C1.56818 328.45 1.64355 328.604 1.65683 328.77C1.80136 330.481 2.12888 332.172 2.63385 333.813C2.68286 333.982 2.66315 334.162 2.57898 334.316C2.49478 334.469 2.353 334.583 2.18491 334.632C2.10355 334.661 2.01727 334.672 1.93124 334.666C1.84521 334.66 1.76129 334.637 1.68463 334.597C1.608 334.558 1.54025 334.503 1.48553 334.436C1.43079 334.37 1.39023 334.292 1.36633 334.21C0.83551 332.491 0.490295 330.721 0.336548 328.928C0.328735 328.755 0.387024 328.585 0.499725 328.452C0.612457 328.32 0.77124 328.235 0.943909 328.215L0.996704 328.163Z" fill="white"/>
</svg>
