<svg width="39" height="39" viewBox="0 0 39 39" fill="none" xmlns="http://www.w3.org/2000/svg">
<path fill-rule="evenodd" clip-rule="evenodd" d="M31.5001 15.5004C32.0104 15.5005 32.5029 15.6878 32.8842 16.0269C33.2655 16.366 33.5092 16.8332 33.5689 17.34L33.5834 17.5837V26.2712C34.9587 26.7565 36.1211 27.7072 36.8695 28.9589C37.6179 30.2107 37.9051 31.6846 37.6815 33.1258C37.4578 34.5669 36.7375 35.8845 35.645 36.8506C34.5525 37.8167 33.1566 38.3705 31.6989 38.4162C30.2413 38.4618 28.8135 37.9964 27.6627 37.1005C26.5119 36.2047 25.7106 34.9347 25.3972 33.5104C25.0839 32.086 25.2783 30.597 25.9469 29.3009C26.6155 28.0048 27.7162 26.9832 29.0584 26.4129L29.4168 26.2712V17.5837C29.4168 17.0312 29.6363 16.5013 30.027 16.1106C30.4177 15.7199 30.9476 15.5004 31.5001 15.5004ZM6.5001 0.917076C7.94179 0.916619 9.3393 1.41458 10.4558 2.32659C11.5724 3.2386 12.3393 4.50857 12.6267 5.92132C12.914 7.33408 12.7041 8.80273 12.0326 10.0784C11.361 11.3542 10.2691 12.3585 8.94177 12.9212L8.58344 13.0629V26.2754C9.95852 26.7613 11.1205 27.7125 11.8683 28.9646C12.6161 30.2167 12.9026 31.6908 12.6783 33.1318C12.4541 34.5729 11.7331 35.8902 10.6401 36.8558C9.5472 37.8214 8.15109 38.3745 6.69339 38.4195C5.2357 38.4644 3.80815 37.9984 2.65778 37.102C1.5074 36.2056 0.706591 34.9352 0.393922 33.5108C0.0812527 32.0863 0.2764 30.5973 0.945593 29.3015C1.61479 28.0058 2.71592 26.9847 4.05844 26.415L4.41677 26.2712V13.0608C3.02835 12.5678 1.85865 11.6003 1.11401 10.329C0.369375 9.05763 0.0976509 7.56416 0.346775 6.11201C0.595898 4.65987 1.34986 3.34237 2.47566 2.39191C3.60146 1.44146 5.02675 0.919133 6.5001 0.917076ZM31.5001 30.0837C30.9476 30.0837 30.4177 30.3032 30.027 30.6939C29.6363 31.0846 29.4168 31.6145 29.4168 32.1671C29.4168 32.7196 29.6363 33.2495 30.027 33.6402C30.4177 34.0309 30.9476 34.2504 31.5001 34.2504C32.0526 34.2504 32.5825 34.0309 32.9732 33.6402C33.3639 33.2495 33.5834 32.7196 33.5834 32.1671C33.5834 31.6145 33.3639 31.0846 32.9732 30.6939C32.5825 30.3032 32.0526 30.0837 31.5001 30.0837ZM6.5001 30.0837C5.94757 30.0837 5.41767 30.3032 5.02697 30.6939C4.63626 31.0846 4.41677 31.6145 4.41677 32.1671C4.41677 32.7196 4.63626 33.2495 5.02697 33.6402C5.41767 34.0309 5.94757 34.2504 6.5001 34.2504C7.05264 34.2504 7.58254 34.0309 7.97324 33.6402C8.36394 33.2495 8.58344 32.7196 8.58344 32.1671C8.58344 31.6145 8.36394 31.0846 7.97324 30.6939C7.58254 30.3032 7.05264 30.0837 6.5001 30.0837ZM25.6084 1.27541C25.9669 0.9164 26.4441 0.700535 26.9504 0.668316C27.4567 0.636096 27.9574 0.789736 28.3584 1.10041L28.5543 1.27541L31.5001 4.22124L34.4459 1.27541C34.82 0.897796 35.3242 0.677425 35.8554 0.659402C36.3866 0.64138 36.9046 0.827069 37.3034 1.17846C37.7022 1.52986 37.9516 2.02038 38.0005 2.54963C38.0495 3.07887 37.8943 3.60682 37.5668 4.02541L37.3918 4.22124L34.4459 7.16708L37.3918 10.1129C37.7694 10.487 37.9898 10.9912 38.0078 11.5224C38.0258 12.0536 37.8401 12.5716 37.4887 12.9704C37.1373 13.3691 36.6468 13.6185 36.1176 13.6675C35.5883 13.7165 35.0604 13.5613 34.6418 13.2337L34.4459 13.0587L31.5001 10.1129L28.5543 13.0587C28.1802 13.4364 27.676 13.6567 27.1448 13.6748C26.6136 13.6928 26.0956 13.5071 25.6968 13.1557C25.298 12.8043 25.0486 12.3138 24.9997 11.7845C24.9507 11.2553 25.1059 10.7273 25.4334 10.3087L25.6084 10.1129L28.5543 7.16708L25.6084 4.22124C25.2179 3.83056 24.9985 3.30075 24.9985 2.74833C24.9985 2.1959 25.2179 1.66609 25.6084 1.27541ZM6.5001 5.08374C5.94757 5.08374 5.41767 5.30324 5.02697 5.69394C4.63626 6.08464 4.41677 6.61454 4.41677 7.16708C4.41677 7.71961 4.63626 8.24951 5.02697 8.64021C5.41767 9.03092 5.94757 9.25041 6.5001 9.25041C7.05264 9.25041 7.58254 9.03092 7.97324 8.64021C8.36394 8.24951 8.58344 7.71961 8.58344 7.16708C8.58344 6.61454 8.36394 6.08464 7.97324 5.69394C7.58254 5.30324 7.05264 5.08374 6.5001 5.08374Z" fill="white"/>
</svg>
