<svg width="35" height="44" viewBox="0 0 35 44" fill="none" xmlns="http://www.w3.org/2000/svg">
<path d="M12.75 43.8751V40.7501H22.1282V43.8751H12.75ZM34.625 17.3126C34.627 19.8477 34.0659 22.3517 32.9824 24.6436C31.8988 26.9356 30.3198 28.9583 28.3594 30.5657C26.4875 32.1095 25.25 34.2938 25.25 36.722V37.6251H9.62504V36.9251C9.62504 34.5813 8.67817 32.2688 6.83129 30.822C4.33724 28.8711 2.43137 26.2685 1.32448 23.3019C0.217584 20.3353 -0.0471975 17.1203 0.55942 14.0126C1.79692 7.35007 7.09692 1.89695 13.7313 0.512575C16.2437 -0.0386661 18.8477 -0.0196204 21.3517 0.56831C23.8558 1.15624 26.1962 2.2981 28.2007 3.90987C30.2052 5.52164 31.8229 7.56233 32.9347 9.88178C34.0465 12.2012 34.6241 14.7404 34.625 17.3126ZM8.06254 18.8751C8.06254 12.4157 11.7688 7.93758 17.4375 7.93758V4.81258C9.89692 4.81258 4.93755 10.8063 4.93755 18.8751H8.06254Z" fill="#FDFEFF"/>
</svg>
