<svg width="45" height="45" viewBox="0 0 45 45" fill="none" xmlns="http://www.w3.org/2000/svg">
<g id="ic:baseline-question-mark">
<path id="Vector" d="M20.7562 24.0938C22.2 21.4875 24.975 19.95 26.5875 17.6437C28.2937 15.225 27.3375 10.7063 22.5 10.7063C19.3312 10.7063 17.775 13.1063 17.1187 15.0938L12.2625 13.05C13.5937 9.05625 17.2125 5.625 22.4812 5.625C26.8875 5.625 29.9062 7.63125 31.4437 10.1437C32.7562 12.3 33.525 16.3313 31.5 19.3313C29.25 22.65 27.0937 23.6625 25.9312 25.8C25.4625 26.6625 25.275 27.225 25.275 30H19.8562C19.8375 28.5375 19.6125 26.1562 20.7562 24.0938ZM26.25 37.5C26.25 39.5625 24.5625 41.25 22.5 41.25C20.4375 41.25 18.75 39.5625 18.75 37.5C18.75 35.4375 20.4375 33.75 22.5 33.75C24.5625 33.75 26.25 35.4375 26.25 37.5Z" fill="white"/>
</g>
</svg>
 