<svg width="50" height="51" viewBox="0 0 50 51" fill="none" xmlns="http://www.w3.org/2000/svg">
<g id="ic:round-code">
<path id="Vector" d="M18.125 33.792L10 25.667L18.125 17.542C18.318 17.3514 18.4713 17.1243 18.5759 16.8739C18.6804 16.6236 18.7343 16.355 18.7343 16.0837C18.7343 15.8124 18.6804 15.5438 18.5759 15.2935C18.4713 15.0431 18.318 14.816 18.125 14.6254C17.9344 14.4324 17.7073 14.2791 17.457 14.1745C17.2066 14.07 16.938 14.0161 16.6667 14.0161C16.3954 14.0161 16.1268 14.07 15.8765 14.1745C15.6261 14.2791 15.3991 14.4324 15.2084 14.6254L5.64588 24.1879C5.45275 24.3806 5.29952 24.6095 5.19498 24.8616C5.09043 25.1136 5.03662 25.3838 5.03662 25.6566C5.03662 25.9295 5.09043 26.1996 5.19498 26.4517C5.29952 26.7037 5.45275 26.9326 5.64588 27.1254L15.2084 36.7087C16.0209 37.5212 17.3125 37.5212 18.125 36.7087C18.318 36.518 18.4713 36.2909 18.5759 36.0406C18.6804 35.7903 18.7343 35.5217 18.7343 35.2504C18.7343 34.9791 18.6804 34.7105 18.5759 34.4601C18.4713 34.2098 18.318 33.9827 18.125 33.792ZM31.875 33.792L40 25.667L31.875 17.542C31.682 17.3514 31.5288 17.1243 31.4242 16.8739C31.3197 16.6236 31.2658 16.355 31.2658 16.0837C31.2658 15.8124 31.3197 15.5438 31.4242 15.2935C31.5288 15.0431 31.682 14.816 31.875 14.6254C32.0657 14.4324 32.2928 14.2791 32.5431 14.1745C32.7935 14.07 33.0621 14.0161 33.3334 14.0161C33.6047 14.0161 33.8733 14.07 34.1236 14.1745C34.374 14.2791 34.601 14.4324 34.7917 14.6254L44.3542 24.1879C45.1667 25.0004 45.1667 26.3129 44.3542 27.1254L34.7917 36.7087C34.601 36.9017 34.374 37.0549 34.1236 37.1595C33.8733 37.2641 33.6047 37.3179 33.3334 37.3179C33.0621 37.3179 32.7935 37.2641 32.5431 37.1595C32.2928 37.0549 32.0657 36.9017 31.875 36.7087C31.682 36.518 31.5288 36.2909 31.4242 36.0406C31.3197 35.7903 31.2658 35.5217 31.2658 35.2504C31.2658 34.9791 31.3197 34.7105 31.4242 34.4601C31.5288 34.2098 31.682 33.9827 31.875 33.792Z" fill="white"/>
</g>
</svg>
