<svg width="32" height="32" viewBox="0 0 32 32" fill="none" xmlns="http://www.w3.org/2000/svg">
<path d="M12.0001 25.3336C5.33341 27.3336 5.33341 22.0002 2.66675 21.3336M21.3334 29.3336V24.1736C21.3834 23.5378 21.2975 22.8986 21.0814 22.2986C20.8653 21.6986 20.524 21.1515 20.0801 20.6936C24.2667 20.2269 28.6667 18.6402 28.6667 11.3602C28.6664 9.49868 27.9503 7.70851 26.6667 6.36024C27.2746 4.73158 27.2316 2.93137 26.5467 1.33358C26.5467 1.33358 24.9734 0.866909 21.3334 3.30691C18.2774 2.47867 15.0561 2.47867 12.0001 3.30691C8.36008 0.866909 6.78675 1.33358 6.78675 1.33358C6.10192 2.93137 6.05894 4.73158 6.66675 6.36024C5.37358 7.71851 4.65678 9.52486 4.66675 11.4002C4.66675 18.6269 9.06675 20.2136 13.2534 20.7336C12.8147 21.1869 12.4764 21.7274 12.2605 22.3201C12.0446 22.9128 11.9558 23.5443 12.0001 24.1736V29.3336" stroke="#264FAD" stroke-width="1.66667" stroke-linecap="round" stroke-linejoin="round"/>
</svg>
