<svg width="39" height="39" viewBox="0 0 39 39" fill="none" xmlns="http://www.w3.org/2000/svg">
<path d="M7.59375 15.7969L11.25 17.3437C11.6875 16.4687 12.1406 15.625 12.6094 14.8125C13.0781 14 13.5938 13.1875 14.1562 12.375L11.5312 11.8594L7.59375 15.7969ZM14.25 19.6875L19.5938 24.9844C20.9063 24.4844 22.3125 23.7187 23.8125 22.6875C25.3125 21.6562 26.7188 20.4844 28.0312 19.1719C30.2188 16.9844 31.93 14.555 33.165 11.8837C34.3988 9.21123 34.9375 6.74998 34.7813 4.49998C32.5313 4.34373 30.0625 4.88248 27.375 6.11623C24.6875 7.35123 22.25 9.06248 20.0625 11.25C18.75 12.5625 17.5781 13.9687 16.5469 15.4687C15.5156 16.9687 14.75 18.375 14.25 19.6875ZM22.5938 16.6406C21.875 15.9219 21.5156 15.0387 21.5156 13.9912C21.5156 12.945 21.875 12.0625 22.5938 11.3437C23.3125 10.625 24.2031 10.2656 25.2656 10.2656C26.3281 10.2656 27.2188 10.625 27.9375 11.3437C28.6563 12.0625 29.0156 12.945 29.0156 13.9912C29.0156 15.0387 28.6563 15.9219 27.9375 16.6406C27.2188 17.3594 26.3281 17.7187 25.2656 17.7187C24.2031 17.7187 23.3125 17.3594 22.5938 16.6406ZM23.4844 31.6875L27.4219 27.75L26.9062 25.125C26.0938 25.6875 25.2812 26.195 24.4688 26.6475C23.6562 27.1012 22.8125 27.5469 21.9375 27.9844L23.4844 31.6875ZM38.1563 1.07811C38.75 4.85936 38.3831 8.53873 37.0556 12.1162C35.7269 15.695 33.4375 19.1094 30.1875 22.3594L31.125 27C31.25 27.625 31.2188 28.2344 31.0313 28.8281C30.8438 29.4219 30.5312 29.9375 30.0938 30.375L22.2188 38.25L18.2813 29.0156L10.2656 21L1.03125 17.0625L8.85938 9.18748C9.29688 8.74998 9.82063 8.43748 10.4306 8.24998C11.0394 8.06248 11.6562 8.03123 12.2812 8.15623L16.9219 9.09373C20.1719 5.84373 23.5781 3.54686 27.1406 2.20311C30.7031 0.85936 34.375 0.484359 38.1563 1.07811ZM4.35938 26.9531C5.45313 25.8594 6.78875 25.3044 8.36625 25.2881C9.945 25.2731 11.2812 25.8125 12.375 26.9062C13.4688 28 14.0075 29.3356 13.9913 30.9131C13.9763 32.4919 13.4219 33.8281 12.3281 34.9219C11.5469 35.7031 10.2425 36.375 8.415 36.9375C6.58625 37.5 4.0625 38 0.84375 38.4375C1.28125 35.2187 1.78125 32.695 2.34375 30.8662C2.90625 29.0387 3.57813 27.7344 4.35938 26.9531ZM7.03125 29.5781C6.71875 29.8906 6.40625 30.4612 6.09375 31.29C5.78125 32.1175 5.5625 32.9531 5.4375 33.7969C6.28125 33.6719 7.1175 33.4612 7.94625 33.165C8.77375 32.8675 9.34375 32.5625 9.65625 32.25C10.0312 31.875 10.2344 31.4219 10.2656 30.8906C10.2969 30.3594 10.125 29.9062 9.75 29.5312C9.375 29.1562 8.92188 28.9762 8.39062 28.9912C7.85937 29.0075 7.40625 29.2031 7.03125 29.5781Z" fill="white"/>
</svg>
