<svg width="50" height="51" viewBox="0 0 50 51" fill="none" xmlns="http://www.w3.org/2000/svg">
<path d="M15.4297 33.4795H18.3594C18.5742 33.4795 18.75 33.3037 18.75 33.0889V18.2451C18.75 18.0303 18.5742 17.8545 18.3594 17.8545H15.4297C15.2148 17.8545 15.0391 18.0303 15.0391 18.2451V33.0889C15.0391 33.3037 15.2148 33.4795 15.4297 33.4795ZM25 31.0381C26.0791 31.0381 26.9531 30.1641 26.9531 29.1338C26.9531 28.0059 26.0791 27.1318 25 27.1318C23.9209 27.1318 23.0469 28.0059 23.0469 29.1338C23.0469 30.1641 23.9209 31.0381 25 31.0381ZM25 24.2021C26.0791 24.2021 26.9531 23.3281 26.9531 22.2979C26.9531 21.1699 26.0791 20.2959 25 20.2959C23.9209 20.2959 23.0469 21.1699 23.0469 22.2979C23.0469 23.3281 23.9209 24.2021 25 24.2021Z" fill="white"/>
<path d="M42.9688 6.13574H7.03125C6.16699 6.13574 5.46875 6.83398 5.46875 7.69824V43.6357C5.46875 44.5 6.16699 45.1982 7.03125 45.1982H42.9688C43.833 45.1982 44.5312 44.5 44.5312 43.6357V7.69824C44.5312 6.83398 43.833 6.13574 42.9688 6.13574ZM41.0156 41.6826H8.98438V9.65137H41.0156V41.6826Z" fill="white"/>
<path d="M31.6406 33.4795H34.5703C34.7852 33.4795 34.9609 33.3037 34.9609 33.0889V18.2451C34.9609 18.0303 34.7852 17.8545 34.5703 17.8545H31.6406C31.4258 17.8545 31.25 18.0303 31.25 18.2451V33.0889C31.25 33.3037 31.4258 33.4795 31.6406 33.4795Z" fill="white"/>
</svg>
