<svg width="22" height="21" viewBox="0 0 22 21" fill="none" xmlns="http://www.w3.org/2000/svg">
<path d="M10.9854 0.3479C8.99557 0.3479 7.05046 0.937941 5.39602 2.04341C3.74157 3.14888 2.45208 4.72012 1.69062 6.55844C0.929164 8.39677 0.729931 10.4196 1.11812 12.3712C1.50631 14.3227 2.46448 16.1153 3.87148 17.5223C5.27847 18.9293 7.07109 19.8875 9.02264 20.2757C10.9742 20.6639 12.997 20.4646 14.8354 19.7032C16.6737 18.9417 18.2449 17.6522 19.3504 15.9978C20.4559 14.3433 21.0459 12.3982 21.0459 10.4084C21.0408 7.7418 19.9792 5.18583 18.0936 3.30021C16.208 1.4146 13.652 0.353014 10.9854 0.3479ZM10.9854 18.9212C9.30169 18.9212 7.65583 18.422 6.25591 17.4866C4.856 16.5512 3.76489 15.2217 3.12058 13.6661C2.47627 12.1106 2.30769 10.399 2.63616 8.74769C2.96462 7.09637 3.77539 5.57954 4.96592 4.38901C6.15645 3.19848 7.67328 2.38771 9.3246 2.05925C10.9759 1.73078 12.6875 1.89936 14.2431 2.54367C15.7986 3.18798 17.1281 4.27909 18.0635 5.67901C18.9989 7.07892 19.4981 8.72478 19.4981 10.4084C19.4956 12.6654 18.5979 14.8292 17.002 16.4251C15.4061 18.021 13.2423 18.9187 10.9854 18.9212ZM7.8898 10.4084C7.8898 11.0582 8.09423 11.6914 8.47411 12.2184C8.854 12.7455 9.3901 13.1397 10.0065 13.3451C10.6228 13.5506 11.2882 13.5569 11.9084 13.3632C12.5285 13.1695 13.072 12.7855 13.4618 12.2658C13.5865 12.1037 13.7696 11.9968 13.972 11.9679C14.1744 11.939 14.3802 11.9903 14.5452 12.111C14.7094 12.2342 14.818 12.4175 14.847 12.6207C14.876 12.8239 14.8232 13.0302 14.7 13.1944C14.1153 13.9741 13.3001 14.55 12.3698 14.8406C11.4396 15.1311 10.4416 15.1217 9.51701 14.8135C8.59246 14.5053 7.78832 13.9141 7.21849 13.1235C6.64866 12.3329 6.34203 11.383 6.34203 10.4084C6.34203 9.43389 6.64866 8.48404 7.21849 7.69345C7.78832 6.90285 8.59246 6.31158 9.51701 6.0034C10.4416 5.69522 11.4396 5.68575 12.3698 5.97633C13.3001 6.26691 14.1153 6.84281 14.7 7.62245C14.8232 7.78665 14.876 7.99304 14.847 8.19623C14.818 8.39941 14.7094 8.58275 14.5452 8.70589C14.3802 8.82657 14.1744 8.87793 13.972 8.84901C13.7696 8.82009 13.5865 8.71319 13.4618 8.55112C13.072 8.03135 12.5285 7.64742 11.9084 7.4537C11.2882 7.25998 10.6228 7.26629 10.0065 7.47175C9.3901 7.6772 8.854 8.07138 8.47411 8.59845C8.09423 9.12551 7.8898 9.75875 7.8898 10.4084Z" fill="#555555"/>
</svg>
