<svg width="25" height="26" viewBox="0 0 25 26" fill="none" xmlns="http://www.w3.org/2000/svg">
<path d="M12.9125 0.93335C6.27253 0.93335 0.839844 6.37574 0.839844 13.0787C0.839844 19.1393 5.25843 24.1696 11.0292 25.0787V16.5939H7.9627V13.0787H11.0292V10.4C11.0292 7.35756 12.828 5.68484 15.5926 5.68484C16.9085 5.68484 18.2848 5.91514 18.2848 5.91514V8.90906H16.7637C15.2667 8.90906 14.7958 9.84239 14.7958 10.8V13.0787H18.152L17.6087 16.5939H14.7958V25.0787C17.6407 24.6276 20.2312 23.1702 22.0997 20.9697C23.9682 18.7691 24.9916 15.9704 24.9851 13.0787C24.9851 6.37574 19.5524 0.93335 12.9125 0.93335Z" fill="#9CA3AF"/>
</svg>
