<svg width="26" height="26" viewBox="0 0 26 26" fill="none" xmlns="http://www.w3.org/2000/svg">
<path d="M7.93183 0.93335H18.0729C21.9361 0.93335 25.075 4.07224 25.075 7.93549V18.0765C25.075 19.9336 24.3373 21.7146 23.0241 23.0278C21.711 24.3409 19.9299 25.0787 18.0729 25.0787H7.93183C4.06858 25.0787 0.929688 21.9398 0.929688 18.0765V7.93549C0.929688 6.07841 1.66741 4.29739 2.98057 2.98423C4.29372 1.67107 6.07475 0.93335 7.93183 0.93335ZM7.69038 3.34788C6.5377 3.34788 5.43224 3.80578 4.61718 4.62084C3.80212 5.4359 3.34422 6.54137 3.34422 7.69404V18.318C3.34422 20.7204 5.28792 22.6641 7.69038 22.6641H18.3143C19.467 22.6641 20.5725 22.2062 21.3875 21.3912C22.2026 20.5761 22.6605 19.4707 22.6605 18.318V7.69404C22.6605 5.29158 20.7168 3.34788 18.3143 3.34788H7.69038ZM19.3405 5.15878C19.7407 5.15878 20.1246 5.31777 20.4076 5.60078C20.6906 5.88379 20.8496 6.26763 20.8496 6.66786C20.8496 7.0681 20.6906 7.45194 20.4076 7.73495C20.1246 8.01795 19.7407 8.17695 19.3405 8.17695C18.9403 8.17695 18.5564 8.01795 18.2734 7.73495C17.9904 7.45194 17.8314 7.0681 17.8314 6.66786C17.8314 6.26763 17.9904 5.88379 18.2734 5.60078C18.5564 5.31777 18.9403 5.15878 19.3405 5.15878ZM13.0023 6.96968C14.6033 6.96968 16.1386 7.60565 17.2707 8.73768C18.4027 9.86971 19.0387 11.4051 19.0387 13.006C19.0387 14.6069 18.4027 16.1423 17.2707 17.2743C16.1386 18.4064 14.6033 19.0423 13.0023 19.0423C11.4014 19.0423 9.86605 18.4064 8.73402 17.2743C7.60199 16.1423 6.96602 14.6069 6.96602 13.006C6.96602 11.4051 7.60199 9.86971 8.73402 8.73768C9.86605 7.60565 11.4014 6.96968 13.0023 6.96968ZM13.0023 9.38421C12.0418 9.38421 11.1206 9.76579 10.4413 10.445C9.76213 11.1242 9.38055 12.0454 9.38055 13.006C9.38055 13.9666 9.76213 14.8878 10.4413 15.567C11.1206 16.2462 12.0418 16.6278 13.0023 16.6278C13.9629 16.6278 14.8841 16.2462 15.5633 15.567C16.2426 14.8878 16.6241 13.9666 16.6241 13.006C16.6241 12.0454 16.2426 11.1242 15.5633 10.445C14.8841 9.76579 13.9629 9.38421 13.0023 9.38421Z" fill="#9CA3AF"/>
</svg>
