<svg width="25" height="26" viewBox="0 0 25 26" fill="none" xmlns="http://www.w3.org/2000/svg">
<path d="M22.0289 0.93335C22.7404 0.93335 23.4228 1.216 23.9259 1.71913C24.4291 2.22225 24.7117 2.90464 24.7117 3.61616V22.3959C24.7117 23.1074 24.4291 23.7898 23.9259 24.2929C23.4228 24.796 22.7404 25.0787 22.0289 25.0787H3.24922C2.53769 25.0787 1.85531 24.796 1.35218 24.2929C0.849059 23.7898 0.566406 23.1074 0.566406 22.3959V3.61616C0.566406 2.90464 0.849059 2.22225 1.35218 1.71913C1.85531 1.216 2.53769 0.93335 3.24922 0.93335H22.0289ZM21.3582 21.7252V14.6157C21.3582 13.4559 20.8975 12.3436 20.0774 11.5235C19.2573 10.7034 18.145 10.2427 16.9852 10.2427C15.845 10.2427 14.517 10.9402 13.8732 11.9865V10.4976H10.1306V21.7252H13.8732V15.112C13.8732 14.0791 14.7048 13.234 15.7377 13.234C16.2358 13.234 16.7135 13.4319 17.0656 13.7841C17.4178 14.1363 17.6157 14.6139 17.6157 15.112V21.7252H21.3582ZM5.77106 8.39157C6.36875 8.39157 6.94195 8.15414 7.36457 7.73152C7.7872 7.30889 8.02463 6.73569 8.02463 6.13801C8.02463 4.8905 7.01857 3.87103 5.77106 3.87103C5.16982 3.87103 4.59321 4.10987 4.16807 4.53501C3.74293 4.96015 3.50409 5.53677 3.50409 6.13801C3.50409 7.38552 4.52356 8.39157 5.77106 8.39157ZM7.63562 21.7252V10.4976H3.91992V21.7252H7.63562Z" fill="#9CA3AF"/>
</svg>
