<svg width="21" height="14" viewBox="0 0 21 14" fill="none" xmlns="http://www.w3.org/2000/svg">
<path d="M10.2941 0C5.61497 0 1.61898 2.90267 0 7C1.61898 11.0973 5.61497 14 10.2941 14C14.9733 14 18.9692 11.0973 20.5882 7C18.9692 2.90267 14.9733 0 10.2941 0ZM10.2941 11.6667C7.71123 11.6667 5.61497 9.576 5.61497 7C5.61497 4.424 7.71123 2.33333 10.2941 2.33333C12.877 2.33333 14.9733 4.424 14.9733 7C14.9733 9.576 12.877 11.6667 10.2941 11.6667ZM10.2941 4.2C8.74064 4.2 7.48663 5.45067 7.48663 7C7.48663 8.54933 8.74064 9.8 10.2941 9.8C11.8476 9.8 13.1016 8.54933 13.1016 7C13.1016 5.45067 11.8476 4.2 10.2941 4.2Z" fill="#B7B7B7"/>
</svg>
