<svg width="250" height="62" viewBox="0 0 250 62" fill="none" xmlns="http://www.w3.org/2000/svg">
<path d="M113.106 33.0408C113.106 40.545 107.236 46.0729 100.032 46.0729C92.8269 46.0729 86.9568 40.545 86.9568 33.0408C86.9568 25.4835 92.8269 20.0059 100.032 20.0059C107.236 20.0059 113.106 25.4835 113.106 33.0408ZM107.383 33.0408C107.383 28.3494 103.981 25.1413 100.032 25.1413C96.0839 25.1413 92.6816 28.3494 92.6816 33.0408C92.6816 37.6818 96.0839 40.9388 100.032 40.9388C103.981 40.9388 107.383 37.6763 107.383 33.0408Z" fill="#EA4335"/>
<path d="M141.312 33.0408C141.312 40.545 135.441 46.0729 128.238 46.0729C121.035 46.0729 115.162 40.545 115.162 33.0408C115.162 25.4891 121.035 20.0059 128.238 20.0059C135.441 20.0059 141.312 25.4835 141.312 33.0408ZM135.589 33.0408C135.589 28.3494 132.187 25.1413 128.238 25.1413C124.289 25.1413 120.886 28.3494 120.886 33.0408C120.886 37.6818 124.289 40.9388 128.238 40.9388C132.187 40.9388 135.589 37.6763 135.589 33.0408Z" fill="#FBBC05"/>
<path d="M168.345 20.7936V44.1944C168.345 53.8187 162.668 57.7503 155.957 57.7503C149.64 57.7503 145.837 53.5254 144.404 50.0687L149.387 47.9947C150.275 50.1162 152.447 52.6204 155.95 52.6204C160.246 52.6204 162.909 49.9709 162.909 44.9793V43.1064H162.707C161.426 44.6874 158.959 46.0687 155.845 46.0687C149.328 46.0687 143.359 40.3913 143.359 33.0883C143.359 25.7307 149.328 20.0059 155.845 20.0059C158.952 20.0059 161.422 21.3871 162.707 22.9221H162.909V20.7992H168.345V20.7936ZM163.314 33.0883C163.314 28.4975 160.251 25.1413 156.356 25.1413C152.408 25.1413 149.099 28.4975 149.099 33.0883C149.099 37.6288 152.408 40.9388 156.356 40.9388C160.251 40.9388 163.314 37.6288 163.314 33.0883Z" fill="#4285F4"/>
<path d="M177.304 7.07812V45.2751H171.723V7.07812H177.304Z" fill="#34A853"/>
<path d="M199.059 37.3296L203.501 40.2919C202.067 42.4134 198.612 46.0684 192.642 46.0684C185.237 46.0684 179.709 40.3436 179.709 33.0349C179.709 25.2821 185.285 20 192.001 20C198.765 20 202.074 25.3827 203.156 28.2933L203.749 29.7723L186.325 36.9902C187.659 39.6034 189.733 40.9385 192.642 40.9385C195.556 40.9385 197.578 39.5042 199.059 37.3296ZM185.384 32.6411L197.032 27.8045C196.391 26.1774 194.462 25.0433 192.196 25.0433C189.288 25.0433 185.237 27.6089 185.384 32.6411Z" fill="#EA4335"/>
<path d="M65.8268 29.6495V24.1202H84.4609C84.6425 25.0839 84.736 26.2236 84.736 27.4582C84.736 31.6063 83.602 36.7375 79.9469 40.3912C76.3925 44.0937 71.8492 46.0685 65.831 46.0685C54.6788 46.0685 45.3003 36.982 45.3003 25.8297C45.3003 14.6761 54.6788 5.59229 65.831 5.59229C72.0028 5.59229 76.3981 8.01268 79.6997 11.1677L75.7989 15.0699C73.4302 12.8493 70.2207 11.1202 65.8268 11.1202C57.6816 11.1202 51.3129 17.6859 51.3129 25.8297C51.3129 33.9736 57.6816 40.5378 65.8268 40.5378C71.1089 40.5378 74.1173 38.4163 76.0447 36.4889C77.609 34.9261 78.6355 32.6928 79.0405 29.6426L65.8268 29.6495Z" fill="#4285F4"/>
</svg>
