<svg width="25" height="19" viewBox="0 0 25 19" fill="none" xmlns="http://www.w3.org/2000/svg">
<path d="M9.86125 13.3267L16.127 9.37456L9.86125 5.42239V13.3267ZM23.8172 3.01157C23.9742 3.63074 24.0828 4.4607 24.1553 5.51461C24.2398 6.56852 24.276 7.47752 24.276 8.26796L24.3484 9.37456C24.3484 12.2596 24.1553 14.3806 23.8172 15.7376C23.5154 16.9232 22.8152 17.6873 21.7287 18.0166C21.1613 18.1879 20.123 18.3065 18.5294 18.3855C16.96 18.4777 15.5233 18.5173 14.1953 18.5173L12.2758 18.5963C7.21734 18.5963 4.06638 18.3855 2.82289 18.0166C1.73635 17.6873 1.03614 16.9232 0.734322 15.7376C0.577378 15.1184 0.468724 14.2884 0.396288 13.2345C0.311779 12.1806 0.275561 11.2716 0.275561 10.4812L0.203125 9.37456C0.203125 6.48948 0.396288 4.36848 0.734322 3.01157C1.03614 1.82592 1.73635 1.06183 2.82289 0.732484C3.39031 0.561223 4.42856 0.442658 6.02215 0.363614C7.59159 0.271397 9.02824 0.231875 10.3562 0.231875L12.2758 0.152832C17.3342 0.152832 20.4852 0.363615 21.7287 0.732484C22.8152 1.06183 23.5154 1.82592 23.8172 3.01157Z" fill="#9CA3AF"/>
</svg>
