<svg width="34" height="34" viewBox="0 0 34 34" fill="none" xmlns="http://www.w3.org/2000/svg">
<g id="tabler:message-circle">
<path id="Vector" d="M17 16.9999V17.0141M11.3333 16.9999V17.0141M22.6667 16.9999V17.0141M4.25 28.3332L6.09167 22.8082C4.49996 20.4541 3.92416 17.6663 4.47131 14.9632C5.01846 12.26 6.65134 9.82544 9.06634 8.11213C11.4813 6.39882 14.5141 5.52335 17.6008 5.6485C20.6875 5.77365 23.618 6.89091 25.8475 8.79254C28.077 10.6942 29.4537 13.2508 29.7218 15.987C29.9898 18.7232 29.1308 21.4528 27.3047 23.6683C25.4785 25.8839 22.8093 27.4345 19.7934 28.032C16.7775 28.6295 13.6201 28.2331 10.9083 26.9166L4.25 28.3332Z" stroke="white" stroke-width="2" stroke-linecap="round" stroke-linejoin="round"/>
</g>
</svg>
