<svg width="197" height="50" viewBox="0 0 197 50" fill="none" xmlns="http://www.w3.org/2000/svg">
<path d="M50.3455 9.41568C50.3187 8.78153 50.2319 8.15134 50.0864 7.53351C49.5915 5.42778 48.4056 3.54784 46.7174 2.19284C45.057 0.821891 42.9817 0.0509205 40.8277 0.00481931H10.201C9.4112 -0.0187791 8.62116 0.0443385 7.84513 0.193036C6.00062 0.596606 4.31402 1.5287 2.99199 2.87513C2.0296 3.80464 1.28885 4.93839 0.824564 6.19246C0.430702 7.11736 0.207236 8.10565 0.164913 9.10982H0V41.0126H0.164913C0.199176 42.0002 0.414783 42.9731 0.801005 43.8829C1.67951 46.129 3.35735 47.9721 5.5128 49.0589C6.40654 49.5227 7.36897 49.8405 8.36343 50C8.39566 49.9814 8.43223 49.9716 8.46945 49.9716C8.50667 49.9716 8.54323 49.9814 8.57546 50H41.7936H41.9585H42.5475C44.3194 49.6234 45.9525 48.7648 47.2663 47.5192C48.5802 46.2736 49.5235 44.6894 49.9921 42.9419C50.2486 41.9832 50.3675 40.993 50.3455 40.001V9.41568ZM39.1314 33.6486C39.0933 33.747 39.0933 33.8561 39.1314 33.9545C39.0735 34.3314 38.9788 34.7017 38.8487 35.0603L38.4247 36.6836L38.3069 37.0365C38.3069 37.3895 38.0242 37.6718 37.6001 37.7188H37.4352C37.3718 37.7575 37.3014 37.7833 37.228 37.7947C37.1546 37.8062 37.0796 37.8031 37.0074 37.7856C36.9352 37.7681 36.8672 37.7366 36.8072 37.6929C36.7472 37.6491 36.6964 37.594 36.6577 37.5306C36.4414 37.2548 36.3014 36.9271 36.2518 36.5802C36.2022 36.2334 36.2447 35.8796 36.375 35.5543L36.5164 35.225C36.5517 35.0701 36.5517 34.9093 36.5164 34.7544C36.3997 34.4192 36.3997 34.0544 36.5164 33.7192C36.5556 33.6203 36.6159 33.5311 36.6933 33.458C36.7706 33.3848 36.863 33.3294 36.964 33.2957L37.553 33.0369C37.6342 33.0076 37.7079 32.9608 37.769 32.8998C37.8301 32.8388 37.877 32.7651 37.9064 32.684C38.0477 32.3782 38.2833 32.1429 38.4482 31.837C38.6131 31.5312 38.5896 31.5312 38.778 31.5312C38.9665 31.5312 39.0608 31.7194 39.155 31.8841C39.19 32.0151 39.19 32.153 39.155 32.2841V32.7546C39.2498 33.0465 39.2415 33.3621 39.1314 33.6486ZM39.7911 21.5557C39.7001 21.8671 39.5737 22.1671 39.4141 22.4497C39.155 22.9438 38.8487 23.4143 38.5896 23.9084C38.3199 24.3618 37.9589 24.7543 37.5294 25.0612C36.708 25.6658 35.9643 26.3691 35.3149 27.1551C34.9832 27.5778 34.6988 28.0353 34.4668 28.5197C34.4316 28.5805 34.4131 28.6495 34.4131 28.7197C34.4131 28.7899 34.4316 28.8589 34.4668 28.9197C34.5786 29.2402 34.6575 29.5713 34.7024 29.9078C34.7302 30.141 34.8385 30.3573 35.0086 30.5195C35.0751 30.5963 35.1243 30.6864 35.1528 30.7839C35.1812 30.8813 35.1883 30.9838 35.1735 31.0842C35.1264 31.5142 35.1264 31.9481 35.1735 32.3782C35.1924 32.7203 35.0991 33.0592 34.9078 33.3436C34.7165 33.6281 34.4376 33.8425 34.1134 33.9545C33.7627 34.0426 33.4592 34.2615 33.2653 34.5662C33.2653 34.6838 33.0768 34.7074 32.9825 34.7779C32.8533 34.8436 32.7516 34.953 32.6955 35.0865C32.6394 35.2201 32.6326 35.3692 32.6763 35.5073C32.6763 35.672 32.6763 35.8602 32.7941 36.0484C32.888 36.4349 32.888 36.8382 32.7941 37.2248C32.7713 37.3157 32.7242 37.3988 32.6578 37.4651C32.5914 37.5314 32.5082 37.5784 32.4171 37.6012C32.2673 37.6311 32.1238 37.6869 31.9931 37.7659C31.9185 37.7876 31.8539 37.8349 31.8108 37.8994C31.7677 37.964 31.7488 38.0417 31.7575 38.1188C31.7578 38.6827 31.5668 39.23 31.2156 39.6716C30.7855 40.2914 30.3132 40.881 29.8021 41.4361C29.571 41.6993 29.284 41.9077 28.962 42.0461C28.64 42.1845 28.2912 42.2494 27.9409 42.236C27.6198 42.203 27.2961 42.203 26.975 42.236L26.3389 42.3537C26.1748 42.3765 26.0083 42.3765 25.8442 42.3537C25.7359 42.3568 25.628 42.3386 25.5268 42.3001C25.4255 42.2616 25.3329 42.2035 25.2541 42.1292C25.1754 42.0549 25.112 41.9659 25.0678 41.8671C25.0235 41.7684 24.9991 41.6619 24.9961 41.5538C24.9846 41.4995 24.9846 41.4434 24.9961 41.3891C25.0292 41.0485 24.9638 40.7055 24.8076 40.4009C24.5785 39.8537 24.2774 39.3395 23.9123 38.8717C23.7545 38.6825 23.6489 38.4554 23.6061 38.2129L23.3941 36.8248C23.2309 36.2718 22.9674 35.7534 22.6166 35.2955L22.2632 34.7309C22.1735 34.5714 22.1173 34.3952 22.0983 34.2133C21.9991 33.4068 22.1383 32.589 22.4988 31.8606L22.7815 31.4371C22.8568 31.3172 22.8967 31.1786 22.8967 31.0371C22.8967 30.8956 22.8568 30.757 22.7815 30.6372C22.6906 30.363 22.6352 30.0784 22.6166 29.7902C22.5016 29.2885 22.3358 28.7997 22.1219 28.3315C21.9453 28.0593 21.74 27.8069 21.5093 27.5786L21.2031 27.2963C21.0486 27.1525 20.9396 26.9668 20.8893 26.762C20.8391 26.5572 20.8499 26.3422 20.9204 26.1435C20.9204 25.8611 21.0617 25.5788 21.1088 25.2965C21.1204 25.1477 21.1204 24.9983 21.1088 24.8495C21.11 24.7236 21.0652 24.6016 20.9828 24.5063C20.9004 24.4111 20.7861 24.349 20.6612 24.3319H19.7895C19.6968 24.341 19.6033 24.3237 19.52 24.2821C19.4366 24.2405 19.3667 24.1762 19.3183 24.0966C19.2547 24.0078 19.1995 23.9133 19.1534 23.8143C19.089 23.6964 18.986 23.6041 18.8617 23.5527C18.7374 23.5014 18.5993 23.494 18.4702 23.532C18.1739 23.5503 17.8811 23.6056 17.5985 23.6967L16.8447 23.9319C16.5467 24.0562 16.2248 24.1125 15.9023 24.0966H15.2898C14.8992 24.0565 14.5047 24.1048 14.1354 24.2378C14.0481 24.2831 13.9511 24.3068 13.8527 24.3068C13.7542 24.3068 13.6573 24.2831 13.57 24.2378C12.8663 23.8869 12.2028 23.461 11.591 22.9673C11.3952 22.8114 11.2414 22.6093 11.1434 22.3791C11.035 22.1683 10.8917 21.9774 10.7193 21.8145C10.4602 21.5557 10.2246 21.2969 9.96544 21.0616C9.82042 20.9779 9.6963 20.8624 9.60244 20.7238C9.50859 20.5853 9.44743 20.4273 9.42358 20.2617C9.4224 20.1638 9.40084 20.0673 9.36029 19.9782C9.31973 19.889 9.26106 19.8093 9.188 19.7441C9.16794 19.7264 9.15188 19.7047 9.14088 19.6804C9.12988 19.656 9.12419 19.6296 9.12419 19.6029C9.12419 19.5762 9.12988 19.5498 9.14088 19.5255C9.15188 19.5012 9.16794 19.4794 9.188 19.4618L9.42358 19.2265C9.64918 18.7786 9.78522 18.2912 9.82409 17.7913C9.87073 17.4706 9.82156 17.1432 9.68273 16.8503C9.61259 16.7243 9.57578 16.5826 9.57578 16.4385C9.57578 16.2944 9.61259 16.1527 9.68273 16.0268C9.95162 15.5574 10.1878 15.07 10.3895 14.5681C10.414 14.4096 10.4701 14.2576 10.5544 14.1211C10.7429 13.8623 10.9549 13.627 11.1669 13.3682C11.2237 13.2997 11.2868 13.2367 11.3554 13.18L12.18 12.5918C12.3181 12.5151 12.4326 12.4023 12.5115 12.2656C12.5903 12.1288 12.6305 11.9732 12.6276 11.8154C12.6046 11.6673 12.6046 11.5166 12.6276 11.3684C12.7461 10.9441 13.0031 10.5715 13.3579 10.3097L13.7584 9.98033C13.9139 9.85921 14.0423 9.70694 14.1354 9.53331C14.1589 9.44071 14.1987 9.35306 14.2532 9.27451C14.2797 9.24447 14.3123 9.22041 14.3489 9.20393C14.3854 9.18745 14.4251 9.17893 14.4652 9.17893C14.5053 9.17893 14.545 9.18745 14.5815 9.20393C14.6181 9.22041 14.6507 9.24447 14.6772 9.27451C15.0565 9.43325 15.4729 9.48217 15.8787 9.41568C16.0939 9.41544 16.3051 9.35864 16.4913 9.25099C17.284 8.80684 18.174 8.56443 19.0828 8.54517H19.4126C19.6538 8.49822 19.9017 8.49822 20.1429 8.54517C20.505 8.54913 20.8646 8.48529 21.2031 8.35696C21.2846 8.29587 21.3838 8.26285 21.4858 8.26285C21.5877 8.26285 21.6869 8.29587 21.7685 8.35696C21.7685 8.35696 22.0747 8.35696 22.1219 8.54517C22.169 8.73339 22.1219 8.75692 21.9805 8.87455C21.9553 8.95096 21.9553 9.03341 21.9805 9.10982C22.0286 9.16986 22.0632 9.23942 22.0823 9.31388C22.1013 9.38835 22.1042 9.466 22.0908 9.54168C22.0775 9.61736 22.0481 9.68933 22.0047 9.75279C21.9613 9.81626 21.9049 9.86976 21.8392 9.90975C21.8314 9.96437 21.8314 10.0198 21.8392 10.0744C21.8392 10.0744 21.8392 10.0744 21.8392 10.1921H21.9805C22.2716 10.3402 22.5803 10.4509 22.8993 10.5215L23.6296 10.6626C23.7229 10.676 23.8111 10.7134 23.8854 10.7711C23.9598 10.8289 24.0178 10.905 24.0537 10.992C24.0884 11.0687 24.1405 11.1364 24.2059 11.1895C24.2714 11.2426 24.3483 11.2797 24.4306 11.2978L25.3259 11.6508C25.4038 11.6644 25.4835 11.6644 25.5615 11.6508C25.7028 11.6508 25.7735 11.6508 25.8442 11.4625C25.867 11.3302 25.867 11.1949 25.8442 11.0626C25.8486 10.9515 25.8872 10.8445 25.9546 10.7562C26.022 10.6678 26.1151 10.6022 26.2211 10.5685H26.6216C26.7421 10.5394 26.8681 10.5414 26.9876 10.5743C27.1072 10.6072 27.2163 10.67 27.3048 10.7567C27.4436 10.8812 27.6154 10.9629 27.7996 10.992L29.4958 11.4155C29.7604 11.5215 30.0558 11.5215 30.3204 11.4155C30.5954 11.3223 30.8935 11.3223 31.1685 11.4155H32.0402C32.2758 11.4155 32.4407 11.4155 32.4642 11.7449C32.4878 12.0742 32.4642 12.0272 32.4642 12.1448C32.5809 12.4881 32.5809 12.8603 32.4642 13.2035C32.4219 13.2697 32.3656 13.3259 32.2993 13.3682C32.1815 13.3682 32.1815 13.5094 32.2993 13.627C32.4171 13.7447 32.4878 14.1211 32.6056 14.3564C32.8142 14.6587 32.9732 14.9922 33.0768 15.3445C33.1274 15.4785 33.208 15.5992 33.3124 15.6974C33.6438 16.028 33.8303 16.4765 33.8307 16.9444C33.8275 17.075 33.8509 17.2049 33.8995 17.3263C33.9481 17.4476 34.0208 17.5578 34.1134 17.6502C34.3809 17.8958 34.5694 18.2151 34.6552 18.5677C34.7502 18.8448 34.9319 19.084 35.1735 19.25C35.5505 19.5559 35.8803 19.9088 36.2337 20.2382C36.3773 20.3788 36.4757 20.559 36.5164 20.7558C36.5164 21.1322 36.7755 21.2734 37.176 21.2028C37.4982 21.212 37.8206 21.2042 38.142 21.1792C38.5552 21.136 38.9599 21.0329 39.3435 20.8734H39.4848C39.5142 20.8626 39.5455 20.8584 39.5767 20.8611C39.6079 20.8638 39.6381 20.8734 39.6651 20.8891C39.6921 20.9049 39.7153 20.9264 39.733 20.9522C39.7507 20.9779 39.7625 21.0072 39.7675 21.0381C39.8213 21.2055 39.8295 21.3841 39.7911 21.5557Z" fill="#264FAD"/>
<path d="M197 3.51089C196.829 3.09051 196.549 2.72309 196.189 2.44615C195.828 2.16921 195.401 1.99267 194.95 1.93457C194.925 1.94705 194.897 1.95354 194.868 1.95354C194.839 1.95354 194.811 1.94705 194.786 1.93457H194.503C194.477 1.94705 194.449 1.95354 194.42 1.95354C194.392 1.95354 194.364 1.94705 194.338 1.93457C193.907 1.99254 193.501 2.16825 193.165 2.44228C192.828 2.71631 192.573 3.078 192.43 3.48736L191.134 6.73411L189.273 11.2513C188.59 12.9217 187.906 14.5922 187.247 16.2626L184.891 21.7444L182.535 27.2968C182.535 27.2968 182.535 27.438 182.37 27.438C182.269 27.2484 182.183 27.0519 182.111 26.8498C181.168 24.4971 180.25 22.1444 179.331 19.9564C178.412 17.7683 177.658 15.3921 176.692 13.1335C176.551 12.7547 176.386 12.3853 176.198 12.0277C176.046 11.7096 175.819 11.4337 175.535 11.2244C175.252 11.0151 174.921 10.8789 174.572 10.8278C173.943 10.7455 173.306 10.8962 172.781 11.2513C172.564 11.3705 172.378 11.5399 172.24 11.7454C171.988 12.0822 171.831 12.4803 171.785 12.8982C171.74 13.3161 171.807 13.7386 171.98 14.1216C172.216 14.7569 172.475 15.3921 172.734 16.0273L175.42 22.6385C176.103 24.3559 176.81 26.0734 177.517 27.8144C178.412 30.0495 179.307 32.2611 180.226 34.4961C180.351 34.8483 180.526 35.181 180.744 35.4843C181.094 35.9323 181.595 36.2387 182.154 36.3468C182.712 36.4549 183.291 36.3575 183.783 36.0725C184.306 35.7544 184.711 35.2755 184.938 34.7079C185.927 32.2375 186.917 29.7907 187.93 27.3204C188.943 24.85 189.932 22.3091 190.945 19.8152L193.066 14.6392C193.584 13.2982 194.126 11.9807 194.668 10.6631L196.647 5.72244L197 4.82841V3.53442V3.51089Z" fill="#264FAD"/>
<path d="M105.219 30.8763C104.63 29.6059 104.065 28.3589 103.476 27.112C102.651 25.3474 101.827 23.5829 101.12 21.8184C100.413 20.0538 99.565 18.501 98.764 16.8306L96.4081 11.5605C95.7249 10.0548 95.0181 8.54907 94.3114 7.04333L93.4632 5.23174C93.2041 4.66709 92.9685 4.07891 92.6858 3.53778C92.5319 3.15234 92.2787 2.81439 91.9519 2.55821C91.625 2.30203 91.2361 2.13674 90.8246 2.0791H90.6597H90.0943C90.065 2.09361 90.0328 2.10116 90.0001 2.10116C89.9674 2.10116 89.9351 2.09361 89.9058 2.0791C89.7587 2.10737 89.6209 2.17209 89.5053 2.26732H89.3404C88.8875 2.51842 88.5249 2.9052 88.3038 3.37309L87.1965 5.72581L84.1339 12.0781C83.1915 14.1015 82.2727 16.1248 81.3304 18.1246C80.388 20.1244 79.5399 21.9595 78.6682 23.8888C78.4715 24.2699 78.2984 24.6628 78.1499 25.0651C77.9888 25.4675 77.9566 25.9099 78.0579 26.3313C78.1592 26.7527 78.3889 27.1323 78.7153 27.4178C78.9668 27.6615 79.2664 27.8501 79.595 27.9716C79.9235 28.0931 80.2739 28.1449 80.6236 28.1236C81.1594 28.1138 81.6721 27.904 82.0607 27.5355C82.3356 27.2551 82.5589 26.9286 82.7203 26.5709L84.1339 23.4417L86.9374 17.3953L89.2933 12.0311L89.6231 11.4194C89.8823 11.09 89.9529 10.6665 90.1885 10.3136C90.228 10.3244 90.2639 10.3453 90.2928 10.3741C90.3217 10.403 90.3426 10.4389 90.3535 10.4783L90.7304 11.2782L93.3926 16.9953L95.0888 20.6655L98.0572 27.0414C98.7404 28.5707 99.4472 30.0529 100.154 31.5821L100.861 33.1349C101.167 33.7937 101.45 34.4524 101.78 35.0877C101.971 35.5439 102.302 35.9281 102.725 36.1858C103.148 36.4434 103.642 36.5614 104.135 36.5228C104.618 36.4951 105.08 36.3199 105.459 36.0211C105.838 35.7224 106.116 35.3143 106.256 34.8524C106.43 34.2157 106.363 33.5371 106.067 32.9467C105.855 32.2409 105.549 31.5586 105.219 30.8763Z" fill="#264FAD"/>
<path d="M163.876 24.5439C163.573 23.2695 162.92 22.1046 161.992 21.1795C161.233 20.4191 160.358 19.7838 159.4 19.2973C158.582 18.884 157.731 18.5378 156.856 18.2621C155.701 17.8386 154.5 17.5328 153.322 17.2269C151.869 16.8891 150.437 16.4649 149.034 15.9565C148.364 15.7001 147.717 15.3852 147.102 15.0154C146.539 14.6853 146.075 14.2094 145.76 13.638C145.445 13.0665 145.29 12.4207 145.312 11.7686C145.328 11.3551 145.392 10.9447 145.5 10.5452C145.74 9.57167 146.348 8.72858 147.197 8.19252C147.924 7.74009 148.72 7.40652 149.553 7.20438C150.559 6.9376 151.598 6.81092 152.639 6.82795C153.264 6.82795 153.863 6.58007 154.305 6.13885C154.746 5.69763 154.995 5.09921 154.995 4.47523C155 3.90434 154.798 3.35088 154.425 2.91802C154.052 2.48515 153.535 2.20242 152.969 2.12252H152.403C150.993 1.99616 149.573 2.07542 148.186 2.35779C146.165 2.85475 144.326 3.9155 142.885 5.41632C141.478 6.89047 140.643 8.81735 140.529 10.8511C140.454 11.8031 140.51 12.7609 140.694 13.6979C140.874 14.6879 141.25 15.6319 141.802 16.4741C142.532 17.5613 143.498 18.47 144.629 19.1326C145.696 19.7778 146.835 20.2988 148.021 20.6854C149.647 21.2266 151.343 21.6265 152.992 22.0971C154.081 22.363 155.152 22.701 156.196 23.1087C156.902 23.388 157.568 23.7598 158.175 24.2145C158.676 24.6199 159.038 25.1708 159.212 25.7908C159.423 26.6988 159.329 27.6508 158.946 28.5008C158.563 29.3507 157.912 30.0518 157.091 30.4963C155.804 31.2011 154.366 31.5883 152.898 31.6256C152.295 31.6838 151.687 31.6838 151.084 31.6256C150.361 31.5396 149.645 31.406 148.94 31.2256C147.859 30.9376 146.838 30.4596 145.924 29.814C145.492 29.4992 145.09 29.1447 144.723 28.7552C144.464 28.4592 144.102 28.2738 143.71 28.2376C143.156 28.1268 142.582 28.1841 142.061 28.4023C141.753 28.5225 141.478 28.7126 141.257 28.9577C141.036 29.2028 140.876 29.496 140.789 29.814C140.667 30.2247 140.659 30.6608 140.767 31.0754C140.875 31.4901 141.094 31.8674 141.401 32.1667C142.312 33.1138 143.37 33.9082 144.534 34.5194C145.875 35.2215 147.312 35.721 148.799 36.0016C149.851 36.2286 150.926 36.3391 152.003 36.331H152.191C153.201 36.3382 154.21 36.2595 155.207 36.0957C156.813 35.7871 158.352 35.1977 159.754 34.3547C161.003 33.5835 162.044 32.5169 162.784 31.249C163.523 29.9812 163.939 28.5511 163.994 27.0848V26.1673C164.009 25.6236 163.97 25.0797 163.876 24.5439Z" fill="#264FAD"/>
<path d="M130.234 22.1678C131.372 21.4585 132.351 20.5212 133.108 19.4151C133.942 18.1161 134.466 16.643 134.639 15.1097C134.722 14.2568 134.722 13.398 134.639 12.5452C134.618 11.754 134.523 10.9664 134.357 10.1925C134.075 8.98172 133.571 7.83323 132.872 6.80459C132.137 5.74019 131.201 4.82917 130.116 4.12249C128.053 2.64231 125.588 1.82196 123.048 1.76978C122.671 1.76978 122.271 1.76978 121.894 1.76978C120.961 1.85813 120.039 2.03138 119.138 2.28737C116.851 2.90273 114.816 4.21942 113.318 6.05172C112.744 6.77374 112.261 7.56399 111.881 8.40443C111.27 9.89523 110.989 11.5004 111.057 13.1099C111.062 13.4828 111.156 13.8491 111.331 14.1786C111.506 14.5081 111.756 14.7914 112.062 15.0051C112.368 15.2189 112.721 15.3569 113.091 15.4077C113.461 15.4586 113.838 15.421 114.19 15.2979C114.569 15.1816 114.912 14.9719 115.188 14.6881C115.464 14.4044 115.663 14.0558 115.769 13.6745C115.803 13.3382 115.803 12.9992 115.769 12.6628C115.778 11.6923 116.003 10.7359 116.428 9.86312C116.841 9.07903 117.45 8.41456 118.195 7.93389C118.717 7.59346 119.269 7.30204 119.844 7.06338C120.719 6.73254 121.642 6.54966 122.577 6.52226C123.219 6.52283 123.859 6.59384 124.485 6.734C125.544 6.97528 126.549 7.40569 127.454 8.00447C128.189 8.51632 128.775 9.21475 129.15 10.0278C129.546 10.8932 129.762 11.8295 129.786 12.7805C129.874 13.7112 129.803 14.6501 129.574 15.5567C129.327 16.5141 128.741 17.3498 127.925 17.9094C126.777 18.6577 125.522 19.2288 124.203 19.6034C123.095 19.9563 121.847 20.2621 120.881 20.6386C119.494 21.0727 118.159 21.6565 116.899 22.3796C115.31 23.3009 113.965 24.5892 112.977 26.1366C111.99 27.6839 111.388 29.4452 111.222 31.2728C111.222 31.6963 111.222 32.1198 111.104 32.5668C111.057 33.0912 111.057 33.6187 111.104 34.1431C111.104 34.7671 111.352 35.3655 111.794 35.8068C112.236 36.248 112.835 36.4958 113.46 36.4958C113.913 36.4949 114.356 36.3634 114.737 36.1172C115.117 35.871 115.418 35.5205 115.604 35.1077C115.691 34.8879 115.754 34.6591 115.792 34.4255C115.816 33.9788 115.816 33.5311 115.792 33.0844C115.807 32.1998 115.941 31.3213 116.193 30.4729C116.479 29.4495 117.013 28.5122 117.748 27.7437C118.342 27.1442 119.036 26.6508 119.797 26.2851C120.943 25.7332 122.133 25.2768 123.355 24.9205C124.485 24.5441 125.71 24.2382 126.771 23.8382C127.98 23.4041 129.141 22.8442 130.234 22.1678Z" fill="#264FAD"/>
<path d="M161.379 10.0978C162.004 10.0978 162.603 9.84989 163.045 9.40867C163.487 8.96745 163.735 8.36903 163.735 7.74505C163.735 7.12107 163.487 6.52265 163.045 6.08143C162.603 5.64021 162.004 5.39233 161.379 5.39233C160.755 5.39233 160.155 5.64021 159.713 6.08143C159.272 6.52265 159.023 7.12107 159.023 7.74505C159.023 8.36903 159.272 8.96745 159.713 9.40867C160.155 9.84989 160.755 10.0978 161.379 10.0978Z" fill="#264FAD"/>
<path d="M170.543 6.71056C171.168 6.71056 171.767 6.46268 172.209 6.02146C172.651 5.58024 172.899 4.98182 172.899 4.35784C172.899 3.89252 172.761 3.43765 172.502 3.05074C172.243 2.66384 171.875 2.36229 171.445 2.18422C171.014 2.00615 170.541 1.95955 170.084 2.05033C169.627 2.14111 169.207 2.36519 168.878 2.69422C168.548 3.02325 168.324 3.44247 168.233 3.89885C168.142 4.35523 168.189 4.82828 168.367 5.25819C168.545 5.68809 168.847 6.05553 169.235 6.31405C169.622 6.57257 170.077 6.71056 170.543 6.71056Z" fill="#264FAD"/>
<path d="M132.377 31.5779C131.753 31.5779 131.153 31.8258 130.712 32.267C130.27 32.7082 130.021 33.3066 130.021 33.9306C130.021 34.5546 130.27 35.153 130.712 35.5942C131.153 36.0354 131.753 36.2833 132.377 36.2833C133.002 36.2833 133.601 36.0354 134.043 35.5942C134.485 35.153 134.733 34.5546 134.733 33.9306C134.733 33.3066 134.485 32.7082 134.043 32.267C133.601 31.8258 133.002 31.5779 132.377 31.5779Z" fill="#264FAD"/>
<path d="M76.4243 36.3316C77.0491 36.3316 77.6483 36.0838 78.0901 35.6426C78.5319 35.2013 78.7801 34.6029 78.7801 33.9789C78.7801 33.355 78.5319 32.7565 78.0901 32.3153C77.6483 31.8741 77.0491 31.6262 76.4243 31.6262C75.7994 31.6262 75.2002 31.8741 74.7584 32.3153C74.3166 32.7565 74.0684 33.355 74.0684 33.9789C74.0684 34.6029 74.3166 35.2013 74.7584 35.6426C75.2002 36.0838 75.7994 36.3316 76.4243 36.3316Z" fill="#264FAD"/>
<path d="M118.69 41.6723H118.078C117.315 41.8227 116.631 42.2389 116.148 42.8466C115.665 43.4543 115.413 44.214 115.439 44.9897C115.425 45.4236 115.499 45.8559 115.656 46.2604C115.814 46.6648 116.053 47.033 116.358 47.3424C116.653 47.6706 117.018 47.9294 117.425 48.1002C117.832 48.2711 118.273 48.3497 118.714 48.3305C119.164 48.3471 119.612 48.2578 120.021 48.0698C120.43 47.8818 120.79 47.6004 121.07 47.2483C121.538 46.7211 121.828 46.0606 121.9 45.3599C121.972 44.6592 121.821 43.9537 121.47 43.3428C121.212 42.8305 120.814 42.4017 120.322 42.1061C119.83 41.8105 119.265 41.6601 118.69 41.6723ZM119.209 47.5071H119.044H118.526C118.071 47.4976 117.629 47.357 117.253 47.1024C116.877 46.8477 116.582 46.4899 116.405 46.0719C116.202 45.6705 116.106 45.2235 116.127 44.7742C116.147 44.3249 116.284 43.8886 116.523 43.5074C116.729 43.121 117.039 42.7996 117.417 42.5793C117.796 42.359 118.229 42.2486 118.667 42.2605C119.009 42.2725 119.344 42.3587 119.649 42.5131C119.954 42.6675 120.222 42.8864 120.434 43.1545C120.718 43.4908 120.915 43.8917 121.008 44.3219C121.1 44.7521 121.085 45.1985 120.964 45.6216C120.843 46.0447 120.62 46.4315 120.313 46.748C120.007 47.0645 119.628 47.301 119.209 47.4365V47.5071Z" fill="#264FAD"/>
<path d="M151.272 41.6709C151.046 41.6348 150.815 41.6348 150.589 41.6709C149.945 41.8243 149.368 42.1787 148.94 42.6825C148.653 43.0004 148.432 43.3721 148.291 43.7761C148.149 44.18 148.089 44.608 148.115 45.0352C148.156 45.7673 148.428 46.4676 148.893 47.035C149.272 47.5016 149.78 47.8464 150.354 48.0263C150.928 48.2062 151.542 48.2133 152.12 48.0467C152.814 47.8408 153.414 47.3998 153.817 46.7998C154.229 46.2079 154.436 45.4971 154.405 44.7764C154.387 44.0885 154.157 43.423 153.746 42.8707C153.457 42.4906 153.082 42.1839 152.653 41.9754C152.223 41.7669 151.75 41.6626 151.272 41.6709ZM152.945 46.8468C152.669 47.1351 152.325 47.3487 151.944 47.4678C151.564 47.5868 151.159 47.6073 150.768 47.5273C150.377 47.4474 150.013 47.2696 149.71 47.0107C149.406 46.7517 149.174 46.4201 149.034 46.0469C148.753 45.4202 148.724 44.7098 148.952 44.062C149.179 43.4142 149.647 42.8784 150.259 42.5649C150.633 42.3746 151.054 42.2956 151.472 42.3374C151.889 42.3791 152.286 42.5397 152.615 42.8002C152.925 43.0293 153.182 43.3223 153.368 43.6594C153.554 43.9964 153.666 44.3696 153.695 44.7535C153.724 45.1375 153.67 45.5231 153.536 45.8843C153.403 46.2455 153.193 46.5738 152.921 46.8468H152.945Z" fill="#264FAD"/>
<path d="M88.7464 45.9297C88.4872 45.4827 88.5344 45.4592 88.9113 45.2945C89.2657 45.0946 89.5436 44.7828 89.7013 44.408C89.8591 44.0333 89.8878 43.6169 89.783 43.2241C89.6931 42.8276 89.4724 42.4728 89.1561 42.2167C88.8399 41.9607 88.4467 41.8183 88.0396 41.8125C87.6627 41.8125 87.2622 41.8125 86.8852 41.8125H86.1313C85.8722 41.8125 85.8486 41.8125 85.8486 42.1184V47.7649C85.8486 48.1648 85.8486 48.1648 86.2727 48.1648C86.6968 48.1648 86.5554 48.1648 86.5554 47.906V46.3062C86.5554 45.4122 86.4376 45.5533 87.3564 45.5533C87.4431 45.5408 87.5316 45.557 87.6082 45.5995C87.6848 45.642 87.7453 45.7084 87.7805 45.7886L88.2281 46.5415L89.0291 47.9531C89.0291 47.9531 89.0291 48.1413 89.2647 48.1648C89.4602 48.1894 89.6581 48.1894 89.8537 48.1648C89.8827 48.0891 89.8827 48.0053 89.8537 47.9296L88.7464 45.9297ZM88.1574 44.8475H86.8145C86.6261 44.8475 86.579 44.8475 86.579 44.6122V43.6241V42.6124C86.579 42.4713 86.579 42.4007 86.791 42.4007H88.1339C88.3558 42.4095 88.5702 42.4833 88.7503 42.613C88.9305 42.7427 89.0684 42.9225 89.1469 43.13C89.2704 43.4215 89.2782 43.749 89.1689 44.0461C89.0595 44.3432 88.8411 44.5877 88.5579 44.7299C88.4329 44.7936 88.2971 44.8334 88.1574 44.8475Z" fill="#264FAD"/>
<path d="M129.575 45.2004C129.136 44.9275 128.648 44.7436 128.138 44.6593C127.831 44.6593 127.525 44.5416 127.242 44.4475C127.07 44.4057 126.904 44.3425 126.748 44.2593C126.642 44.1938 126.552 44.1064 126.483 44.0031C126.414 43.8998 126.367 43.783 126.347 43.6604C126.327 43.5379 126.334 43.4124 126.366 43.2925C126.399 43.1726 126.456 43.0611 126.536 42.9653C126.705 42.7578 126.924 42.596 127.172 42.4948C127.552 42.412 127.946 42.412 128.326 42.4948C128.559 42.5049 128.786 42.5648 128.993 42.6703C129.201 42.7759 129.383 42.9246 129.528 43.1065C129.716 43.3418 129.716 43.3418 129.975 43.2477C130.004 43.2447 130.031 43.2343 130.055 43.2175C130.078 43.2008 130.097 43.1782 130.108 43.152C130.12 43.1258 130.125 43.097 130.123 43.0684C130.12 43.0398 130.11 43.0123 130.093 42.9889C129.951 42.6914 129.721 42.4449 129.433 42.283C128.944 41.9835 128.382 41.821 127.808 41.8125C127.445 41.8192 127.086 41.891 126.748 42.0242C126.439 42.1458 126.165 42.3394 125.947 42.5889C125.804 42.7665 125.702 42.9729 125.647 43.1937C125.592 43.4145 125.586 43.6446 125.628 43.8681C125.671 44.0917 125.761 44.3034 125.894 44.4887C126.026 44.674 126.197 44.8285 126.394 44.9416L126.724 45.0828C127.062 45.2016 127.409 45.296 127.761 45.3651C128.083 45.4185 128.399 45.5052 128.703 45.6239C128.864 45.6785 129.015 45.7579 129.151 45.8592C129.3 45.9751 129.405 46.139 129.448 46.3232C129.491 46.5075 129.469 46.7008 129.386 46.8708C129.244 47.1674 128.99 47.3957 128.68 47.5061C128.25 47.681 127.776 47.7137 127.326 47.5993C126.877 47.485 126.476 47.2296 126.182 46.8708C126.156 46.8477 126.123 46.8349 126.088 46.8349C126.053 46.8349 126.02 46.8477 125.994 46.8708L125.688 46.9885C125.688 46.9885 125.546 47.1061 125.688 47.2002C125.79 47.428 125.943 47.6293 126.135 47.7884C126.527 48.1013 126.995 48.3053 127.492 48.3796C127.988 48.454 128.495 48.3961 128.962 48.2119C129.258 48.0984 129.529 47.9308 129.763 47.7178C129.958 47.5625 130.111 47.3622 130.211 47.1342C130.31 46.9062 130.352 46.6574 130.334 46.4095C130.315 46.1615 130.237 45.9218 130.104 45.7111C129.972 45.5004 129.79 45.3251 129.575 45.2004Z" fill="#264FAD"/>
<path d="M104.389 43.8132L103.658 42.0251C103.637 41.9486 103.591 41.8814 103.527 41.8344C103.463 41.7875 103.384 41.7635 103.305 41.7663C102.692 41.7663 102.763 41.7663 102.528 42.3075V42.4957C101.962 44.0955 101.373 45.6954 100.784 47.2011C100.711 47.3857 100.648 47.5742 100.596 47.7658C100.596 47.954 100.596 48.001 100.737 48.0246H101.02C101.078 48.0268 101.135 48.0094 101.182 47.9753C101.229 47.9411 101.263 47.8922 101.279 47.8363L101.632 46.9188C101.644 46.8481 101.682 46.7844 101.739 46.7407C101.796 46.6971 101.867 46.6766 101.939 46.6835C102.763 46.6835 103.611 46.6835 104.459 46.6835C104.543 46.6767 104.627 46.7021 104.692 46.7546C104.758 46.8071 104.801 46.8827 104.813 46.9658L105.025 47.5775L105.166 47.8834C105.177 47.9185 105.198 47.9492 105.228 47.9705C105.258 47.9918 105.294 48.0026 105.331 48.001C105.508 48.049 105.695 48.049 105.873 48.001C105.906 47.8937 105.906 47.779 105.873 47.6717C105.355 46.4482 104.883 45.1307 104.389 43.8132ZM102.033 46.1659C102.033 46.1659 102.033 46.1659 102.033 46.0012C102.433 44.9425 102.81 43.9073 103.211 42.8015C103.394 43.1747 103.551 43.5599 103.682 43.9544C103.8 44.3073 103.941 44.6837 104.082 45.0366C104.233 45.4124 104.359 45.7975 104.459 46.1894C103.649 46.2099 102.838 46.1705 102.033 46.0718V46.1659Z" fill="#264FAD"/>
<path d="M79.6293 47.5525L77.7445 42.1412C77.7534 42.0709 77.7534 41.9998 77.7445 41.9295C77.7324 41.8933 77.7106 41.8611 77.6816 41.8362C77.6525 41.8114 77.6173 41.7948 77.5796 41.7883C77.3676 41.7883 77.132 41.7883 76.9435 41.7883C76.7551 41.7883 76.7786 42.0707 76.708 42.2353C76.0719 43.9764 75.4593 45.6938 74.8232 47.4113C74.8232 47.5995 74.7054 47.7877 74.6348 47.9995C74.8059 48.0325 74.9819 48.0325 75.1531 47.9995C75.2001 47.994 75.2447 47.9758 75.2821 47.9467C75.3195 47.9177 75.3482 47.879 75.3651 47.8348V47.6231L75.5771 47.0584C75.7185 46.6584 75.7185 46.6584 76.0954 46.6584H78.4513C78.5085 46.6599 78.5639 46.6787 78.6102 46.7124C78.6564 46.746 78.6914 46.7928 78.7105 46.8467C78.7105 46.9643 78.7105 47.1055 78.8283 47.2231C78.9461 47.3407 78.9932 47.6466 79.0639 47.8348C79.0808 47.879 79.1094 47.9177 79.1468 47.9467C79.1842 47.9758 79.2288 47.994 79.2759 47.9995C79.7235 47.9995 79.8649 47.9995 79.6528 47.529C79.6528 47.6231 79.6293 47.576 79.6293 47.5525ZM78.2157 46.1173H76.0719C75.8834 46.1173 75.8598 46.1173 75.907 45.9056C75.9596 45.7295 76.0225 45.5567 76.0954 45.388C76.4017 44.494 76.7315 43.6234 77.0849 42.6588C77.2429 42.9059 77.3621 43.1757 77.4383 43.4588L78.2628 45.8115V46.0467C78.2565 46.0753 78.2397 46.1005 78.2157 46.1173Z" fill="#264FAD"/>
<path d="M175.043 47.5775C174.477 46.0247 173.912 44.4955 173.37 42.8721L173.017 41.9075C173.011 41.8763 172.999 41.8466 172.982 41.8201C172.964 41.7936 172.942 41.7708 172.915 41.7533C172.889 41.7357 172.859 41.7236 172.828 41.7178C172.797 41.7119 172.765 41.7124 172.734 41.7193H172.545C172.545 41.7193 172.545 41.7193 172.404 41.7193C172.362 41.709 172.318 41.7077 172.276 41.7154C172.233 41.7232 172.193 41.7398 172.158 41.7643C172.122 41.7887 172.092 41.8204 172.069 41.8572C172.047 41.8941 172.033 41.9353 172.027 41.9781C172.027 41.9781 172.027 41.9781 172.027 42.1192L170.025 47.6246C169.86 48.0481 169.883 48.0716 170.307 48.0716C170.731 48.0716 170.614 48.0716 170.661 47.8363C170.708 47.6011 170.873 47.2952 170.967 47.0129C170.979 46.9297 171.022 46.8541 171.088 46.8017C171.153 46.7492 171.237 46.7237 171.32 46.7306C172.137 46.7306 172.922 46.7306 173.676 46.7306C173.763 46.721 173.85 46.7415 173.923 46.7886C173.996 46.8358 174.05 46.9067 174.077 46.9894C174.077 47.2952 174.289 47.5775 174.383 47.8599C174.399 47.922 174.436 47.9768 174.487 48.0153C174.539 48.0538 174.602 48.0736 174.666 48.0716H174.854C175.09 48.0716 175.137 48.0716 175.066 47.7893C174.996 47.507 175.066 47.6716 175.043 47.5775ZM173.7 46.1424H171.344C171.344 46.1424 171.344 46.0248 171.344 45.9777L172.475 42.8721C172.922 43.8937 173.315 44.9382 173.653 46.0012C173.682 46.0427 173.698 46.0917 173.7 46.1424Z" fill="#264FAD"/>
<path d="M187.34 42.4707H190.191C190.239 42.3095 190.239 42.1379 190.191 41.9766H189.908C188.903 41.9766 187.89 41.9766 186.869 41.9766C186.807 41.9651 186.743 41.9651 186.681 41.9766C186.539 41.9766 186.492 41.9766 186.469 42.1649V48.0466C186.469 48.2584 186.469 48.2819 186.751 48.3054H190.168C190.205 48.3054 190.241 48.2906 190.267 48.2641C190.294 48.2376 190.309 48.2017 190.309 48.1643V47.8349C190.313 47.8154 190.313 47.7952 190.307 47.776C190.302 47.7568 190.292 47.7393 190.277 47.7252C190.263 47.711 190.246 47.7007 190.227 47.6952C190.207 47.6897 190.187 47.6892 190.168 47.6937H187.364C187.152 47.6937 187.128 47.6937 187.128 47.4349V45.6234C187.128 45.3646 187.128 45.341 187.435 45.3175H189.437C189.767 45.3175 189.814 45.3175 189.814 44.9411C189.814 44.5646 189.814 44.6352 189.508 44.6352H189.178C188.613 44.6352 188.024 44.6352 187.458 44.6352C186.893 44.6352 187.128 44.6352 187.128 44.3294V42.9413C187.066 42.9132 187.017 42.8615 186.993 42.7975C186.969 42.7335 186.971 42.6625 186.999 42.6001C187.027 42.5377 187.079 42.489 187.143 42.4648C187.207 42.4405 187.278 42.4426 187.34 42.4707Z" fill="#264FAD"/>
<path d="M96.0501 42.5185C96.4495 42.3417 96.8938 42.2924 97.3223 42.3773C97.8151 42.4782 98.2663 42.724 98.618 43.0831C98.8301 43.2949 98.8772 43.2949 99.1363 43.0831C99.3013 43.0831 99.3248 42.8949 99.1363 42.7773C98.7922 42.3443 98.3354 42.0144 97.816 41.8235C97.2965 41.6326 96.7345 41.5881 96.1915 41.695C95.7989 41.7616 95.4245 41.9089 95.0919 42.1276C94.7594 42.3463 94.4759 42.6316 94.2596 42.9655C93.969 43.3637 93.7716 43.822 93.6819 44.3065C93.5922 44.7911 93.6125 45.2895 93.7413 45.7652C93.8502 46.2529 94.0736 46.7077 94.3931 47.0922C94.7126 47.4768 95.1191 47.7799 95.5789 47.9768C96.0122 48.1812 96.491 48.2704 96.9689 48.2356C97.7234 48.1809 98.4298 47.845 98.9479 47.2945C99.3012 46.918 99.3012 46.8945 98.9479 46.6592C98.9071 46.6287 98.8575 46.6122 98.8065 46.6122C98.7555 46.6122 98.7059 46.6287 98.6652 46.6592C98.5965 46.7159 98.5334 46.7789 98.4767 46.8475C98.0686 47.2259 97.5394 47.4478 96.983 47.4736C96.4267 47.4995 95.8791 47.3276 95.4376 46.9886C95.1051 46.7593 94.8373 46.4483 94.6599 46.0858C94.4825 45.7232 94.4014 45.3211 94.4245 44.9182C94.4217 44.4012 94.5754 43.8954 94.8655 43.4671C95.1556 43.0389 95.5685 42.7082 96.0501 42.5185Z" fill="#264FAD"/>
<path d="M146.3 46.7056L146.135 46.8703C145.912 47.0983 145.644 47.2785 145.348 47.3998C145.052 47.5212 144.735 47.5811 144.415 47.5761C144.056 47.5662 143.703 47.4741 143.385 47.3069C143.066 47.1396 142.79 46.9018 142.578 46.6115C142.243 46.1497 142.062 45.5939 142.062 45.0234C142.062 44.453 142.243 43.8972 142.578 43.4353C142.89 42.9438 143.373 42.5852 143.934 42.4287C144.496 42.2723 145.095 42.3292 145.617 42.5884C145.889 42.726 146.136 42.909 146.347 43.1295C146.489 43.2942 146.536 43.2707 146.724 43.1295H146.936C146.936 43.1295 147.054 42.9883 146.936 42.8942C146.657 42.5342 146.3 42.2416 145.893 42.0379C145.485 41.8343 145.036 41.7249 144.58 41.7179C144.133 41.7021 143.687 41.7894 143.279 41.973C142.87 42.1566 142.51 42.4315 142.224 42.7766C141.926 43.1216 141.7 43.5227 141.56 43.9562C141.42 44.3898 141.368 44.8471 141.407 45.301C141.447 45.755 141.577 46.1964 141.79 46.5993C142.003 47.0022 142.295 47.3583 142.649 47.6467C143.212 48.1056 143.925 48.3402 144.651 48.3055C145.295 48.2802 145.915 48.0493 146.418 47.6467C146.654 47.4662 146.854 47.2427 147.007 46.9879C146.874 46.8758 146.723 46.7881 146.559 46.7292C146.546 46.7081 146.528 46.6904 146.506 46.6774C146.485 46.6644 146.46 46.6564 146.436 46.6542C146.411 46.6519 146.385 46.6553 146.362 46.6643C146.338 46.6732 146.317 46.6873 146.3 46.7056Z" fill="#264FAD"/>
<path d="M169.247 42.1182H169.059C169.014 42.1189 168.97 42.1326 168.932 42.1576C168.895 42.1827 168.865 42.218 168.847 42.2593C168.834 42.3451 168.834 42.4324 168.847 42.5181C168.423 43.6474 168.022 44.7532 167.622 45.8825C167.433 46.4001 167.221 46.9177 167.033 47.4824C166.911 47.3699 166.829 47.2215 166.797 47.0589C166.35 45.8355 165.902 44.7061 165.478 43.4122C165.337 43.0592 165.219 42.6828 165.077 42.3299C165.072 42.2829 165.054 42.2384 165.025 42.201C164.996 42.1637 164.957 42.135 164.913 42.1182H164.441V42.2593" stroke="#264FAD" stroke-width="0.3"/>
<path d="M84.8124 41.953C84.8066 41.9073 84.7843 41.8653 84.7495 41.8349C84.7148 41.8045 84.6701 41.788 84.6239 41.7883H81.2786C81.1136 41.7883 81.0901 41.7883 81.0665 42.0236V47.5995C81.0548 47.7247 81.0548 47.8508 81.0665 47.976C81.0512 47.9963 81.043 48.0211 81.043 48.0466C81.043 48.072 81.0512 48.0968 81.0665 48.1171C81.2121 48.1639 81.3686 48.1639 81.5141 48.1171C81.5474 48.1115 81.5776 48.0942 81.5992 48.0683C81.6208 48.0424 81.6324 48.0097 81.6319 47.976V45.6233C81.6203 45.5059 81.6203 45.3877 81.6319 45.2704C81.6319 45.1292 81.6319 45.0821 81.844 45.0586H83.8465C84.2234 45.0586 84.2705 45.0586 84.247 44.6351C84.2234 44.2116 84.247 44.3763 83.9643 44.3763C83.6816 44.3763 82.9748 44.3763 82.4801 44.3763H81.8675C81.6791 44.3763 81.6319 44.3763 81.6319 44.1175C81.6319 43.8587 81.6319 43.3882 81.6319 43.0117C81.6202 42.9023 81.6202 42.7918 81.6319 42.6824C81.6319 42.5412 81.6319 42.4941 81.8204 42.4706H84.1763C84.671 42.4706 84.6239 42.4706 84.6239 42.0001L84.8124 41.953Z" fill="#264FAD"/>
<path d="M195.847 41.7887C195.784 41.7781 195.721 41.7886 195.665 41.8184C195.61 41.8483 195.566 41.8958 195.54 41.9534C195.472 42.0218 195.417 42.1014 195.375 42.1886L194.15 44.212C194.15 44.212 194.15 44.4002 193.915 44.4237L193.114 43.1062L192.454 42.0475C192.454 42.0475 192.336 41.8828 192.242 41.8828C192.148 41.8828 191.842 41.8828 191.653 41.8828C191.465 41.8828 191.794 42.1886 191.865 42.3533V42.471L193.491 45.0825C193.536 45.2201 193.536 45.3684 193.491 45.506V47.8587C193.491 48.0234 193.491 48.0704 193.726 48.094C193.962 48.1175 194.197 48.094 194.197 47.6234V45.5765C194.193 45.3462 194.25 45.1188 194.362 44.9178L196.129 42.3533C196.129 42.2122 196.388 42.071 196.318 41.9534C196.247 41.8357 196.012 41.8122 195.847 41.7887Z" fill="#264FAD"/>
<path d="M114.261 41.7661C112.894 41.7661 111.528 41.7661 110.162 41.7661C109.737 41.7661 109.62 41.9308 109.737 42.3543C109.855 42.7778 109.737 42.3543 109.855 42.4719H111.669C111.787 42.4719 111.858 42.4719 111.858 42.6601V47.5773C111.845 47.7025 111.845 47.8286 111.858 47.9538V48.0714C111.94 48.1063 112.028 48.1244 112.117 48.1244C112.206 48.1244 112.294 48.1063 112.376 48.0714V42.8954C112.376 42.6131 112.376 42.566 112.706 42.566H114.284C114.496 42.566 114.543 42.566 114.543 42.3308C114.543 42.0955 114.685 41.7661 114.261 41.7661Z" fill="#264FAD"/>
<path d="M184.844 47.459H182.7C182.135 47.459 182.158 47.459 182.158 46.9179V42.2125C182.158 41.7654 182.158 41.7654 181.687 41.789C181.216 41.8125 181.498 41.789 181.475 41.9772V47.9531C181.475 47.9531 181.475 48.0942 181.663 48.1178H184.703C185.032 48.1178 185.056 48.1178 185.056 47.7413C185.056 47.5061 185.009 47.4825 184.844 47.459Z" fill="#264FAD"/>
<path d="M179.943 47.4827H177.752C177.187 47.4827 177.21 47.4827 177.21 46.9651V42.048C177.21 42.048 177.21 41.8362 177.21 41.8127C177.124 41.7771 177.032 41.7588 176.939 41.7588C176.846 41.7588 176.754 41.7771 176.668 41.8127V47.8357C176.664 47.8582 176.666 47.8814 176.672 47.9033C176.679 47.9253 176.691 47.9452 176.707 47.9614C176.724 47.9776 176.744 47.9896 176.766 47.9964C176.787 48.0032 176.811 48.0046 176.833 48.0003H180.108C180.149 47.9245 180.171 47.8396 180.171 47.7533C180.171 47.667 180.149 47.5821 180.108 47.5063C180.108 47.5063 179.967 47.4827 179.943 47.4827Z" fill="#264FAD"/>
<path d="M137.538 47.4827H135.347C134.781 47.4827 134.805 47.4827 134.805 46.9651V42.048C134.805 42.048 134.805 41.8362 134.805 41.8127C134.719 41.7771 134.627 41.7588 134.534 41.7588C134.441 41.7588 134.349 41.7771 134.263 41.8127V47.8357C134.259 47.8582 134.26 47.8814 134.267 47.9033C134.274 47.9253 134.286 47.9452 134.302 47.9614C134.318 47.9776 134.338 47.9896 134.36 47.9964C134.382 48.0032 134.405 48.0046 134.428 48.0003H137.703C137.744 47.9245 137.766 47.8396 137.766 47.7533C137.766 47.667 137.744 47.5821 137.703 47.5063C137.703 47.5063 137.561 47.4827 137.538 47.4827Z" fill="#264FAD"/>
<path d="M132.118 41.7661C131.93 41.7661 131.906 41.7661 131.883 41.9779V47.5773C131.871 47.6947 131.871 47.8129 131.883 47.9302V48.0479C131.965 48.0828 132.053 48.1008 132.142 48.1008C132.231 48.1008 132.319 48.0828 132.401 48.0479C132.401 48.0479 132.401 48.0479 132.401 47.9302C132.412 47.8601 132.412 47.7886 132.401 47.7185V42.1425C132.495 41.7896 132.472 41.7661 132.118 41.7661Z" fill="#264FAD"/>
<path d="M139.893 42.0001C139.893 41.8354 139.893 41.7883 139.657 41.7883C139.422 41.7883 139.233 41.7883 139.233 42.1883V47.6936C139.22 47.7794 139.22 47.8667 139.233 47.9524V48.0701C139.315 48.105 139.403 48.123 139.492 48.123C139.582 48.123 139.67 48.105 139.752 48.0701C139.752 48.0701 139.752 48.0701 139.752 47.9524C139.763 47.8351 139.763 47.7169 139.752 47.5995V42.0001H139.893Z" fill="#264FAD"/>
<path d="M91.8799 41.7661C91.7385 41.7661 91.6914 41.7661 91.6914 41.9543V47.7185C91.6914 48.0714 91.6914 48.0949 92.0448 48.0949C92.101 48.0949 92.155 48.0726 92.1947 48.0329C92.2345 47.9932 92.2568 47.9393 92.2568 47.8832V42.1425C92.3511 41.7896 92.3039 41.7661 91.8799 41.7661Z" fill="#264FAD"/>
<path d="M159.747 41.7788C159.701 41.7845 159.659 41.8069 159.629 41.8416C159.598 41.8763 159.582 41.9209 159.582 41.967C159.57 42.0921 159.57 42.2182 159.582 42.3434V46.7195L159.276 46.4842C158.404 45.2137 157.532 43.8727 156.684 42.5316L156.284 41.9434C156.052 41.7984 155.777 41.74 155.506 41.7788C155.484 41.9427 155.484 42.1089 155.506 42.2728V47.9193C155.506 48.0605 155.506 48.1076 155.718 48.1076C155.93 48.1076 156.166 48.1076 156.166 47.6841V43.308L157.203 44.8608L159.158 47.9193C159.201 47.9933 159.263 48.0542 159.337 48.0957C159.412 48.1371 159.497 48.1575 159.582 48.1546C160.218 48.1311 160.218 48.1311 160.218 47.6841V42.2022C160.218 41.7788 160.218 41.7788 159.747 41.7788Z" fill="#264FAD"/>
</svg>
