<svg width="765" height="421" viewBox="0 0 765 421" fill="none" xmlns="http://www.w3.org/2000/svg">
<mask id="mask0_3602_2479" style="mask-type:alpha" maskUnits="userSpaceOnUse" x="0" y="-89" width="765" height="600">
<path fill-rule="evenodd" clip-rule="evenodd" d="M764.539 -89H0V511H764.539V-89ZM628.161 31.7897C629.587 37.9678 630.439 44.27 630.703 50.6113V356.464C630.918 366.385 629.75 376.286 627.237 385.873C622.643 403.349 613.396 419.19 600.517 431.647C587.643 444.103 571.633 452.688 554.265 456.455H548.493H546.875H221.282C220.966 456.269 220.607 456.171 220.239 456.171C219.875 456.171 219.516 456.269 219.2 456.455C209.456 454.859 200.022 451.682 191.259 447.044C170.134 436.176 153.689 417.745 145.074 395.284C141.288 386.186 139.178 376.457 138.843 366.581H137.225V47.5528H138.843C139.254 37.5112 141.446 27.6282 145.309 18.3792C149.86 5.83836 157.12 -5.49892 166.554 -14.794C179.51 -28.2584 196.04 -37.5793 214.122 -41.6151C221.727 -43.1021 229.471 -43.7333 237.215 -43.4972H537.409C558.52 -43.0364 578.865 -35.3265 595.138 -21.6169C611.688 -8.06711 623.308 10.7323 628.161 31.7897ZM520.782 296C520.409 295.015 520.409 293.925 520.782 292.941C521.864 290.075 521.945 286.92 521.012 284.001V279.295C521.265 278.331 521.332 277.329 521.213 276.345C521.17 275.992 521.103 275.641 521.012 275.296L520.839 274.985C519.968 273.421 519.049 271.766 517.317 271.766C516.637 271.766 516.24 271.766 515.929 271.918C515.393 272.179 515.11 272.89 514.086 274.825C512.469 277.883 510.162 280.236 508.774 283.295C508.487 284.106 508.027 284.842 507.429 285.452C506.831 286.062 506.108 286.53 505.313 286.824L499.537 289.412C498.546 289.749 497.641 290.303 496.885 291.034C496.34 291.557 495.885 292.162 495.531 292.826C495.387 293.091 495.263 293.365 495.153 293.647C494.009 296.999 494.009 300.646 495.153 303.999C495.287 304.599 495.368 305.208 495.397 305.819C495.445 306.785 495.363 307.755 495.153 308.704L493.765 311.998C492.487 315.251 492.071 318.788 492.559 322.257C493.042 325.725 494.416 329.003 496.536 331.761C496.914 332.394 497.412 332.946 498 333.383C498.589 333.821 499.254 334.136 499.963 334.311C500.671 334.486 501.408 334.517 502.126 334.402C502.844 334.287 503.533 334.029 504.155 333.643H505.773C509.927 333.172 512.698 330.349 512.698 326.82L513.857 323.291L518.011 307.057C519.289 303.472 520.212 299.768 520.782 296ZM523.553 180.952C525.118 178.126 526.358 175.126 527.248 172.011C527.626 170.296 527.545 168.509 527.018 166.836C526.97 166.527 526.851 166.233 526.678 165.976C526.506 165.719 526.276 165.503 526.013 165.346C525.75 165.188 525.453 165.093 525.147 165.065C524.84 165.038 524.534 165.08 524.247 165.188H522.859C519.102 166.784 515.134 167.814 511.085 168.247C507.936 168.496 504.773 168.575 501.619 168.482C497.689 169.188 495.153 167.777 495.153 164.012C494.751 162.045 493.789 160.243 492.382 158.836C491.228 157.738 490.099 156.615 488.969 155.491C486.71 153.242 484.451 150.994 481.986 148.955C479.622 147.295 477.837 144.903 476.908 142.132C476.066 138.606 474.219 135.413 471.596 132.956C470.998 132.347 470.486 131.661 470.069 130.916C469.854 130.531 469.662 130.131 469.5 129.717C469.026 128.504 468.796 127.205 468.825 125.898C468.82 121.22 466.997 116.735 463.747 113.429C462.723 112.447 461.933 111.24 461.435 109.9C460.421 106.377 458.86 103.042 456.817 100.018C455.663 97.6655 454.969 93.9013 453.816 92.725C452.662 91.5486 452.662 90.1368 453.816 90.1368C454.467 89.714 455.017 89.1519 455.434 88.49C456.577 85.057 456.577 81.3358 455.434 77.9028C455.434 77.5267 455.457 77.3189 455.481 77.1027C455.534 76.6425 455.591 76.1439 455.434 73.9031C455.204 70.6094 453.586 70.6094 451.274 70.6094H442.731C440.037 69.6773 437.113 69.6773 434.418 70.6094C431.824 71.6695 428.928 71.6695 426.334 70.6094L409.713 66.3744C407.903 66.0837 406.219 65.2666 404.86 64.0218C403.993 63.1545 402.921 62.527 401.753 62.1977C400.581 61.8684 399.346 61.8484 398.164 62.1397H394.239C393.201 62.4771 392.287 63.1321 391.626 64.016C390.966 64.9001 390.588 65.9699 390.545 67.0802C390.77 68.4038 390.77 69.7566 390.545 71.08C390.109 72.2563 389.673 72.6974 389.07 72.8627C388.712 72.9621 388.29 72.9621 387.773 72.9621C387.008 73.0983 386.228 73.0983 385.462 72.9621L376.689 69.4331C375.88 69.2511 375.129 68.8802 374.487 68.3492C373.846 67.8182 373.334 67.1421 372.994 66.3744C372.64 65.5047 372.075 64.7434 371.343 64.1658C371.027 63.9133 370.683 63.6997 370.319 63.528C369.85 63.3071 369.347 63.1559 368.835 63.0807L361.68 61.6692C358.555 60.9634 355.525 59.8567 352.673 58.3752H351.29V57.1989C351.213 56.6526 351.213 56.0983 351.29 55.5521C351.72 55.2849 352.113 54.9572 352.448 54.5799C352.615 54.3927 352.768 54.1929 352.912 53.9823C353.156 53.6134 353.357 53.2155 353.505 52.7983C353.616 52.4981 353.702 52.1879 353.754 51.8714C353.884 51.1145 353.855 50.338 353.668 49.5934C353.486 48.8487 353.142 48.1532 352.673 47.5528C352.429 46.7888 352.429 45.9643 352.673 45.1999L352.922 44.9905C354.113 43.9878 354.491 43.671 354.061 41.9063C353.596 40.0242 350.596 40.0242 350.596 40.0242C349.796 39.4133 348.825 39.0831 347.824 39.0831C346.824 39.0831 345.853 39.4133 345.053 40.0242C341.737 41.3073 338.209 41.9459 334.663 41.9063C332.299 41.4368 329.867 41.4368 327.503 41.9063H324.268C315.361 42.0988 306.641 44.523 298.868 48.9644C297.045 50.0409 294.972 50.609 292.867 50.6113C288.889 51.2763 284.807 50.7872 281.088 49.1997C280.83 48.8992 280.509 48.6587 280.15 48.4939C279.791 48.3291 279.403 48.2439 279.011 48.2439C278.619 48.2439 278.226 48.3291 277.872 48.4939C277.513 48.6587 277.192 48.8992 276.929 49.1997C276.398 49.9851 276.005 50.8618 275.776 51.7876C274.866 53.524 273.608 55.0466 272.081 56.2578L268.156 59.5515C264.677 62.1691 262.159 65.8956 260.996 70.1389C260.771 71.6201 260.771 73.1277 260.996 74.6089C261.011 75.4068 260.92 76.1991 260.724 76.9646C260.532 77.7122 260.245 78.4344 259.862 79.1102C259.087 80.4777 257.962 81.6055 256.612 82.3728L248.529 88.2547C247.854 88.8215 247.237 89.4515 246.681 90.1368C246.021 90.9586 245.36 91.7564 244.71 92.5457C243.307 94.2425 241.934 95.8991 240.675 97.6655C239.852 99.0307 239.301 100.551 239.062 102.136C237.085 107.155 234.769 112.028 232.132 116.723C231.447 117.982 231.084 119.399 231.084 120.84C231.084 122.281 231.447 123.698 232.132 124.957C233.496 127.887 233.974 131.16 233.52 134.368C233.137 139.366 231.806 144.241 229.595 148.719L227.284 151.072C227.087 151.249 226.929 151.466 226.824 151.709C226.714 151.953 226.657 152.217 226.657 152.484C226.657 152.751 226.714 153.015 226.824 153.258C226.929 153.502 227.087 153.719 227.284 153.896C227.719 154.292 228.102 154.741 228.423 155.232C228.633 155.55 228.815 155.886 228.973 156.236C229.37 157.127 229.581 158.093 229.595 159.072C229.825 160.727 230.428 162.308 231.347 163.693C231.869 164.477 232.481 165.187 233.175 165.807C233.706 166.283 234.286 166.707 234.903 167.071C237.444 169.423 239.751 172.011 242.293 174.599C243.982 176.228 245.389 178.138 246.452 180.246C246.997 181.554 247.72 182.771 248.591 183.865C249.256 184.695 250.008 185.455 250.836 186.128C256.833 191.064 263.337 195.324 270.233 198.832C271.09 199.286 272.043 199.523 273.005 199.523C273.971 199.523 274.919 199.286 275.776 198.832C279.399 197.502 283.266 197.02 287.09 197.421H293.096C296.255 197.579 299.414 197.017 302.333 195.774L309.723 193.421C312.489 192.511 315.361 191.958 318.266 191.774C319.53 191.395 320.884 191.468 322.104 191.982C323.32 192.496 324.33 193.419 324.962 194.597C325.416 195.588 325.957 196.532 326.579 197.421C327.053 198.216 327.738 198.859 328.556 199.275C329.374 199.692 330.288 199.864 331.198 199.773H339.741C340.966 199.945 342.086 200.565 342.895 201.518C343.704 202.471 344.139 203.69 344.13 204.949C344.245 206.437 344.245 207.932 344.13 209.419C343.665 212.243 342.282 215.066 342.282 217.889C341.593 219.877 341.488 222.027 341.976 224.075C342.469 226.123 343.541 227.98 345.053 229.418L348.054 232.241C350.313 234.523 352.328 237.048 354.061 239.769C356.157 244.452 357.779 249.339 358.909 254.356C359.091 257.238 359.632 260.085 360.527 262.826C360.914 263.458 361.206 264.142 361.398 264.855C361.565 265.495 361.651 266.157 361.651 266.826C361.651 268.24 361.264 269.627 360.527 270.825L357.755 275.06C354.219 282.345 352.855 290.523 353.826 298.587C353.922 299.543 354.123 300.483 354.415 301.391C354.683 302.212 355.027 303.006 355.444 303.763L358.909 309.41C362.345 313.989 364.93 319.172 366.528 324.702L368.605 338.583C369.027 341.008 370.06 343.28 371.606 345.171C375.186 349.849 378.139 354.992 380.384 360.464C381.915 363.51 382.557 366.939 382.231 370.345C382.116 370.888 382.116 371.449 382.231 371.992C382.26 373.074 382.499 374.138 382.935 375.126C383.366 376.113 383.988 377.004 384.758 377.747C385.534 378.49 386.443 379.07 387.434 379.455C388.424 379.841 389.482 380.023 390.545 379.991C392.153 380.22 393.785 380.22 395.393 379.991L401.629 378.815C404.773 378.485 407.947 378.485 411.096 378.815C414.527 378.948 417.949 378.299 421.103 376.915C424.262 375.532 427.072 373.448 429.34 370.816C434.346 365.264 438.979 359.368 443.196 353.17C446.637 348.755 448.508 343.281 448.503 337.642C448.422 336.871 448.604 336.094 449.03 335.449C449.226 335.151 449.465 334.891 449.738 334.675C450.054 334.422 450.418 334.23 450.815 334.113C452.098 333.323 453.5 332.766 454.969 332.466C455.864 332.239 456.678 331.768 457.329 331.105C457.673 330.757 457.961 330.361 458.19 329.933C458.401 329.547 458.559 329.133 458.664 328.702C459.588 324.837 459.588 320.804 458.664 316.938C458.066 315.964 457.779 314.989 457.64 314.047C457.511 313.17 457.511 312.321 457.511 311.527C457.262 310.719 457.18 309.874 457.267 309.044C457.329 308.455 457.472 307.874 457.697 307.32C458.248 305.984 459.248 304.891 460.511 304.234C460.818 303.999 461.229 303.816 461.641 303.633C462.464 303.267 463.283 302.901 463.283 302.116C464.106 300.794 465.135 299.634 466.312 298.672C467.853 297.416 469.653 296.498 471.596 296C474.774 294.88 477.507 292.735 479.383 289.891C481.259 287.046 482.173 283.657 481.986 280.236C481.527 275.936 481.527 271.597 481.986 267.296C482.135 266.292 482.063 265.268 481.785 264.293C481.508 263.319 481.024 262.417 480.374 261.65C478.703 260.028 477.645 257.865 477.368 255.533C476.932 252.168 476.157 248.857 475.061 245.651C474.716 245.043 474.535 244.353 474.535 243.652C474.535 243.162 474.625 242.678 474.798 242.223C474.87 242.026 474.956 241.835 475.061 241.652C477.334 236.808 480.125 232.232 483.374 228.006C489.74 220.146 497.029 213.113 505.079 207.067C509.291 203.998 512.828 200.072 515.469 195.538C516.738 193.068 518.121 190.657 519.504 188.246C520.892 185.834 522.28 183.422 523.553 180.952Z" fill="#FF3030"/>
</mask>
<g mask="url(#mask0_3602_2479)">
<path d="M176.434 -7.18164H588.109V411H176.434V-7.18164Z" fill="black" fill-opacity="0.11"/>
</g>
</svg>
