<?xml version="1.0" encoding="utf-8"?>
<!-- Generator: Adobe Illustrator 21.1.0, SVG Export Plug-In . SVG Version: 6.00 Build 0)  -->
<svg version="1.1" id="Слой_1" xmlns="http://www.w3.org/2000/svg" xmlns:xlink="http://www.w3.org/1999/xlink" x="0px" y="0px"
	 viewBox="0 0 3200 2000" style="enable-background:new 0 0 3200 2000;" xml:space="preserve">
<style type="text/css">
	.st0{fill:#EBF3FA;}
	.st1{fill:#C8DBF4;}
	.st2{fill:#D4E4F8;}
	.st3{fill:#9FC1F4;}
	.st4{fill:#8CB4F4;}
	.st5{fill:#9ABFE2;}
	.st6{fill:#BAD4F4;}
	.st7{fill:#DFEBFD;}
	.st8{fill:#B7D3F3;}
	.st9{fill:#C0D8FB;}
	.st10{fill:#0E50AF;}
	.st11{fill:#FFB27D;}
	.st12{fill:#0F2549;}
	.st13{fill:#115DB7;}
	.st14{fill:#233862;}
	.st15{fill:#ED975D;}
	.st16{fill:#FFFFFF;}
	.st17{fill:#EBF3FF;}
	.st18{fill:#ED7D2B;}
	.st19{fill:#F99746;}
	.st20{fill:#1B3254;}
	.st21{fill:#2E3552;}
	.st22{fill:#1B3051;}
	.st23{fill:#73A2E5;}
</style>
<title>interview</title>
<path class="st0" d="M417.7,1799.3c0,0-336.3-405.1-172-822.3c107.1-271.9,509-420.8,735.8-271.9c96.6,63.5,406.5,2.1,572-260.5
	C1875.1-65.8,2997.4,244.2,2793,1027.9c-98.9,379.3,300.9,393,97.2,772.2L417.7,1799.3z"/>
<path class="st1" d="M666.7,1132.5c0,0-33.9-39.6-2.1-64.7c0,0,23.3-14.1,42.2-12.9c0,0-26.9,45-18.2,49.5s26.3-52.4,26.3-52.4
	s52.9-5.1,69.9,3.1c0,0-45.2,37-35.7,39.2s58.4-34.1,58.4-34.1s49.2,8.4,46.6,38.4s-19.6,39.3-27,38.5s-51.1-17.4-52-11.3
	s25.3,26.1,43.7,27c0,0-34.7,38.3-57.8,27.2s-25-28.6-39.4-35.1s-26.7-6.6-20.7,0.2s32,13.2,40.2,27.8s15.6,24.4-8.3,20.8
	s-62.7-21.1-64.4-41.1L666.7,1132.5z"/>
<path class="st1" d="M830,1099.4c0,0-133.7-5.2-163.3,33.1c0,0-6.5,19.6-26.6,37.4l-3.1,8.5c0,0,23.2-24.4,31.5-25.9
	C668.4,1152.5,655.4,1105.1,830,1099.4z"/>
<path class="st1" d="M640,1169.9c0,0-28.7,21.2-30.7,59.2l5.2,0.5c0,0,9.2-39.2,25.7-54.6S640,1169.9,640,1169.9z"/>
<path class="st1" d="M548.1,1082.7c0,0,54-30.2,28.8-71.2c0,0-20.1-25.2-41.7-31.7c0,0,11.5,61.2,0,62.6s-7.9-69.1-7.9-69.1
	s-56.8-27.4-79.1-25.2c0,0,35.3,59.7,23.7,58.3s-51.1-61.9-51.1-61.9s-58.3-10.8-67.6,23.7s5.8,51.8,14.4,54s64,1.4,62.6,8.6
	c-1.4,7.2-38.9,18.7-59.7,12.2c0,0,23,56.8,53.2,54s39.6-21.6,58.3-23s32.4,3.6,23,8.6s-41,1.7-56.1,14.5s-27.3,20.8,0.7,26.5
	s78.4,2.2,88.5-19.4L548.1,1082.7z"/>
<path class="st1" d="M379.7,979.1c0,0,151.1,48.9,168.3,103.6c0,0-0.7,24.5,14.4,52.5v10.8c0,0-15.8-36.7-24.5-41.7
	C538,1104.3,571.8,1056.8,379.7,979.1z"/>
<path class="st1" d="M562.5,1135.2c0,0,23.3,35.4,10,78.4l-6-1.6c0,0,5.8-47.4-6.4-71.3S562.5,1135.2,562.5,1135.2z"/>
<path class="st2" d="M633.9,1041.1c0,0-71.1-39.8-37.9-93.9c0,0,26.5-33.2,55-41.7c0,0-15.2,80.6,0,82.5s10.4-91,10.4-91
	s74.9-36,104.3-33.2c0,0-46.5,78.7-31.3,76.8s67.3-81.6,67.3-81.6s76.8-14.2,89.1,31.3s-7.6,68.3-19,71.1s-84.4,1.9-82.5,11.4
	s51.2,24.7,78.7,16.1c0,0-30.3,74.9-70.2,71.1s-52.2-28.4-76.8-30.3s-42.7,4.7-30.3,11.4s54.1,2.2,74,19.1s36,27.4-1,34.9
	s-103.4,2.9-116.6-25.6L633.9,1041.1z"/>
<path class="st2" d="M855.8,904.5c0,0-199.2,64.5-221.9,136.6c0,0,1,32.2-19,69.2v14.2c0,0,20.9-48.4,32.2-55
	C647.2,1069.5,602.6,1006.9,855.8,904.5z"/>
<path class="st2" d="M615,1110.3c0,0-30.7,46.6-13.2,103.4l7.9-2.1c0,0-7.7-62.5,8.4-94S615,1110.3,615,1110.3z"/>
<path class="st2" d="M631.5,1336.8c76.9,0,139.3-62.4,139.3-139.3l0,0H492.2C492.2,1274.4,554.6,1336.8,631.5,1336.8z"/>
<path class="st2" d="M507.5,1326.7h248.1c9.5,0,17.2,7.7,17.2,17.2l0,0l0,0H490.3l0,0l0,0C490.3,1334.4,498,1326.7,507.5,1326.7z"/>
<rect x="487.6" y="1197.5" class="st3" width="286.4" height="4.3"/>
<path class="st4" d="M1350.4,1796.4h0.7c5.6-0.1,10-4.7,9.4-10l-37.6-375.1l-32.8,2.9l53.9,377.1
	C1344.7,1794.3,1347.4,1796.5,1350.4,1796.4z"/>
<path class="st4" d="M988.8,1796.4h-0.7c-5.6-0.1-10-4.7-9.5-10l37.6-375.1l32.8,2.9l-53.9,377.1
	C994.6,1794.3,991.9,1796.5,988.8,1796.4z"/>
<path class="st4" d="M1615.4,1796.4h0.7c5.6-0.1,10-4.7,9.4-10l-37.5-375.1l-32.8,2.9l53.9,377.1
	C1609.7,1794.3,1612.3,1796.5,1615.4,1796.4z"/>
<path class="st4" d="M1000,1356.7l-66.7-329.2c-8.6-44.6,28.4-85.3,76.3-84.2l128.6,2.9c44.4,1,82.9,30.7,95.2,73.3l97.5,337.2H1000
	z"/>
<path class="st4" d="M1040.3,1356.7l-66.7-329.2c-8.6-44.5,28.4-85.3,76.3-84.2l128.6,2.9c44.4,1,82.9,30.7,95.2,73.3l97.5,337.2
	H1040.3z"/>
<path class="st4" d="M1527.3,1416.8h-508.7c-10.3,0-18.6-8.3-18.6-18.6v-41.5l0,0h527.2c10.3,0,18.6,8.3,18.6,18.6l0,0v22.9
	C1545.8,1408.5,1537.5,1416.8,1527.3,1416.8L1527.3,1416.8z"/>
<path class="st4" d="M1581.6,1416.8h-324.3c-8.3,0-15-6.7-15-15v-30.1c0-8.3,6.7-15,15-15h324.3c8.3,0,15,6.7,15,15v30.1
	C1596.5,1410.1,1589.8,1416.8,1581.6,1416.8z"/>
<path class="st5" d="M848.2,1352.4v11.2c0,3.9-1.3,7.1-2.8,7.1H435.6c-1.5,0-2.8-3.2-2.8-7.1v-11.2c0-3.9,1.3-7.1,2.8-7.1h409.8
	C847,1345.3,848.2,1348.5,848.2,1352.4z"/>
<path class="st6" d="M848.2,1352.4v11.2c0,3.9-1.2,7.1-2.6,7.1H520.3c-1.4,0-2.6-3.2-2.6-7.1v-11.2c0-3.9,1.2-7.1,2.6-7.1h325.4
	C847.1,1345.3,848.2,1348.5,848.2,1352.4z"/>
<rect x="453.5" y="1370.8" class="st1" width="291" height="424.1"/>
<rect x="535.1" y="1370.8" class="st7" width="291" height="424.1"/>
<path class="st8" d="M810.4,1771.5H550.7v-388.7h259.7V1771.5z M553.5,1768.7h254.1v-383.1H553.5V1768.7z"/>
<rect x="552.1" y="1511.4" class="st8" width="256.9" height="2.8"/>
<rect x="552.1" y="1642.5" class="st8" width="256.9" height="2.8"/>
<path class="st8" d="M706.9,1407.9h-47.7c-2.3,0-4.2-1.9-4.2-4.2l0,0c0-2.3,1.9-4.2,4.2-4.2h47.7c2.3,0,4.2,1.9,4.2,4.2l0,0
	C711.1,1406,709.2,1407.9,706.9,1407.9z"/>
<path class="st8" d="M706.9,1536.1h-47.7c-2.3,0-4.2-1.9-4.2-4.2l0,0c0-2.3,1.9-4.2,4.2-4.2h47.7c2.3,0,4.2,1.9,4.2,4.2l0,0
	C711.1,1534.2,709.2,1536.1,706.9,1536.1z"/>
<path class="st8" d="M706.9,1669.7h-47.7c-2.3,0-4.2-1.9-4.2-4.2l0,0c0-2.3,1.9-4.2,4.2-4.2h47.7c2.3,0,4.2,1.9,4.2,4.2l0,0
	C711.1,1667.8,709.2,1669.7,706.9,1669.7z"/>
<path class="st9" d="M1806.1,399.5h184.4c8.5,0,15.4,6.9,15.4,15.4v178c0,8.5-6.9,15.4-15.4,15.4h-184.4c-8.5,0-15.4-6.9-15.4-15.4
	v-178C1790.7,406.4,1797.6,399.5,1806.1,399.5z"/>
<path class="st7" d="M1814.1,408.5h168.5c7.8,0,14.1,6.3,14.1,14.1v162.6c0,7.8-6.3,14.1-14.1,14.1h-168.5
	c-7.8,0-14.1-6.3-14.1-14.1V422.6C1800,414.8,1806.3,408.5,1814.1,408.5z"/>
<circle class="st8" cx="1898.3" cy="427.6" r="4.5"/>
<ellipse transform="matrix(0.4857 -0.8741 0.8741 0.4857 613.3041 1914.4469)" class="st8" cx="1933.6" cy="436" rx="4.5" ry="4.5"/>
<ellipse transform="matrix(0.8404 -0.542 0.542 0.8404 62.8461 1137.7831)" class="st8" cx="1963.2" cy="462.2" rx="4.5" ry="4.5"/>
<circle class="st8" cx="1975.9" cy="500.7" r="4.5"/>
<ellipse transform="matrix(0.7071 -0.7071 0.7071 0.7071 191.3007 1548.5927)" class="st8" cx="1965" cy="543.4" rx="4.5" ry="4.5"/>
<ellipse transform="matrix(0.7071 -0.7071 0.7071 0.7071 163.244 1537.037)" class="st8" cx="1937" cy="571.5" rx="4.5" ry="4.5"/>
<circle class="st8" cx="1898.3" cy="582.8" r="4.5"/>
<ellipse transform="matrix(0.8741 -0.4857 0.4857 0.8741 22.6592 959.6654)" class="st8" cx="1862.8" cy="436.1" rx="4.5" ry="4.5"/>
<ellipse transform="matrix(0.5421 -0.8403 0.8403 0.5421 451.2034 1752.2329)" class="st8" cx="1833.4" cy="462.1" rx="4.5" ry="4.5"/>
<circle class="st8" cx="1820.6" cy="500.7" r="4.5"/>
<ellipse transform="matrix(0.7071 -0.7071 0.7071 0.7071 152.1838 1454.2163)" class="st8" cx="1831.5" cy="543.4" rx="4.5" ry="4.5"/>
<ellipse transform="matrix(0.7071 -0.7071 0.7071 0.7071 140.5288 1482.251)" class="st8" cx="1859.5" cy="571.5" rx="4.5" ry="4.5"/>
<circle class="st8" cx="1901.6" cy="500.7" r="4.5"/>
<rect x="1900.9" y="445" class="st8" width="1.2" height="55.7"/>
<rect x="1897" y="487.4" transform="matrix(0.7866 -0.6174 0.6174 0.7866 106.7055 1287.1825)" class="st8" width="37.5" height="3.6"/>
<path class="st10" d="M1443.1,1287.8c-27.5,47.9-62.1,66.4-62.1,66.4h-144C1237,1354.2,1464.1,1251.3,1443.1,1287.8z"/>
<path class="st11" d="M1620.7,1763.7c-1.6,15.1,19.5,19,43.8,20.5s16.9,6.4,50.3,12.8s46.8-2.6,49.3-7.1c2.2-4-13.3-10.4-29.8-17.7
	c-2.1-0.9-4.2-1.8-6.2-2.8c-18.6-8.4-28.8-25.2-43.2-40.9c-13.6-14.8-26.2-62-26.2-62l-45.3-10.2c0,0,12.3,42.4,16.5,60.5
	c2.5,10.7-1.5,22.5-5,31.5C1623.2,1753.3,1621.3,1758.3,1620.7,1763.7z"/>
<path class="st12" d="M1664.6,1784.2c24.4,1.5,16.9,6.4,50.3,12.8s46.8-2.6,49.3-7.1c2.2-4-13.3-10.4-29.8-17.7l-0.3,0.3
	c-16.6,4.6-34.1,4.6-50.6,0.1c-22-6.2-43.3-19.7-58.5-24.1c-1.9,4.9-3.8,9.9-4.3,15.2C1619.2,1778.8,1640.2,1782.7,1664.6,1784.2z"
	/>
<path class="st10" d="M1552.1,1238.8c-24.4-17.1-185.6-47.6-267.9-56.5l-91-79c0,0-77.4,114.7-78,202.4c-0.3,40.9,18.6,45,18.6,45
	s291.6,2.2,304.4,3.5c20.9,2.2,48.5,54.3,55.4,101.8s128.5,240.6,128.5,240.6s25.4,8.1,37.1,7.4c12.6-0.7,18.4-5,18.4-5
	S1607.1,1277.4,1552.1,1238.8z"/>
<path class="st11" d="M1545.3,1763.7c-1.6,15.1,19.5,19,43.8,20.5s16.9,6.4,50.3,12.8s46.8-2.6,49.3-7.1c2.2-4-13.3-10.4-29.8-17.7
	c-2.1-0.9-4.2-1.8-6.2-2.8c-18.6-8.4-28.8-25.2-43.2-40.9c-13.6-14.8-26.2-62-26.2-62l-45.3-10.2c0,0,12.3,42.4,16.5,60.5
	c2.5,10.7-1.5,22.5-5,31.5C1547.8,1753.3,1545.8,1758.3,1545.3,1763.7z"/>
<path class="st12" d="M1589.1,1784.2c24.4,1.5,16.9,6.4,50.3,12.8s46.8-2.6,49.3-7.1c2.2-4-13.3-10.4-29.8-17.7l-0.3,0.3
	c-16.6,4.6-34.1,4.6-50.6,0.1c-22-6.2-43.3-19.7-58.5-24.1c-1.9,4.9-3.8,9.9-4.3,15.2C1543.8,1778.8,1564.8,1782.7,1589.1,1784.2z"
	/>
<path class="st13" d="M1476,1238.8c-21.2-14.9-84.9-26.4-155.2-35c-19.4-2.4-35.4-16.5-40.2-35.5l0,0l-163.6-65
	c0,0-77.4,114.7-78,202.4c-0.3,40.9,18.6,45,18.6,45s291.6,2.2,304.4,3.5c20.9,2.2,48.5,54.3,55.4,101.8s128.5,240.5,128.5,240.5
	s25.4,8.1,37.1,7.4c12.6-0.7,18.4-5,18.4-5S1531,1277.4,1476,1238.8z"/>
<path class="st14" d="M1257.2,626.9c-22.5-11.8-56.7-13.4-62.2-14.1c-66.5-8.9-106.5,87.7-108.8,116.9c-4.3,54-32.9,62.2-73,96
	c-80.5,67.8-56.9,146.5-12.9,175.7c26.4,17.5,73,0,73,0c0.7,0.5,127.4-70.8,189.9-105.3C1356.7,882.8,1314.4,657,1257.2,626.9z"/>
<path class="st11" d="M1243.3,862.9c0.3,0.2-29.5,13.7-51.1,6.6c-20.3-6.7-38.1-37.2-37.8-37.2c8.8-1.3,17.7-10,20.2-61.3l3.9,1
	l65.5,16.5c0,0-2.6,20.7-3.7,40.3C1239.4,845.3,1239.6,861,1243.3,862.9z"/>
<path class="st15" d="M1244,788.5c0,0,0,4.3-2.4,23.6c-37-9.3-53.3-21.6-64.9-35.7L1244,788.5z"/>
<path class="st11" d="M1257.9,791.1c0,0-86.6,14.1-94.5-40s-24.5-88.6,30.5-99.9s68.7,7.8,75.8,25.2S1280.3,786,1257.9,791.1z"/>
<path class="st14" d="M1258,649c0,0-39.3,62.1-74.4,76.8s-52.3,7.2-52.3,7.2c10.5-17.3,17.4-36.6,20.1-56.7
	c1.2-9.6,7.5-17.8,16.4-21.4C1193,644.8,1241.8,628.9,1258,649z"/>
<path class="st14" d="M1223.5,655c0,0,23,11.8,32.5,22.9c9.2,10.7,19.7,39.7,19,52.7c0,0,11.4-62.4-12.3-83.8
	C1237.6,624,1223.5,655,1223.5,655z"/>
<path class="st16" d="M1312.5,995c-2.6,176-0.7,139.2-20,155.9c-4.6,4-17.7,6.4-34.8,7.6c-54,3.6-148.8-5.3-152.4-15.3
	c-12.4-34.5-3.7-45.2-14-98.1c-1.1-5.6-2.4-11.7-4-18.3c-8.7-36.3-17.1-48.6,13.6-106.9c27.9-52.8,60.6-95.7,63.2-94.2
	c73.5,43.6,76,7.1,76,7.1S1313.8,909.1,1312.5,995z"/>
<path class="st16" d="M1240.1,832.8c0,0,75.2,12.8,84.1,45.3s61.1,224,61.1,224s-38.4,6.9-56.2-10.8s-61.8-164.8-61.8-164.8
	L1240.1,832.8z"/>
<path class="st17" d="M1257.7,1158.4c-54,3.6-148.8-5.3-152.4-15.3c-12.4-34.5-3.7-45.2-14-98.1l26-73.3c0,0-4.3,81.6,19.8,103.1
	s98.5,41.4,110.2,59.4C1252.9,1142.9,1256.7,1151.5,1257.7,1158.4z"/>
<path class="st11" d="M1195.9,1124.1c0,0,53.2-11.8,61.8-7.1s29.6,21.9,32.2,27.9s-19.1-4.5-26.2-6.4c-4.6-1.2-16.6,3-22.6,5
	c-25.1,8.4-40.5,4.1-40.5,4.1L1195.9,1124.1z"/>
<path class="st16" d="M1164.1,825.7c0,0-75.3,4.4-100.1,38.9c-34.8,48.6-103.9,255.6-64.3,283.2c44.6,31.1,203,8.1,203,8.1
	s5.3-24.6-2.1-36.6s-126.5-31.2-132-36.7s68.8-107.3,68.8-123.8S1164.1,825.7,1164.1,825.7z"/>
<path class="st11" d="M1260.3,1131.8c0,0,11.2,14.4,14.8,16.1s6,1.3,6,1.3l-7.5-13.5L1260.3,1131.8z"/>
<path class="st11" d="M1257.7,1117l32.4,15.8c0,0-1.4,2.3-5.4,2.1s-14.1-3.9-14.1-3.9L1257.7,1117z"/>
<path class="st18" d="M1377.2,1154.3h-150.6c0-6.6,5.4-12,12-12h138.6V1154.3z"/>
<polygon class="st18" points="1376.8,990.3 1609.6,990.3 1553.8,1154.3 1319.4,1154.3 "/>
<polygon class="st19" points="1613.1,990.3 1557.2,1154.3 1322.8,1154.3 1380.2,990.3 "/>
<path class="st16" d="M1487.5,1070.8c-1.4,6.3-7.7,11.3-14,11.3s-10.2-5.1-8.7-11.3s7.7-11.3,14-11.3S1489,1064.5,1487.5,1070.8z"/>
<path class="st20" d="M1174.5,1154.3H2195c4.3,0,7.8,3.5,7.8,7.8v21.4c0,4.3-3.5,7.8-7.8,7.8H1174.5c-4.3,0-7.8-3.5-7.8-7.8v-21.4
	C1166.8,1157.8,1170.2,1154.3,1174.5,1154.3z"/>
<path class="st20" d="M2220,1799.1l0.4-0.1c5.1-0.6,8.8-5.2,8.3-10.3c0,0,0,0,0-0.1l-90.9-615.6l-33.3,1l107,618.9
	C2212.2,1797,2216,1799.7,2220,1799.1z"/>
<path class="st20" d="M1140.3,1799.1l-0.4-0.1c-5.1-0.6-8.8-5.2-8.3-10.3c0,0,0,0,0-0.1l90.9-615.6l33.3,1l-107,618.9
	C1148.1,1797,1144.4,1799.7,1140.3,1799.1z"/>
<path class="st20" d="M1350.9,1799.1l-0.4-0.1c-5.1-0.6-8.8-5.2-8.3-10.3c0,0,0,0,0-0.1l90.9-615.6l33.3,1l-107,618.9
	C1358.6,1797,1354.9,1799.7,1350.9,1799.1z"/>
<path class="st21" d="M204.4,1793.3h2826.3c2.1,0,3.9,1.7,3.9,3.9v3.2c0,2.1-1.7,3.9-3.9,3.9H204.4c-2.1,0-3.9-1.7-3.9-3.9v-3.2
	C200.5,1795,202.2,1793.3,204.4,1793.3z"/>
<path class="st22" d="M1887.4,1798.6h180.5c8.7-10.6,5.5-49.7,4.2-62.4c-0.3-2.6-0.5-4.1-0.5-4.1s-61.6-49.3-70.1-11.6
	c-0.3,1.2-0.6,2.3-0.9,3.5c-10.7,35.3-58.5,51.3-86.1,55.8C1896.5,1782.8,1889.8,1792.1,1887.4,1798.6z"/>
<path class="st10" d="M2379.8,1212.3c-6.5,0-309.1,56.8-359.2,118.8c-25,31-28.7,388.4-28.7,388.4s30.9,38.3,97.7,16.1
	c0,0,49-244.6,45.4-318.7c-1-20.5,206.8-3,244.8-12.8s130.9-92.6,110.5-132.8S2379.8,1212.3,2379.8,1212.3z"/>
<path class="st11" d="M2021.9,1124.7c0,0-61,0.8-75.5,7s-43.7,20.4-35.9,22.6s45.2-0.9,53.3,0.3s18-0.3,23-0.3h28L2021.9,1124.7z"/>
<path class="st11" d="M1950.5,978.3c0,0-20.8-14.9-41-17.8c-11.5-1.7-22.7-3.7-29.5-6.1c-18.7-6.6-56-40.1-53.1-44
	c9-12.6,52.6,14.1,60.2,11.2s-14.6-18.7-6.9-24.2c4-2.9,13.5,11.6,21.2,13.1c10.4,2,18.6,16.7,21.8,17.5
	c6.1,1.5,32.9,21.4,32.9,21.4L1950.5,978.3z"/>
<path class="st18" d="M2349.6,804.6c0,0-46.5,14.4-92.2,140.5s-63.2,132.9-79.8,137.8s-162.7,34-162.7,34v37.4H2240
	c0,0,84.4-80.3,109.7-134.3S2349.6,804.6,2349.6,804.6z"/>
<path class="st22" d="M1807.6,1798.6H1988c8.7-10.6,5.5-49.7,4.2-62.4c-0.3-2.6-0.5-4.1-0.5-4.1s-61.6-49.3-70.1-11.6
	c-0.3,1.2-0.6,2.3-0.9,3.5c-10.7,35.3-58.5,51.3-86.1,55.8C1816.7,1782.8,1810.1,1792.1,1807.6,1798.6z"/>
<path class="st13" d="M2290.6,1212.3c-6.5,0-309.1,56.8-359.2,118.8c-25,31-28.7,388.4-28.7,388.4s30.9,38.3,97.7,16.1
	c0,0,49-244.6,45.4-318.7c-1-20.5,206.8-3,244.8-12.8s130.9-92.6,110.5-132.8S2290.6,1212.3,2290.6,1212.3z"/>
<path class="st11" d="M2309.5,844.5c21.8-1.8,44.6-7.6,64.3-14c24.7-8,44.5-19.7,31.7-42.2c-11.8-20.8-30.9-67.2-29.6-105.6
	l-45.9,37l-31.2,25.1c0,0,0.1,14.8,3.5,40.8c0.6,4.7,1.4,9.8,2.2,15.3c0.7,4.4-1.3,8.8-5.1,11.2l-0.7,0.4
	C2283.3,822.2,2291.3,846,2309.5,844.5z"/>
<path class="st15" d="M2298.9,738.7c0,0-1.6,5.4,1.1,25.2c27.8-4.5,53.8-26.7,53.8-26.7c-14.1-3.9-19.3-19.2-29.8-17.7L2298.9,738.7
	z"/>
<path class="st11" d="M2273.2,743.2c0,0,106.9,17.8,116.9-49s30.6-109.4-37.2-123.5s-84.9,9.3-93.7,30.8S2245.7,736.9,2273.2,743.2z
	"/>
<path class="st14" d="M2243.5,571.9c-4.6,16.1,7.7,35.6,28.3,42.1c30.6,9.6,23.8,47.1,37.6,46.6s19.3-21.6,31.6-4.8
	c10.5,14.4-8.7,31.4-7.4,39.3c2.3,13.5,23.4,41.2,42.5,39.8s54.8-92.1,47.6-120.1s-35.7-57.7-62.8-61.7s-64.6,7.6-73.3,7.6
	S2245.9,563.2,2243.5,571.9z"/>
<path class="st19" d="M2491.6,897.2c-15.4-62.2-58.1-127.4-87-127.4c-49.2,0.1-119.9,13.1-148.5,83.5
	c-21,51.9-49.1,350.3-17.4,371.5c72.5,48.5,240.5,147.6,270.3,46.6C2536.4,1178.9,2518.5,1005.1,2491.6,897.2z"/>
<path class="st19" d="M2372.2,835.3c-11.5-30-45.2-45-75.3-33.5c-5.3,2.1-10.4,4.9-14.9,8.4c-16.7,13-37.1,31.5-61.8,57.8
	c-91.8,97.8-110.5,97.2-127.7,95.1s-162.9-32.9-162.9-32.9c-4.9,3.9-9,8.8-11.8,14.4c-5.9,11.9-2.9,20-2.9,20
	c-5.7-3.7,51.6,35.8,80.2,51.6c37.7,20.8,94.5,40.3,117.1,47.7c6.4,2.1,13.3,2,19.7-0.3c33.6-12.1,146.3-56.2,238.1-132.7
	C2394.1,910.7,2385.2,869.2,2372.2,835.3z"/>
<path class="st16" d="M2409.6,770.4l-11.1-25.1c0,0-99.7,8.1-116.5,64.9C2282,810.2,2359.3,771.7,2409.6,770.4z"/>
<path class="st4" d="M2651.6,1796.4h0.7c5.6-0.1,10-4.7,9.4-10l-37.6-375.1l-32.8,2.9l53.9,377.1
	C2645.9,1794.3,2648.6,1796.5,2651.6,1796.4z"/>
<path class="st4" d="M2458.3,1796.4h0.7c5.6-0.1,10-4.7,9.4-10l-37.6-375.1l-32.8,2.9l53.9,377.1
	C2452.6,1794.3,2455.3,1796.5,2458.3,1796.4z"/>
<path class="st23" d="M2095.4,1796.4h-0.7c-5.6-0.1-10-4.7-9.4-10l37.6-375.1l32.8,2.9l-53.9,377.1
	C2101.2,1794.3,2098.5,1796.5,2095.4,1796.4z"/>
<path class="st4" d="M2641,1358.2l35.6-313.3c4.7-45.1-10.4-89.3-75.6-92.8l-114.6-7c-67.9-2.8-98.6,53.7-107.2,97.3l-68,344.3
	L2641,1358.2z"/>
<path class="st23" d="M2113.2,1356.7h527.2l0,0v41.5c0,10.3-8.3,18.6-18.6,18.6l0,0h-508.7c-10.3,0-18.6-8.3-18.6-18.6l0,0v-22.9
	C2094.6,1365.1,2103,1356.7,2113.2,1356.7L2113.2,1356.7z"/>
<path class="st4" d="M2325.7,1356.7h314.8l0,0v45.6c0,8-6.5,14.4-14.4,14.4h-300.3c-8,0-14.4-6.5-14.4-14.4v-31.2
	C2311.3,1363.2,2317.7,1356.7,2325.7,1356.7z"/>
</svg>
