<svg width="28" height="28" viewBox="0 0 28 28" fill="none" xmlns="http://www.w3.org/2000/svg">
<path d="M13.7975 13.7086V13.7199M9.27206 13.7086V13.7199M18.323 13.7086V13.7199M3.61523 22.7595L5.08601 18.3472C3.81486 16.4671 3.35501 14.2408 3.79197 12.082C4.22894 9.92322 5.53297 7.97895 7.46161 6.61068C9.39026 5.24241 11.8123 4.54325 14.2773 4.6432C16.7424 4.74314 19.0827 5.6354 20.8632 7.15406C22.6437 8.67272 23.7432 10.7144 23.9573 12.8996C24.1713 15.0848 23.4854 17.2647 22.0269 19.034C20.5685 20.8034 18.4369 22.0418 16.0283 22.5189C13.6198 22.9961 11.0983 22.6795 8.93265 21.6281L3.61523 22.7595Z" stroke="white" stroke-width="1.59722" stroke-linecap="round" stroke-linejoin="round"/>
</svg>
