<svg width="30" height="30" viewBox="0 0 30 30" fill="none" xmlns="http://www.w3.org/2000/svg">
<circle cx="15" cy="15" r="15" fill="#5956E9" fill-opacity="0.12"/>
<path d="M15.1404 13.674C15.1237 13.6526 15.1024 13.6354 15.078 13.6235C15.0536 13.6116 15.0269 13.6055 14.9998 13.6055C14.9727 13.6055 14.9459 13.6116 14.9216 13.6235C14.8972 13.6354 14.8759 13.6526 14.8592 13.674L12.3592 16.8369C12.3386 16.8632 12.3258 16.8948 12.3223 16.9281C12.3188 16.9613 12.3247 16.9949 12.3394 17.0249C12.354 17.055 12.3769 17.0803 12.4052 17.0979C12.4336 17.1156 12.4664 17.1249 12.4998 17.1249H14.1494V22.5356C14.1494 22.6338 14.2297 22.7142 14.3279 22.7142H15.6672C15.7654 22.7142 15.8458 22.6338 15.8458 22.5356V17.1271H17.4998C17.6494 17.1271 17.7319 16.9552 17.6404 16.8392L15.1404 13.674Z" fill="#5956E9"/>
<path d="M21.683 11.6138C20.6607 8.91741 18.0558 7 15.0045 7C11.9531 7 9.34821 8.91518 8.32589 11.6116C6.41295 12.1138 5 13.8571 5 15.9286C5 18.3951 6.99777 20.3929 9.46205 20.3929H10.3571C10.4554 20.3929 10.5357 20.3125 10.5357 20.2143V18.875C10.5357 18.7768 10.4554 18.6964 10.3571 18.6964H9.46205C8.70982 18.6964 8.00223 18.3973 7.47545 17.8549C6.95089 17.3147 6.67188 16.5871 6.69643 15.8326C6.71652 15.2433 6.91741 14.6897 7.28125 14.2232C7.65402 13.7478 8.17634 13.4018 8.7567 13.2478L9.60268 13.0268L9.91295 12.2098C10.1049 11.7009 10.3728 11.2254 10.7098 10.7946C11.0426 10.3677 11.4367 9.9923 11.8795 9.6808C12.7969 9.03571 13.8772 8.6942 15.0045 8.6942C16.1317 8.6942 17.2121 9.03571 18.1295 9.6808C18.5737 9.9933 18.9665 10.3683 19.2991 10.7946C19.6362 11.2254 19.904 11.7031 20.096 12.2098L20.404 13.0246L21.2478 13.2478C22.4576 13.5737 23.3036 14.6741 23.3036 15.9286C23.3036 16.6674 23.0156 17.3638 22.4933 17.8862C22.2372 18.1438 21.9324 18.3481 21.5968 18.4872C21.2612 18.6263 20.9013 18.6974 20.5379 18.6964H19.6429C19.5446 18.6964 19.4643 18.7768 19.4643 18.875V20.2143C19.4643 20.3125 19.5446 20.3929 19.6429 20.3929H20.5379C23.0022 20.3929 25 18.3951 25 15.9286C25 13.8594 23.5915 12.1183 21.683 11.6138Z" fill="#5956E9"/>
</svg>
