<svg width="38" height="45" viewBox="0 0 38 45" fill="none" xmlns="http://www.w3.org/2000/svg">
<path d="M13.896 0.71524C13.0148 0.699793 12.155 0.885061 11.3105 1.39828L11.3113 1.39595C10.895 1.64926 10.4568 2.01622 10.0414 2.10497C8.68202 2.39622 7.53559 3.17078 6.24158 3.5822C5.62604 3.77747 5.32997 4.15426 5.34845 4.79238C5.09595 5.24979 4.69738 5.53613 4.23425 5.75488C3.82399 5.94792 3.43309 6.16845 3.31095 6.65533C3.30899 6.65694 3.30693 6.65837 3.30497 6.66006C2.82247 7.22238 2.31506 7.76524 1.823 8.60587L16.9094 3.65488C16.2568 3.03444 15.5791 2.50935 16.3334 1.55729C15.6568 1.60328 15.1785 1.99569 14.6086 1.90756C14.932 1.42631 15.6241 1.52819 15.9938 1.05542C15.2798 0.860597 14.5814 0.727204 13.896 0.71524ZM21.992 3.71935C21.3563 3.75881 20.7447 3.80899 20.2171 4.2656C19.5903 4.80453 18.8859 4.95765 18.1751 4.35828C17.6387 3.9056 17.116 3.99131 16.5076 4.28578C15.103 4.96747 13.6622 5.57658 12.2375 6.2147C8.93249 7.70209 5.62824 9.19108 2.3247 10.6817C1.26863 11.027 1.22184 11.123 1.4647 12.175C1.6422 12.943 1.96247 13.7515 1.06131 14.3243C0.962551 14.369 0.878981 14.4416 0.820829 14.5331C0.762677 14.6246 0.732467 14.731 0.733897 14.8394C0.733004 14.84 0.732201 14.8402 0.731308 14.8406C0.497379 15.6579 0.69354 16.4525 0.842022 17.2552C0.936397 17.7635 1.17274 17.7441 1.56318 17.5585C2.44658 17.1375 3.34292 16.7429 4.23836 16.3485C7.06961 15.1038 9.9014 13.8601 12.7336 12.6172C12.813 12.6204 12.8925 12.6132 12.97 12.5956C12.878 12.6442 12.793 12.7018 12.7466 12.8101L9.8422 14.5123L5.46872 16.7404C4.21577 16.9567 3.12908 17.6335 1.94149 18.0176C1.20649 18.2547 1.35256 18.5106 1.85354 18.8405C2.32229 19.4052 3.01291 19.5448 3.66068 19.7643C3.66158 19.7637 3.66247 19.7634 3.66336 19.7627C4.16533 19.9981 4.66425 20.2413 5.17184 20.4652C5.64381 20.6751 6.08256 20.7476 6.36979 20.149C6.53122 19.8093 6.82488 19.7601 7.17658 19.9215C7.72461 20.1768 8.30479 20.1844 8.8914 20.0831L8.89086 20.0836C8.89211 20.0837 8.89336 20.0836 8.89443 20.0838L8.89738 20.0862L8.90149 20.0843C9.12381 20.1037 9.34336 20.1066 9.53631 19.9652C9.80175 19.9652 10.0695 19.9443 10.3318 19.9709C11.5806 20.0984 12.881 19.6739 14.0839 20.3387C14.3123 20.4645 14.5252 20.2153 14.7293 20.1113C16.8967 19.0021 19.0615 17.8879 21.2237 16.7687C24.0958 15.2886 26.9669 13.8088 29.8368 12.3292C30.0829 12.2018 30.6435 12.1461 30.1547 11.6484V11.6443C29.8195 10.9692 29.5192 10.2812 29.4002 9.52908C29.4011 9.52819 29.4018 9.52729 29.4026 9.5264C29.3646 8.96578 29.1735 8.45194 28.9314 7.95015C28.7216 7.52015 28.4853 7.4006 27.9956 7.61845C26.8621 8.12345 25.6994 8.58426 24.5377 8.9997C23.3759 9.41524 22.2973 10.0678 21.0485 10.2372C21.0472 10.237 21.0459 10.237 21.0447 10.2368L21.0453 10.2364C21.034 10.0452 21.2066 10.0669 21.3107 10.0089L27.4731 6.57774C27.4957 6.00247 27.2892 5.48533 27.0697 4.9722C27.0693 4.9725 27.0688 4.97271 27.0684 4.97283L27.0686 4.9722C26.7734 4.22435 26.2555 4.0056 25.5068 4.30488C24.9992 4.51518 24.4584 4.63377 23.9093 4.65515V4.65345L23.9054 4.65488L23.4786 4.62042C22.8784 4.49212 22.5009 3.99756 21.9918 3.71926L21.992 3.71935ZM31.0618 13.4521C30.9222 13.4605 30.7644 13.5191 30.5784 13.6168C28.3065 14.8084 26.0144 15.961 23.7289 17.1252C21.0432 18.4967 18.3534 19.8537 15.6774 21.2397C15.5088 21.326 15.0354 21.3076 15.2613 21.7294C15.5563 22.2785 15.4669 22.859 15.4821 23.4347C15.4818 23.4347 15.4816 23.435 15.4813 23.4351V23.4374C15.4749 23.7195 15.4691 24.0013 15.4637 24.2829C15.5266 24.7347 15.6922 25.1661 15.9477 25.544L15.9506 25.5446L15.9485 25.5455L16.2752 25.9804L17.0409 26.9388C17.1716 27.8302 17.6257 27.8399 18.3922 27.5777C21.1707 26.6258 23.9767 25.7512 26.7721 24.8477L26.9335 25.0139C26.9342 25.0138 26.9349 25.0137 26.9357 25.0135L23.8888 26.4555C23.3813 26.591 22.9207 26.8283 22.4648 27.0856C22.398 27.0781 22.3304 27.0893 22.2695 27.1177C22.2086 27.1462 22.1567 27.1909 22.1196 27.2469C20.9094 27.6972 19.7302 28.227 18.59 28.833C18.5712 28.8242 18.5497 28.8229 18.53 28.8295C18.5103 28.8361 18.4939 28.8501 18.4843 28.8685C18.2385 28.8952 18.0077 28.9995 17.8251 29.1661C17.4016 29.2613 16.9255 29.3993 16.9481 29.9043C17.0045 31.1668 16.5665 32.3148 16.2406 33.4926L16.2398 33.4928C16.1396 33.6674 16.0953 33.8686 16.1131 34.0692C16.1309 34.2697 16.2097 34.46 16.3391 34.6143C16.5876 34.9119 16.9175 34.561 17.1901 34.4618C21.3286 32.9613 25.4636 31.4513 29.5951 29.9318C30.1412 29.7317 30.8421 29.6429 31.1737 29.2517C31.5303 28.8297 31.0478 28.1496 31.085 27.5711C31.1316 27.3229 31.179 27.0747 31.2256 26.8256C31.2258 26.8252 31.2259 26.8251 31.2263 26.8249C31.4748 26.061 32.0831 25.4985 32.3937 24.7693L33.8104 22.8009C34.1113 22.1555 34.8494 21.9521 35.2415 21.3979L35.2232 21.4042L35.2375 21.3963C36.0805 20.8792 36.441 20.003 37.0348 19.0914L33.2012 20.2692C32.9841 20.2835 32.7703 20.3153 32.5585 20.3563C32.6709 20.2914 32.7695 20.2051 32.8487 20.1022C33.0843 19.9893 33.3223 19.8788 33.5562 19.7618C34.7906 19.1455 36.1451 18.7864 37.3068 18.0152C37.2756 18.0093 37.2471 17.9931 37.2262 17.9692C37.2528 17.9836 37.2794 17.9982 37.3068 18.0152C37.419 17.6787 37.377 17.3366 37.3134 17.0034L37.3157 17.0083C37.2253 16.5363 37.018 16.2943 36.509 16.6347C36.1873 16.8651 35.8163 17.0174 35.4255 17.0793C35.4245 17.08 35.4235 17.0806 35.4225 17.0812C35.4225 17.08 35.4228 17.0788 35.4232 17.0777C34.7157 17.0243 33.9855 17.0382 33.4999 16.3743H33.5022C33.2747 16.062 33.0327 16.287 32.802 16.379C31.0188 17.0955 29.2361 17.8133 27.4539 18.5323C27.3201 18.5447 27.1923 18.5752 27.067 18.6147C27.1435 18.5406 27.2107 18.4572 27.2563 18.3524C28.5451 17.684 29.8327 17.0134 31.119 16.3403C31.6797 16.0467 32.5962 15.8353 32.7027 15.4207C32.8415 14.8833 31.971 14.4419 31.6539 13.8772C31.4765 13.5631 31.2945 13.4381 31.0619 13.4521H31.0618ZM31.2951 30.0304C31.2176 30.0252 31.1178 30.0476 30.9898 30.1003C26.4872 31.9587 21.9803 33.8068 17.4693 35.6444C17.1248 35.7881 17.0505 35.9139 17.2273 36.2721C17.658 37.1433 18.0541 38.033 18.276 38.9873C18.2755 38.9874 18.275 38.9875 18.2744 38.9876H18.276V38.9886C18.3026 39.2508 18.3664 39.5163 18.3494 39.7761C18.3091 40.3772 18.418 40.5618 19.0715 40.2714C22.0613 38.9402 25.0835 37.6833 28.0725 36.3513C29.3448 35.7842 30.2112 34.7766 30.7428 33.4858C30.7418 33.4859 30.7408 33.486 30.7398 33.486C30.7405 33.4858 30.7408 33.4854 30.7415 33.4847C31.5127 32.6021 31.633 31.5469 31.5483 30.4385C31.5288 30.1867 31.466 30.0416 31.2953 30.0303L31.2951 30.0304ZM36.2591 31.6802C35.8997 31.6828 35.6646 32.0543 35.498 32.3867C35.3491 32.6828 35.2412 32.9999 35.115 33.3081L35.1139 33.3091C34.8929 33.7649 34.7161 34.1722 34.0151 34.0609C33.5221 33.9826 32.846 34.3739 32.8936 34.841C32.992 35.8163 32.3394 36.6514 32.5395 37.6034C32.6165 37.674 32.6914 37.7007 32.7651 37.7027C32.6761 37.7566 32.593 37.8211 32.5226 37.9084C32.3983 38.3819 32.2627 38.8539 32.3943 39.35C32.395 39.35 32.3956 39.3497 32.3967 39.3497C32.7808 40.1958 33.0693 40.3035 33.8993 40.0665C34.9046 39.7781 34.9005 38.9218 35.0668 38.1489C35.2192 37.753 35.3311 37.353 35.2852 36.8814L33.833 37.3218L33.8321 37.3259C33.7179 37.3687 33.5875 37.3362 33.4729 37.3837C33.547 37.3247 33.6128 37.2555 33.6626 37.1669C33.9095 37.0225 34.1442 36.8476 34.4064 36.7378C36.224 35.9819 36.5185 34.3885 36.6549 32.7041C36.6629 32.3434 36.913 31.84 36.421 31.7028C36.3683 31.6878 36.3138 31.6802 36.2591 31.6803V31.6802ZM28.0668 36.9635C25.0084 38.5423 22.0864 40.0833 19.1288 41.5524C18.3688 41.9308 18.2349 42.3422 18.6261 43.024C18.7922 43.6401 19.2243 44.0278 19.7548 44.3327V44.3335L19.7553 44.3333C19.7554 44.3333 19.7556 44.3333 19.7557 44.3335L19.7573 44.3337C19.954 44.5977 20.2312 44.7007 20.5439 44.7344C21.6516 45.3879 22.9738 44.7981 23.5829 43.3782C24.3575 42.9393 25.1271 42.4827 25.9081 42.0519C26.4096 41.7753 26.763 41.4334 26.6441 40.8038C26.6443 40.8035 26.6443 40.8031 26.6447 40.8028C26.794 40.389 27.3281 40.2857 27.4297 39.8347C27.3386 38.861 28.1597 38.0598 28.0677 36.9651L28.0668 36.9635Z" fill="#FDFEFF"/>
</svg>
