<svg width="50" height="50" viewBox="0 0 50 50" fill="none" xmlns="http://www.w3.org/2000/svg">
<path d="M18.125 33.125L10 25L18.125 16.875C18.318 16.6844 18.4713 16.4573 18.5759 16.2069C18.6804 15.9566 18.7343 15.688 18.7343 15.4167C18.7343 15.1454 18.6804 14.8768 18.5759 14.6265C18.4713 14.3761 18.318 14.149 18.125 13.9584C17.9344 13.7654 17.7073 13.6121 17.457 13.5076C17.2066 13.403 16.938 13.3491 16.6667 13.3491C16.3954 13.3491 16.1268 13.403 15.8765 13.5076C15.6261 13.6121 15.3991 13.7654 15.2084 13.9584L5.64588 23.5209C5.45275 23.7136 5.29952 23.9425 5.19498 24.1946C5.09043 24.4466 5.03662 24.7168 5.03662 24.9896C5.03662 25.2625 5.09043 25.5326 5.19498 25.7847C5.29952 26.0367 5.45275 26.2656 5.64588 26.4584L15.2084 36.0417C16.0209 36.8542 17.3125 36.8542 18.125 36.0417C18.318 35.851 18.4713 35.6239 18.5759 35.3736C18.6804 35.1233 18.7343 34.8547 18.7343 34.5834C18.7343 34.3121 18.6804 34.0435 18.5759 33.7931C18.4713 33.5428 18.318 33.3157 18.125 33.125ZM31.875 33.125L40 25L31.875 16.875C31.682 16.6844 31.5288 16.4573 31.4242 16.2069C31.3197 15.9566 31.2658 15.688 31.2658 15.4167C31.2658 15.1454 31.3197 14.8768 31.4242 14.6265C31.5288 14.3761 31.682 14.149 31.875 13.9584C32.0657 13.7654 32.2928 13.6121 32.5431 13.5076C32.7935 13.403 33.0621 13.3491 33.3334 13.3491C33.6047 13.3491 33.8733 13.403 34.1236 13.5076C34.374 13.6121 34.601 13.7654 34.7917 13.9584L44.3542 23.5209C45.1667 24.3334 45.1667 25.6459 44.3542 26.4584L34.7917 36.0417C34.601 36.2347 34.374 36.3879 34.1236 36.4925C33.8733 36.5971 33.6047 36.651 33.3334 36.651C33.0621 36.651 32.7935 36.5971 32.5431 36.4925C32.2928 36.3879 32.0657 36.2347 31.875 36.0417C31.682 35.851 31.5288 35.6239 31.4242 35.3736C31.3197 35.1233 31.2658 34.8547 31.2658 34.5834C31.2658 34.3121 31.3197 34.0435 31.4242 33.7931C31.5288 33.5428 31.682 33.3157 31.875 33.125Z" fill="#FDFEFF"/>
</svg>
