<svg width="22" height="22" viewBox="0 0 22 22" fill="none" xmlns="http://www.w3.org/2000/svg">
<path d="M10.625 11V11.0089M7.08333 11V11.0089M14.1667 11V11.0089M2.65625 18.0833L3.80729 14.6302C2.81248 13.1589 2.4526 11.4165 2.79457 9.72704C3.13654 8.03757 4.15709 6.51596 5.66646 5.44514C7.17584 4.37432 9.07132 3.82715 11.0005 3.90537C12.9297 3.98359 14.7612 4.68188 16.1547 5.8704C17.5481 7.05891 18.4086 8.65679 18.5761 10.3669C18.7436 12.077 18.2068 13.7831 17.0654 15.1678C15.924 16.5525 14.2558 17.5216 12.3709 17.8951C10.4859 18.2685 8.51258 18.0207 6.81771 17.1979L2.65625 18.0833Z" stroke="white" stroke-width="1.25" stroke-linecap="round" stroke-linejoin="round"/>
</svg>
