<svg width="27" height="25" viewBox="0 0 27 25" fill="none" xmlns="http://www.w3.org/2000/svg">
<path d="M26.6222 3.48422C25.6742 3.96476 24.6524 4.28054 23.5936 4.43157C24.677 3.70389 25.5142 2.5506 25.9081 1.1639C24.8863 1.85039 23.7537 2.33093 22.5595 2.60552C21.5869 1.42477 20.2204 0.738281 18.6692 0.738281C15.776 0.738281 13.4123 3.37438 13.4123 6.62832C13.4123 7.09513 13.4615 7.54821 13.5477 7.97383C9.16493 7.7267 5.26228 5.37892 2.66462 1.82293C2.20911 2.6879 1.95057 3.70389 1.95057 4.77481C1.95057 6.82053 2.87391 8.63285 4.30201 9.66258C3.42792 9.66258 2.61538 9.38799 1.90133 8.9761C1.90133 8.9761 1.90133 8.9761 1.90133 9.01728C1.90133 11.8731 3.72338 14.262 6.13638 14.7975C5.69317 14.9348 5.22535 15.0034 4.74521 15.0034C4.41281 15.0034 4.08041 14.9622 3.76032 14.8936C4.42512 17.2139 6.35798 18.9439 8.68479 18.985C6.88736 20.5777 4.60979 21.5113 2.12293 21.5113C1.70435 21.5113 1.28577 21.4838 0.867188 21.4289C3.20631 23.1039 5.98864 24.0788 8.96795 24.0788C18.6692 24.0788 23.9999 15.0995 23.9999 7.3148C23.9999 7.05394 23.9999 6.8068 23.9876 6.54594C25.0217 5.72216 25.9081 4.6787 26.6222 3.48422Z" fill="#9CA3AF"/>
</svg>
