<svg width="148" height="82" viewBox="0 0 148 82" fill="none" xmlns="http://www.w3.org/2000/svg">
<path d="M6.36855 1.11157C4.90052 1.11622 3.49311 1.7539 2.45053 2.88677C1.40795 4.01964 0.813935 5.55672 0.796875 7.16577L0.977557 75.1375C0.971118 75.9441 1.11049 76.744 1.38762 77.4911C1.66475 78.2383 2.07415 78.9179 2.59218 79.4907C3.11022 80.0635 3.72664 80.5181 4.40585 80.8284C5.08505 81.1386 5.81359 81.2983 6.54941 81.2983H98.4038C108.939 81.306 119.106 77.0559 126.962 69.3612C134.817 61.6665 139.808 51.0673 140.981 39.5915L144.238 7.90298C144.326 7.04862 144.248 6.18355 144.01 5.36437C143.772 4.54519 143.379 3.79037 142.856 3.14928C142.333 2.50819 141.693 1.99531 140.977 1.64417C140.261 1.29302 139.486 1.11152 138.701 1.11157H6.36855ZM147.13 1.11157L147.114 0.717773H147.13V1.11157Z" fill="#2368A2"/>
</svg>
