<svg width="251" height="62" viewBox="0 0 251 62" fill="none" xmlns="http://www.w3.org/2000/svg">
<path d="M47.1564 34.1676C47.1564 36.1816 47.6033 37.7277 48.1857 38.6634C48.9497 39.8883 50.0894 40.4078 51.2514 40.4078C52.7486 40.4078 54.1201 40.0391 56.7612 36.4162C58.8771 33.5126 61.3715 29.4358 63.0489 26.8799L65.8882 22.5517C67.8631 19.5447 70.1466 16.2011 72.7667 13.9358C74.905 12.0866 77.2123 11.0601 79.5321 11.0601C83.4301 11.0601 87.1424 13.2989 89.9846 17.5014C93.0936 22.102 94.6033 27.8967 94.6033 33.8771C94.6033 37.433 93.8966 40.0447 92.6941 42.1075C91.5321 44.1048 89.2681 46.0992 85.4595 46.0992V40.4078C88.7206 40.4078 89.5335 37.4358 89.5335 34.0349C89.5335 29.1886 88.3952 23.8101 85.8854 19.9665C84.1033 17.2402 81.7961 15.574 79.2556 15.574C76.5084 15.574 74.2975 17.6299 71.8142 21.2919C70.493 23.2388 69.1382 25.6117 67.6145 28.2877L65.9385 31.2318C62.5726 37.1522 61.7192 38.5 60.0363 40.7249C57.0866 44.6215 54.567 46.0992 51.2514 46.0992C47.3156 46.0992 44.8282 44.4078 43.2877 41.8631C42.0293 39.7877 41.412 37.0656 41.412 33.9637L47.1564 34.1676Z" fill="#0081FB"/>
<path d="M45.9413 17.9022C48.5754 13.8757 52.377 11.0601 56.7374 11.0601C59.2611 11.0601 61.7723 11.8017 64.3924 13.9232C67.2597 16.2444 70.3156 20.0656 74.1284 26.3631L75.4958 28.6229C78.7946 34.0754 80.6717 36.8799 81.7709 38.2025C83.1843 39.9008 84.1745 40.4078 85.4594 40.4078C88.7206 40.4078 89.5335 37.4358 89.5335 34.0349L94.6033 33.8771C94.6033 37.433 93.8966 40.0447 92.6941 42.1075C91.5321 44.1048 89.2681 46.0992 85.4594 46.0992C83.0921 46.0992 80.9944 45.5894 78.6745 43.4176C76.891 41.7528 74.8072 38.7933 73.2025 36.1327L68.4329 28.2304C66.039 24.2654 63.8435 21.3073 62.5726 19.9679C61.2066 18.5279 59.4483 16.7891 56.6438 16.7891C54.3756 16.7891 52.4469 18.3687 50.8351 20.7835L45.9413 17.9022Z" fill="url(#paint0_linear_3682_594)"/>
<path d="M56.6438 16.7891C54.3757 16.7891 52.4469 18.3687 50.8352 20.7835C48.5531 24.1983 47.1564 29.2835 47.1564 34.1676C47.1564 36.1816 47.6033 37.7277 48.1857 38.6634L43.2877 41.8631C42.0293 39.7877 41.412 37.0656 41.412 33.9637C41.412 28.3226 42.9734 22.4427 45.9413 17.9022C48.5754 13.8757 52.3771 11.0601 56.7374 11.0601L56.6438 16.7891Z" fill="url(#paint1_linear_3682_594)"/>
<path d="M104.98 12.8687H111.626L122.926 33.1438L134.228 12.8687H140.729V46.1829H135.309V20.6508L125.397 38.3309H120.31L110.402 20.6508V46.1829H104.98V12.8687ZM157.718 25.2904C153.828 25.2904 151.487 28.1913 150.927 31.7862H164.123C163.851 28.0837 161.698 25.2904 157.718 25.2904ZM145.552 33.8323C145.552 26.2709 150.479 20.7681 157.811 20.7681C165.024 20.7681 169.331 26.2025 169.331 34.2374V35.7136H150.927C151.58 39.6228 154.196 42.2569 158.412 42.2569C161.778 42.2569 163.88 41.2388 165.874 39.377L168.754 42.8756C166.041 45.3505 162.589 46.7779 158.221 46.7779C150.284 46.7779 145.552 41.0376 145.552 33.8323ZM175.904 25.7681H170.913V21.3645H175.904V14.0837H181.136V21.3645H188.717V25.7681H181.136V36.9259C181.136 40.736 182.363 42.0907 185.383 42.0907C186.76 42.0907 187.55 41.9734 188.717 41.7807V46.1354C187.264 46.5418 185.877 46.729 184.374 46.729C178.726 46.729 175.904 43.6689 175.904 37.5446V25.7681ZM210.744 30.0488C209.693 27.4189 207.349 25.4804 203.905 25.4804C199.43 25.4804 196.563 28.6312 196.563 33.7611C196.563 38.7653 199.203 42.067 203.69 42.067C207.219 42.067 209.739 40.0307 210.744 37.4971V30.0488ZM215.975 46.1829H210.841V42.7094C209.404 44.7541 206.792 46.7779 202.563 46.7779C195.758 46.7779 191.212 41.1284 191.212 33.7611C191.212 26.3254 195.869 20.7681 202.851 20.7681C206.302 20.7681 209.01 22.1368 210.841 24.553V21.3645H215.975V46.1829Z" fill="#192830"/>
<defs>
<linearGradient id="paint0_linear_3682_594" x1="52.694" y1="32.5236" x2="89.3172" y2="34.3887" gradientUnits="userSpaceOnUse">
<stop stop-color="#0064E1"/>
<stop offset="0.4" stop-color="#0064E1"/>
<stop offset="0.83" stop-color="#0073EE"/>
<stop offset="1" stop-color="#0082FB"/>
</linearGradient>
<linearGradient id="paint1_linear_3682_594" x1="49.7345" y1="36.5594" x2="49.7345" y2="23.1679" gradientUnits="userSpaceOnUse">
<stop stop-color="#0082FB"/>
<stop offset="1" stop-color="#0064E0"/>
</linearGradient>
</defs>
</svg>
