<svg width="311" height="227" viewBox="0 0 311 227" fill="none" xmlns="http://www.w3.org/2000/svg">
<g clip-path="url(#clip0_1768_12449)">
<path d="M197.527 126.068C198.615 125.818 199.571 125.11 200.187 124.095C200.804 123.081 201.032 121.841 200.822 120.644C200.775 120.38 200.707 120.12 200.618 119.869L211.925 109.186L204.533 106.894L194.929 117.39C193.921 117.917 193.142 118.859 192.761 120.011C192.381 121.162 192.429 122.432 192.895 123.545C193.292 124.479 193.966 125.238 194.808 125.696C195.649 126.155 196.608 126.286 197.527 126.068L197.527 126.068Z" fill="#FFB6B6"/>
<path d="M270.946 201.83L271.357 191.702C275.641 189.192 280.419 187.866 285.277 187.84C278.591 193.831 279.427 205.38 274.894 213.436C273.463 215.937 271.537 218.053 269.258 219.627C266.98 221.201 264.407 222.193 261.731 222.529L256.137 226.283C255.369 221.592 255.538 216.775 256.633 212.162C257.727 207.55 259.721 203.253 262.477 199.566C264.041 197.515 265.835 195.688 267.816 194.128C269.156 198.001 270.946 201.83 270.946 201.83Z" fill="#F2F2F2"/>
<path d="M256.531 221.071L251.466 221.071L249.056 199.653L256.532 199.654L256.531 221.071Z" fill="#FFB6B6"/>
<path d="M257.823 226.453L241.489 226.453V226.226C241.489 224.378 242.159 222.606 243.352 221.299C244.544 219.992 246.161 219.258 247.847 219.257H247.847L250.831 216.776L256.398 219.258L257.824 219.258L257.823 226.453Z" fill="#2F2E41"/>
<path d="M232.997 221.071L227.931 221.071L225.521 199.653L232.998 199.654L232.997 221.071Z" fill="#FFB6B6"/>
<path d="M234.289 226.453L217.955 226.453V226.226C217.955 224.378 218.625 222.606 219.817 221.299C221.01 219.992 222.627 219.258 224.313 219.257H224.313L227.297 216.776L232.863 219.258L234.289 219.258L234.289 226.453Z" fill="#2F2E41"/>
<path d="M230.804 103.98L263.754 104.883C270.012 108.609 270.107 116.673 268.056 126.247C268.056 126.247 268.749 131.937 267.364 133.455C265.98 134.972 265.288 134.972 265.98 137.628C266.672 140.283 263.015 144.62 263.459 145.107C263.903 145.594 264.942 148.25 264.942 148.25L261.481 169.873C261.481 169.873 259.058 207.43 258.366 208.189C257.674 208.948 256.981 208.189 257.674 210.086C258.366 211.983 259.058 211.224 258.366 211.983C257.753 212.707 257.175 213.467 256.635 214.259H248.268C248.268 214.259 247.637 210.465 247.637 210.086C247.637 209.707 246.945 207.43 246.945 207.051C246.945 206.672 247.557 206.001 247.557 206.001C247.768 205.23 247.911 204.438 247.983 203.637C247.983 202.878 250.06 173.667 250.06 173.667L245.906 135.731L235.87 172.908C235.87 172.908 235.87 205.534 235.178 206.292C234.485 207.051 234.485 206.672 234.831 208.189C235.178 209.707 236.562 209.327 235.524 210.465C234.485 211.603 234.139 209.707 234.485 211.603L234.831 213.5L224.449 213.663C224.449 213.663 223.064 210.465 223.756 209.327C224.449 208.189 224.407 208.5 223.563 206.637C222.718 204.775 222.372 204.395 222.718 204.016C223.064 203.637 223.064 201.619 223.064 201.619L224.795 165.321C224.795 165.321 225.141 127.005 225.141 125.867C225.167 125.282 225.069 124.697 224.853 124.161V122.616L226.179 117.142L230.804 103.98Z" fill="#2F2E41"/>
<path d="M197.146 113.745L202.714 118.667L233.072 92.874L231.275 47.9814C229.568 49.4786 228.149 51.3319 227.099 53.4342C226.049 55.5366 225.39 57.8462 225.16 60.2295L219.959 85.5888L197.146 113.745Z" fill="#E6E6E6"/>
<path d="M225.886 115.321C236.632 116.826 246.533 112.265 255.885 108.823C260.107 107.269 264.36 108.891 268.279 106.263C266.584 87.9649 268.23 67.3533 271.83 45.3882C272.035 44.1447 271.821 42.8618 271.227 41.7788C270.633 40.6958 269.7 39.8867 268.601 39.5024L257.001 35.8541L253.429 31.5352L244.204 34.102L240.975 40.4997L229.879 48.7182C229.231 49.1976 228.723 49.8719 228.417 50.6599C228.111 51.448 228.018 52.3163 228.152 53.1604C231.485 73.8178 230.713 95.0205 225.886 115.321Z" fill="#E6E6E6"/>
<path d="M260.182 120.984C261.167 120.419 261.91 119.451 262.25 118.291C262.591 117.13 262.502 115.87 262.002 114.781C261.891 114.54 261.761 114.311 261.613 114.096L269.831 100.437L262.149 100.442L255.523 113.413C254.684 114.222 254.169 115.36 254.089 116.582C254.01 117.804 254.372 119.011 255.098 119.943C255.712 120.723 256.55 121.251 257.473 121.44C258.397 121.629 259.352 121.469 260.182 120.984L260.182 120.984Z" fill="#FFB6B6"/>
<path d="M257.861 108.232L262.89 115.321L280.494 86.5736L278.971 57.3685C278.778 53.6488 277.728 50.0433 275.922 46.8874C274.115 43.7315 271.61 41.1277 268.638 39.3184L268.998 84.2109L257.861 108.232Z" fill="#E6E6E6"/>
<path d="M245.222 29.864C251.439 29.864 256.479 24.3393 256.479 17.5243C256.479 10.7093 251.439 5.18457 245.222 5.18457C239.004 5.18457 233.964 10.7093 233.964 17.5243C233.964 24.3393 239.004 29.864 245.222 29.864Z" fill="#FFB6B6"/>
<path d="M238.049 10.2826C238.484 10.2864 238.918 10.3487 239.34 10.4683C240.171 10.6874 241.015 10.8426 241.866 10.9328C244.473 11.2015 246.921 12.4198 248.822 14.393C250.722 16.3663 251.964 18.9806 252.35 21.8186C253.004 21.1934 254.493 20.0434 255.713 21.1122C255.732 21.1292 255.742 21.1379 255.785 21.1156C256.596 20.6943 258.034 15.5084 258.077 10.9422C258.1 8.51868 257.752 5.42394 255.964 4.4439L255.87 4.39227L255.845 4.28004C255.726 3.73488 254.391 2.8043 252.071 2.08C247.855 0.763754 241.571 -1.80032 238.032 1.97316C237.764 3.24528 236.893 5.96764 236.013 6.27622C235.038 6.61776 234.197 6.91253 234.064 8.22295C233.953 10.0878 233.961 11.9588 234.088 13.8224C234.418 12.6821 235.067 11.684 235.942 10.9686C236.564 10.5096 237.299 10.2702 238.049 10.2826Z" fill="#2F2E41"/>
<path d="M311 226.531C311 226.593 310.989 226.654 310.968 226.711C310.946 226.768 310.915 226.819 310.875 226.863C310.835 226.906 310.788 226.941 310.736 226.964C310.684 226.988 310.629 227 310.572 227H0.427519C0.314134 227 0.205397 226.95 0.125222 226.862C0.0450469 226.775 0 226.655 0 226.531C0 226.407 0.0450469 226.288 0.125222 226.2C0.205397 226.112 0.314134 226.063 0.427519 226.063H310.572C310.629 226.062 310.684 226.074 310.736 226.098C310.788 226.121 310.835 226.156 310.875 226.199C310.915 226.243 310.946 226.295 310.968 226.352C310.989 226.409 311 226.47 311 226.531Z" fill="#CCCCCC"/>
<path d="M128.355 39.821L86.097 50.2421C84.9648 50.5228 83.9804 51.2843 83.3598 52.3596C82.7392 53.4349 82.533 54.7361 82.7865 55.9777L94.374 112.434L144.025 100.19C144.433 100.091 144.806 99.8648 145.1 99.5393L133.588 43.4499C133.332 42.2088 132.637 41.1298 131.656 40.4495C130.675 39.7692 129.488 39.5432 128.355 39.821Z" fill="#E6E6E6"/>
<path d="M113.005 47.5957L89.8465 53.3067C88.8155 53.5621 87.919 54.2553 87.3536 55.2342C86.7883 56.2132 86.6002 57.398 86.8307 58.5287L97.7252 111.608L141.822 100.734L133.888 62.0782C132.866 57.1252 130.093 52.8189 126.178 50.1038C122.263 47.3888 117.526 46.4868 113.005 47.5957Z" fill="white"/>
<path d="M133.342 97.8723L104.27 105.042C104.146 105.072 104.028 105.129 103.923 105.21C103.819 105.29 103.73 105.392 103.661 105.511C103.593 105.629 103.547 105.761 103.525 105.899C103.503 106.036 103.506 106.178 103.534 106.314C103.562 106.451 103.615 106.58 103.688 106.694C103.762 106.809 103.855 106.906 103.963 106.981C104.071 107.056 104.192 107.106 104.317 107.13C104.443 107.154 104.572 107.15 104.697 107.119L133.768 99.9495C133.893 99.9192 134.011 99.8621 134.116 99.7817C134.22 99.7012 134.309 99.599 134.378 99.4807C134.446 99.3625 134.493 99.2306 134.515 99.0926C134.537 98.9546 134.533 98.8132 134.505 98.6766C134.477 98.54 134.425 98.4108 134.351 98.2963C134.278 98.1819 134.184 98.0846 134.076 98.0099C133.968 97.9351 133.848 97.8845 133.722 97.8609C133.596 97.8373 133.467 97.8412 133.342 97.8723Z" fill="#E4E4E4"/>
<path d="M132.499 93.7643L103.427 100.934C103.176 100.996 102.957 101.165 102.819 101.403C102.681 101.642 102.636 101.931 102.692 102.207C102.749 102.483 102.903 102.723 103.121 102.874C103.339 103.025 103.603 103.075 103.854 103.013L132.926 95.8436C133.05 95.8129 133.168 95.7556 133.273 95.675C133.377 95.5943 133.466 95.492 133.534 95.3737C133.602 95.2554 133.649 95.1236 133.67 94.9857C133.692 94.8478 133.689 94.7066 133.661 94.57C133.633 94.4335 133.581 94.3044 133.507 94.19C133.434 94.0756 133.34 93.9782 133.232 93.9034C133.124 93.8286 133.004 93.7778 132.878 93.7539C132.752 93.73 132.624 93.7336 132.499 93.7643H132.499Z" fill="#E4E4E4"/>
<path d="M115.187 93.72L102.584 96.8277C102.333 96.8897 102.115 97.0586 101.977 97.2972C101.839 97.5358 101.794 97.8245 101.85 98.1C101.907 98.3755 102.061 98.615 102.278 98.766C102.496 98.9169 102.76 98.9669 103.011 98.905L115.613 95.7972C115.738 95.7668 115.856 95.7098 115.96 95.6293C116.065 95.5489 116.154 95.4466 116.222 95.3284C116.291 95.2101 116.337 95.0782 116.359 94.9402C116.381 94.8023 116.378 94.6609 116.35 94.5243C116.322 94.3876 116.269 94.2584 116.196 94.144C116.122 94.0296 116.029 93.9322 115.921 93.8575C115.812 93.7828 115.692 93.7322 115.566 93.7086C115.44 93.685 115.311 93.6888 115.187 93.72Z" fill="#E4E4E4"/>
<path d="M129.891 81.0572L100.819 88.2265C100.695 88.2572 100.577 88.3145 100.472 88.3952C100.368 88.4758 100.279 88.5782 100.211 88.6964C100.073 88.9353 100.027 89.2244 100.084 89.5001C100.141 89.7758 100.295 90.0156 100.513 90.1668C100.731 90.3179 100.994 90.3679 101.246 90.3059L130.318 83.1366C130.442 83.1059 130.56 83.0486 130.664 82.9679C130.769 82.8873 130.858 82.7849 130.926 82.6667C130.994 82.5484 131.04 82.4166 131.062 82.2787C131.084 82.1408 131.081 81.9995 131.053 81.863C131.025 81.7265 130.972 81.5973 130.899 81.4829C130.825 81.3686 130.732 81.2712 130.624 81.1964C130.516 81.1215 130.396 81.0707 130.27 81.0469C130.144 81.023 130.015 81.0265 129.891 81.0572Z" fill="#E4E4E4"/>
<path d="M129.048 76.951L99.9764 84.1203C99.8518 84.1507 99.7338 84.2078 99.6294 84.2883C99.5249 84.3688 99.4359 84.4711 99.3675 84.5893C99.2991 84.7075 99.2527 84.8393 99.2309 84.9772C99.209 85.1152 99.2122 85.2564 99.2402 85.393C99.2683 85.5296 99.3206 85.6587 99.3942 85.7731C99.4678 85.8875 99.5613 85.9848 99.6693 86.0595C99.7773 86.1342 99.8976 86.1849 100.023 86.2086C100.149 86.2322 100.278 86.2285 100.403 86.1975L129.475 79.0282C129.599 78.9976 129.717 78.9405 129.821 78.86C129.926 78.7794 130.014 78.6772 130.083 78.559C130.151 78.4408 130.197 78.309 130.219 78.1712C130.241 78.0334 130.238 77.8922 130.21 77.7557C130.182 77.6192 130.13 77.4902 130.056 77.3758C129.982 77.2615 129.889 77.1642 129.781 77.0895C129.673 77.0147 129.553 76.964 129.427 76.9403C129.301 76.9165 129.173 76.9202 129.048 76.951Z" fill="#E4E4E4"/>
<path d="M111.735 76.9049L99.1333 80.0127C99.0088 80.0434 98.8909 80.1007 98.7866 80.1813C98.6822 80.2619 98.5934 80.3643 98.5251 80.4826C98.4569 80.6008 98.4105 80.7327 98.3888 80.8706C98.367 81.0085 98.3702 81.1497 98.3982 81.2862C98.4262 81.4228 98.4785 81.5519 98.5521 81.6663C98.6256 81.7807 98.719 81.8781 98.8269 81.9529C98.9348 82.0277 99.0551 82.0785 99.1809 82.1024C99.3067 82.1263 99.4356 82.1227 99.5601 82.092L112.162 78.9842C112.287 78.9535 112.405 78.8962 112.509 78.8156C112.613 78.735 112.702 78.6326 112.77 78.5143C112.839 78.3961 112.885 78.2642 112.907 78.1263C112.929 77.9884 112.925 77.8472 112.897 77.7107C112.869 77.5741 112.817 77.445 112.744 77.3306C112.67 77.2162 112.577 77.1188 112.469 77.044C112.361 76.9692 112.24 76.9184 112.115 76.8945C111.989 76.8706 111.86 76.8742 111.735 76.9049Z" fill="#E4E4E4"/>
<path d="M126.439 64.2418L97.3677 71.4111C97.1161 71.4731 96.8974 71.6422 96.7595 71.881C96.6217 72.1199 96.576 72.4089 96.6326 72.6847C96.6892 72.9604 96.8434 73.2002 97.0613 73.3513C97.2792 73.5024 97.5429 73.5525 97.7945 73.4904L126.866 66.3212C126.991 66.2904 127.109 66.2331 127.213 66.1525C127.317 66.0719 127.406 65.9695 127.474 65.8512C127.543 65.733 127.589 65.6011 127.611 65.4632C127.633 65.3253 127.629 65.1841 127.601 65.0476C127.573 64.911 127.521 64.7819 127.448 64.6675C127.374 64.5531 127.281 64.4557 127.173 64.3809C127.065 64.3061 126.944 64.2553 126.819 64.2314C126.693 64.2076 126.564 64.2111 126.439 64.2418Z" fill="#E6E6E6"/>
<path d="M125.597 60.1363L96.5252 67.3056C96.4006 67.3363 96.2828 67.3937 96.1784 67.4743C96.0741 67.5549 95.9852 67.6573 95.917 67.7755C95.7791 68.0144 95.7335 68.3035 95.7901 68.5792C95.8467 68.8549 96.0009 69.0948 96.2188 69.2459C96.4367 69.397 96.7004 69.447 96.952 69.385L126.024 62.2157C126.148 62.185 126.266 62.1277 126.37 62.047C126.475 61.9664 126.564 61.864 126.632 61.7458C126.7 61.6275 126.747 61.4957 126.768 61.3578C126.79 61.2199 126.787 61.0786 126.759 60.9421C126.731 60.8056 126.679 60.6764 126.605 60.562C126.531 60.4477 126.438 60.3503 126.33 60.2755C126.222 60.2006 126.102 60.1498 125.976 60.126C125.85 60.1021 125.722 60.1056 125.597 60.1363Z" fill="#E6E6E6"/>
<path d="M108.284 60.0895L95.6819 63.1972C95.4303 63.2593 95.2116 63.4283 95.0737 63.6671C94.9359 63.906 94.8902 64.1951 94.9468 64.4708C95.0034 64.7466 95.1576 64.9864 95.3755 65.1375C95.5934 65.2886 95.8572 65.3386 96.1087 65.2766L108.711 62.1688C108.835 62.1381 108.953 62.0808 109.058 62.0001C109.162 61.9195 109.251 61.8172 109.319 61.6989C109.387 61.5806 109.434 61.4488 109.455 61.3109C109.477 61.173 109.474 61.0318 109.446 60.8952C109.418 60.7587 109.366 60.6295 109.292 60.5152C109.219 60.4008 109.125 60.3034 109.017 60.2286C108.909 60.1537 108.789 60.103 108.663 60.0791C108.537 60.0552 108.409 60.0587 108.284 60.0895Z" fill="#E6E6E6"/>
<path d="M44.0502 105.325C43.7748 105.326 43.5107 105.446 43.3159 105.659C43.1211 105.873 43.0115 106.162 43.0112 106.464V224.227C43.0115 224.529 43.1211 224.819 43.3159 225.032C43.5107 225.246 43.7748 225.366 44.0502 225.366H178.753C179.028 225.366 179.293 225.246 179.487 225.032C179.682 224.819 179.792 224.529 179.792 224.227V125.368C179.792 125.066 179.682 124.776 179.487 124.563C179.293 124.349 179.028 124.229 178.753 124.228H101.442C100.658 124.229 99.9009 123.909 99.3204 123.33L81.9398 106.02C81.4915 105.572 80.9069 105.325 80.3007 105.325H44.0502Z" fill="#3F3D56"/>
<path d="M204.806 74.524L132.68 40.5351C130.746 39.6267 128.562 39.5962 126.608 40.4503C124.653 41.3044 123.088 42.9733 122.254 45.0911L84.4609 141.45L169.205 181.385C169.9 181.716 170.667 181.82 171.414 181.685L208.962 85.9514C209.791 83.8315 209.819 81.438 209.039 79.2957C208.26 77.1534 206.738 75.4373 204.806 74.524Z" fill="#E6E6E6"/>
<path d="M174.735 68.0302L135.208 49.4035C133.447 48.5759 131.459 48.5477 129.679 49.3249C127.899 50.1021 126.473 51.6214 125.714 53.5495L90.1807 144.146L165.445 179.614L191.323 113.636C194.63 105.176 194.741 95.6236 191.632 87.0738C188.522 78.524 182.445 71.6753 174.735 68.0302Z" fill="white"/>
<path d="M155.779 165.525L106.159 142.142C105.946 142.042 105.718 141.988 105.487 141.985C105.255 141.981 105.025 142.027 104.81 142.121C104.595 142.215 104.399 142.354 104.233 142.531C104.068 142.708 103.935 142.919 103.844 143.152C103.752 143.385 103.704 143.635 103.701 143.889C103.698 144.143 103.741 144.394 103.826 144.63C103.912 144.866 104.04 145.08 104.201 145.262C104.363 145.443 104.556 145.588 104.768 145.688L154.388 169.071C154.601 169.171 154.829 169.225 155.061 169.229C155.292 169.233 155.522 169.186 155.737 169.092C155.952 168.999 156.148 168.859 156.314 168.682C156.48 168.506 156.612 168.295 156.703 168.062C156.795 167.829 156.843 167.578 156.846 167.324C156.849 167.071 156.807 166.819 156.721 166.583C156.635 166.348 156.508 166.133 156.346 165.952C156.184 165.77 155.992 165.625 155.779 165.525Z" fill="#E4E4E4"/>
<path d="M158.528 158.514L108.909 135.131C108.479 134.929 107.994 134.922 107.56 135.112C107.126 135.302 106.779 135.673 106.594 136.143C106.41 136.614 106.403 137.145 106.576 137.621C106.749 138.097 107.088 138.478 107.517 138.68L157.137 162.063C157.349 162.164 157.578 162.217 157.809 162.22C158.04 162.224 158.27 162.177 158.485 162.083C158.7 161.989 158.896 161.85 159.062 161.673C159.228 161.496 159.36 161.285 159.451 161.052C159.543 160.819 159.591 160.568 159.595 160.315C159.598 160.061 159.555 159.809 159.469 159.574C159.384 159.338 159.256 159.123 159.095 158.941C158.934 158.76 158.741 158.615 158.529 158.514H158.528Z" fill="#E4E4E4"/>
<path d="M133.167 138.26L111.657 128.123C111.445 128.023 111.216 127.97 110.985 127.966C110.754 127.962 110.524 128.009 110.309 128.103C110.094 128.196 109.899 128.336 109.733 128.513C109.567 128.689 109.435 128.9 109.343 129.133C109.252 129.366 109.203 129.617 109.2 129.87C109.197 130.124 109.24 130.375 109.326 130.611C109.411 130.846 109.539 131.061 109.7 131.242C109.862 131.424 110.054 131.569 110.267 131.669L131.776 141.805C131.989 141.905 132.217 141.959 132.448 141.962C132.679 141.966 132.909 141.919 133.124 141.826C133.339 141.732 133.535 141.593 133.701 141.416C133.866 141.239 133.999 141.028 134.09 140.795C134.181 140.562 134.23 140.312 134.233 140.058C134.236 139.805 134.193 139.553 134.108 139.318C134.022 139.082 133.895 138.867 133.733 138.686C133.572 138.504 133.379 138.359 133.167 138.26Z" fill="#E4E4E4"/>
<path d="M167.035 136.825L117.415 113.442C116.986 113.241 116.501 113.234 116.068 113.424C115.634 113.614 115.287 113.985 115.102 114.455C114.918 114.925 114.911 115.456 115.084 115.932C115.257 116.408 115.595 116.789 116.023 116.991L165.643 140.374C165.856 140.475 166.085 140.529 166.316 140.532C166.548 140.536 166.778 140.489 166.993 140.396C167.208 140.302 167.404 140.162 167.57 139.985C167.736 139.808 167.869 139.597 167.96 139.364C168.052 139.131 168.1 138.88 168.103 138.626C168.106 138.372 168.064 138.12 167.978 137.884C167.892 137.649 167.764 137.434 167.603 137.252C167.441 137.07 167.248 136.925 167.035 136.825Z" fill="#E4E4E4"/>
<path d="M169.784 129.818L120.164 106.435C119.951 106.335 119.723 106.281 119.492 106.278C119.26 106.274 119.03 106.32 118.815 106.414C118.6 106.508 118.404 106.647 118.238 106.824C118.073 107.001 117.94 107.212 117.849 107.445C117.757 107.678 117.709 107.928 117.706 108.182C117.703 108.436 117.745 108.687 117.831 108.923C117.917 109.159 118.045 109.373 118.206 109.555C118.368 109.736 118.561 109.881 118.773 109.981L168.393 133.364C168.606 133.464 168.834 133.518 169.065 133.522C169.297 133.525 169.527 133.479 169.742 133.385C169.957 133.292 170.153 133.152 170.319 132.975C170.484 132.799 170.617 132.588 170.708 132.355C170.8 132.121 170.848 131.871 170.851 131.617C170.854 131.364 170.812 131.112 170.726 130.876C170.64 130.641 170.512 130.426 170.351 130.245C170.189 130.063 169.996 129.918 169.784 129.818Z" fill="#E4E4E4"/>
<path d="M144.423 109.56L122.914 99.4243C122.484 99.2222 122 99.2153 121.566 99.4051C121.132 99.5948 120.784 99.9657 120.6 100.436C120.415 100.907 120.409 101.438 120.581 101.914C120.754 102.39 121.093 102.771 121.522 102.973L143.031 113.109C143.244 113.21 143.472 113.263 143.704 113.267C143.935 113.27 144.165 113.224 144.38 113.13C144.595 113.036 144.791 112.896 144.957 112.719C145.123 112.542 145.255 112.331 145.347 112.098C145.438 111.865 145.487 111.615 145.49 111.361C145.493 111.107 145.45 110.855 145.365 110.62C145.279 110.384 145.152 110.169 144.99 109.987C144.828 109.806 144.636 109.661 144.423 109.56Z" fill="#E4E4E4"/>
<path d="M178.291 108.126L128.672 84.7429C128.242 84.5414 127.758 84.5349 127.324 84.7248C126.891 84.9146 126.544 85.2854 126.359 85.7556C126.175 86.2258 126.168 86.757 126.341 87.2325C126.513 87.7081 126.851 88.0891 127.28 88.2919L176.9 111.675C177.112 111.775 177.341 111.829 177.572 111.832C177.804 111.836 178.033 111.789 178.248 111.695C178.463 111.601 178.659 111.462 178.825 111.285C178.991 111.108 179.124 110.897 179.215 110.664C179.306 110.43 179.355 110.18 179.358 109.926C179.361 109.673 179.319 109.421 179.233 109.185C179.147 108.949 179.02 108.734 178.858 108.553C178.697 108.371 178.504 108.226 178.291 108.126Z" fill="#2368A2"/>
<path d="M181.04 101.118L131.42 77.7353C130.991 77.5336 130.506 77.527 130.073 77.7168C129.639 77.9067 129.292 78.2775 129.107 78.7478C128.923 79.218 128.916 79.7494 129.089 80.225C129.262 80.7006 129.599 81.0816 130.028 81.2843L179.648 104.667C179.861 104.768 180.09 104.822 180.321 104.826C180.553 104.83 180.784 104.784 180.999 104.69C181.214 104.597 181.411 104.457 181.577 104.28C181.743 104.103 181.876 103.891 181.968 103.658C182.059 103.424 182.108 103.173 182.111 102.919C182.114 102.665 182.071 102.413 181.985 102.177C181.899 101.941 181.771 101.726 181.609 101.545C181.447 101.363 181.253 101.218 181.04 101.118Z" fill="#2368A2"/>
<path d="M155.68 80.8603L134.17 70.7241C133.741 70.522 133.256 70.5151 132.822 70.7049C132.388 70.8946 132.04 71.2655 131.856 71.7361C131.671 72.2066 131.665 72.7381 131.838 73.2139C132.011 73.6897 132.349 74.0707 132.778 74.2732L154.288 84.4093C154.5 84.5096 154.729 84.563 154.96 84.5665C155.192 84.5699 155.421 84.5234 155.636 84.4294C155.852 84.3355 156.048 84.1961 156.213 84.0191C156.379 83.8421 156.512 83.6311 156.603 83.398C156.695 83.1649 156.743 82.9143 156.746 82.6606C156.749 82.4069 156.707 82.155 156.621 81.9194C156.535 81.6837 156.408 81.4689 156.246 81.2872C156.085 81.1054 155.892 80.9604 155.68 80.8603V80.8603Z" fill="#2368A2"/>
<path d="M102.129 109.523L59.8712 119.944C58.739 120.225 57.7546 120.986 57.134 122.062C56.5133 123.137 56.3072 124.438 56.5606 125.68L68.1482 182.136L117.799 169.892C118.207 169.793 118.58 169.567 118.874 169.241L107.362 113.152C107.106 111.911 106.411 110.832 105.43 110.152C104.449 109.471 103.262 109.245 102.129 109.523Z" fill="#E6E6E6"/>
<path d="M86.7791 117.297L63.6206 123.008C62.5896 123.263 61.6931 123.956 61.1278 124.935C60.5624 125.914 60.3744 127.099 60.6049 128.23L71.4994 181.309L115.596 170.435L107.662 131.779C106.64 126.826 103.868 122.52 99.9526 119.805C96.0376 117.09 91.3 116.188 86.7791 117.297Z" fill="white"/>
<path d="M107.116 167.573L78.0443 174.743C77.9196 174.773 77.8017 174.83 77.6972 174.911C77.5928 174.991 77.5038 175.094 77.4354 175.212C77.367 175.33 77.3206 175.462 77.2987 175.6C77.2769 175.738 77.2801 175.879 77.3081 176.016C77.3361 176.152 77.3885 176.281 77.4621 176.396C77.5357 176.51 77.6292 176.607 77.7372 176.682C77.8451 176.757 77.9655 176.807 78.0914 176.831C78.2172 176.855 78.3461 176.851 78.4706 176.82L107.542 169.651C107.667 169.62 107.785 169.563 107.89 169.483C107.994 169.402 108.083 169.3 108.152 169.182C108.22 169.064 108.267 168.932 108.289 168.794C108.311 168.656 108.307 168.514 108.279 168.378C108.251 168.241 108.199 168.112 108.125 167.998C108.052 167.883 107.958 167.786 107.85 167.711C107.742 167.636 107.621 167.586 107.496 167.562C107.37 167.539 107.241 167.542 107.116 167.573Z" fill="#E4E4E4"/>
<path d="M106.273 163.465L77.2012 170.635C76.9496 170.697 76.7309 170.866 76.593 171.105C76.4552 171.343 76.4095 171.633 76.4661 171.908C76.5227 172.184 76.6769 172.424 76.8948 172.575C77.1127 172.726 77.3764 172.776 77.628 172.714L106.7 165.545C106.951 165.483 107.17 165.314 107.308 165.075C107.446 164.836 107.491 164.547 107.435 164.271C107.378 163.995 107.224 163.756 107.006 163.605C106.788 163.453 106.525 163.403 106.273 163.465Z" fill="#E4E4E4"/>
<path d="M88.9608 163.421L76.3586 166.529C76.2342 166.56 76.1165 166.617 76.0122 166.697C75.908 166.778 75.8193 166.88 75.7511 166.998C75.6829 167.116 75.6366 167.248 75.6148 167.386C75.5931 167.524 75.5963 167.665 75.6243 167.801C75.6523 167.938 75.7045 168.067 75.778 168.181C75.8515 168.295 75.9447 168.392 76.0525 168.467C76.1603 168.542 76.2805 168.593 76.4061 168.616C76.5318 168.64 76.6605 168.637 76.785 168.606L89.3871 165.498C89.5119 165.468 89.6299 165.411 89.7345 165.331C89.839 165.25 89.9281 165.148 89.9966 165.03C90.065 164.911 90.1115 164.779 90.1334 164.641C90.1553 164.503 90.1521 164.362 90.1241 164.225C90.096 164.089 90.0437 163.96 89.97 163.845C89.8963 163.731 89.8028 163.633 89.6947 163.559C89.5866 163.484 89.4662 163.433 89.3402 163.41C89.2143 163.386 89.0854 163.39 88.9608 163.421Z" fill="#E4E4E4"/>
<path d="M103.665 150.758L74.593 157.928C74.4685 157.958 74.3507 158.016 74.2463 158.096C74.142 158.177 74.0531 158.279 73.9848 158.398C73.847 158.636 73.8013 158.926 73.8579 159.201C73.9145 159.477 74.0687 159.717 74.2866 159.868C74.5045 160.019 74.7683 160.069 75.0198 160.007L104.092 152.838C104.343 152.776 104.562 152.607 104.7 152.368C104.838 152.129 104.883 151.84 104.827 151.564C104.77 151.288 104.616 151.049 104.398 150.898C104.18 150.746 103.916 150.696 103.665 150.758Z" fill="#E4E4E4"/>
<path d="M102.822 146.653L73.7503 153.822C73.6257 153.853 73.5078 153.91 73.4033 153.99C73.2988 154.071 73.2098 154.173 73.1415 154.291C73.0731 154.41 73.0266 154.541 73.0048 154.679C72.9829 154.817 72.9861 154.959 73.0142 155.095C73.0422 155.232 73.0945 155.361 73.1681 155.475C73.2418 155.59 73.3352 155.687 73.4432 155.762C73.5512 155.836 73.6716 155.887 73.7974 155.911C73.9233 155.934 74.0522 155.931 74.1767 155.9L103.248 148.73C103.373 148.7 103.491 148.643 103.595 148.562C103.7 148.482 103.788 148.379 103.857 148.261C103.925 148.143 103.971 148.011 103.993 147.873C104.015 147.736 104.012 147.594 103.984 147.458C103.956 147.321 103.903 147.192 103.83 147.078C103.756 146.964 103.663 146.866 103.555 146.792C103.447 146.717 103.327 146.666 103.201 146.642C103.075 146.619 102.947 146.622 102.822 146.653Z" fill="#E4E4E4"/>
<path d="M85.5094 146.606L72.9072 149.714C72.6557 149.776 72.4369 149.945 72.2991 150.184C72.1612 150.423 72.1156 150.712 72.1721 150.987C72.2287 151.263 72.383 151.503 72.6009 151.654C72.8188 151.805 73.0825 151.855 73.3341 151.793L85.9362 148.685C86.1878 148.623 86.4065 148.454 86.5444 148.215C86.6822 147.977 86.7279 147.688 86.6713 147.412C86.6147 147.136 86.4605 146.896 86.2426 146.745C86.0247 146.594 85.761 146.544 85.5094 146.606Z" fill="#E4E4E4"/>
<path d="M100.214 133.944L71.1419 141.113C71.0173 141.144 70.8995 141.201 70.7951 141.282C70.6908 141.363 70.6019 141.465 70.5337 141.583C70.3958 141.822 70.3502 142.111 70.4068 142.387C70.4634 142.663 70.6176 142.902 70.8355 143.053C71.0534 143.205 71.3171 143.255 71.5687 143.193L100.64 136.023C100.765 135.993 100.883 135.935 100.987 135.855C101.092 135.774 101.18 135.672 101.249 135.553C101.317 135.435 101.363 135.303 101.385 135.165C101.407 135.027 101.404 134.886 101.376 134.75C101.348 134.613 101.295 134.484 101.222 134.37C101.148 134.255 101.055 134.158 100.947 134.083C100.839 134.008 100.719 133.957 100.593 133.934C100.467 133.91 100.338 133.913 100.214 133.944H100.214Z" fill="#E6E6E6"/>
<path d="M99.3709 129.838L70.2991 137.007C70.1745 137.038 70.0567 137.095 69.9524 137.175C69.848 137.256 69.7592 137.358 69.6909 137.477C69.5531 137.716 69.5074 138.005 69.564 138.28C69.6206 138.556 69.7748 138.796 69.9927 138.947C70.2106 139.098 70.4743 139.148 70.7259 139.086L99.7977 131.917C100.049 131.855 100.268 131.686 100.406 131.447C100.544 131.208 100.589 130.919 100.533 130.643C100.476 130.368 100.322 130.128 100.104 129.977C99.8862 129.826 99.6224 129.775 99.3709 129.838H99.3709Z" fill="#E6E6E6"/>
<path d="M82.0582 129.792L69.4561 132.899C69.2045 132.961 68.9858 133.13 68.8479 133.369C68.71 133.608 68.6644 133.897 68.721 134.173C68.7776 134.449 68.9318 134.689 69.1497 134.84C69.3676 134.991 69.6313 135.041 69.8829 134.979L82.485 131.871C82.6096 131.84 82.7274 131.783 82.8318 131.702C82.9361 131.622 83.025 131.519 83.0932 131.401C83.1615 131.283 83.2078 131.151 83.2296 131.013C83.2514 130.875 83.2482 130.734 83.2201 130.597C83.1921 130.461 83.1398 130.332 83.0663 130.217C82.9927 130.103 82.8993 130.006 82.7914 129.931C82.6835 129.856 82.5633 129.805 82.4375 129.781C82.3117 129.757 82.1828 129.761 82.0582 129.792Z" fill="#E6E6E6"/>
<path d="M43.1577 136.256C43.0213 136.256 42.8862 136.285 42.7601 136.342C42.6341 136.4 42.5195 136.484 42.4231 136.589C42.3266 136.695 42.25 136.82 42.1978 136.959C42.1456 137.097 42.1187 137.245 42.1187 137.394C42.1187 137.437 42.1506 225.142 42.1506 225.142C42.1791 225.421 42.3001 225.678 42.4906 225.864C42.6811 226.051 42.9277 226.154 43.1831 226.154H187.883C188.138 226.154 188.385 226.051 188.575 225.864C188.766 225.678 188.887 225.421 188.915 225.142L197.922 137.522C197.939 137.363 197.924 137.202 197.88 137.049C197.835 136.896 197.762 136.755 197.665 136.636C197.568 136.516 197.448 136.42 197.315 136.354C197.181 136.289 197.036 136.255 196.89 136.256L43.1577 136.256Z" fill="#3F3D56"/>
<path d="M53.3686 141.112C51.9005 141.116 50.4931 141.754 49.4505 142.887C48.408 144.02 47.8139 145.557 47.7969 147.166L47.9776 215.138C47.9711 215.944 48.1105 216.744 48.3876 217.491C48.6648 218.238 49.0741 218.918 49.5922 219.491C50.1102 220.063 50.7266 220.518 51.4058 220.828C52.0851 221.139 52.8136 221.298 53.5494 221.298H145.404C155.939 221.306 166.106 217.056 173.962 209.361C181.817 201.666 186.808 191.067 187.981 179.591L191.238 147.903C191.326 147.049 191.248 146.184 191.01 145.364C190.772 144.545 190.379 143.79 189.856 143.149C189.333 142.508 188.693 141.995 187.977 141.644C187.261 141.293 186.486 141.112 185.701 141.112H53.3686ZM194.13 141.112L194.114 140.718H194.13V141.112Z" fill="#2368A2"/>
<path d="M93.4916 192.037H57.9083C57.5406 192.037 57.188 191.876 56.928 191.591C56.668 191.306 56.522 190.92 56.522 190.517C56.522 190.114 56.668 189.727 56.928 189.442C57.188 189.157 57.5406 188.997 57.9083 188.997H93.4916C95.2795 188.97 95.2974 192.064 93.4916 192.037Z" fill="#E4E4E4"/>
<path d="M141.426 199.985H57.9083C57.5406 199.985 57.188 199.825 56.928 199.54C56.668 199.255 56.522 198.868 56.522 198.465C56.522 198.062 56.668 197.676 56.928 197.391C57.188 197.106 57.5406 196.945 57.9083 196.945H141.426C143.214 196.918 143.232 200.012 141.426 199.985Z" fill="#E4E4E4"/>
</g>
<defs>
<clipPath id="clip0_1768_12449">
<rect width="311" height="227" fill="white"/>
</clipPath>
</defs>
</svg>
