<svg width="251" height="62" viewBox="0 0 251 62" fill="none" xmlns="http://www.w3.org/2000/svg">
<path d="M84.0796 15.063H94.9176C98.9413 15.063 101.563 15.239 103.837 17.6873C105.408 19.4359 106.282 21.5337 106.282 23.982C106.282 26.4303 105.408 28.5253 103.659 30.2739C101.912 32.0211 99.6396 33.07 93.8701 33.07H88.6256V47.5839H84.0796V15.063ZM88.6256 29.401H93.8701C96.8421 29.401 101.388 29.2264 101.388 23.806C101.388 18.7362 97.1927 18.7362 94.7458 18.7362H88.6256V29.401ZM120.795 47.5839C120.445 46.5337 120.445 45.3102 120.445 44.2599C118.346 47.9317 115.374 48.2823 113.451 48.2823C108.205 48.2823 105.408 45.3102 105.408 41.6384C105.408 39.8898 106.107 36.9177 109.43 34.9945C111.877 33.5965 115.374 33.5965 117.297 33.5965C118.346 33.5965 119.046 33.5965 120.268 33.7697C120.268 30.975 120.268 29.7501 119.397 28.7013C118.521 27.6524 116.772 27.3032 115.549 27.3032C111.352 27.3032 111.003 30.2739 111.003 31.1496H106.807C106.983 29.9247 107.156 28.3521 108.38 26.9526C110.128 25.0309 113.275 24.5057 115.722 24.5057C119.046 24.5057 122.543 25.5546 123.765 27.8256C124.465 29.2264 124.465 30.2739 124.465 31.3214L124.29 42.1635C124.29 42.5113 124.29 45.4834 124.64 47.7571H120.795V47.5839ZM117.821 36.394C116.073 36.394 109.603 36.394 109.603 40.9401C109.603 42.3395 110.478 44.785 114.324 44.785C116.423 44.785 118.172 43.9121 119.219 42.3395C120.095 40.7627 120.268 39.5406 120.268 36.394C119.57 36.5672 118.871 36.394 117.821 36.394ZM128.137 15.063H132.334V47.5839H128.137V15.063ZM150.517 47.5839C150.166 46.5337 150.166 45.3102 150.166 44.2599C148.068 47.9317 145.096 48.2823 143.173 48.2823C137.929 48.2823 135.131 45.3102 135.131 41.6384C135.131 39.8898 135.83 36.9177 139.152 34.9945C141.601 33.5965 145.096 33.5965 147.02 33.5965C148.068 33.5965 148.768 33.5965 149.992 33.7697C149.992 30.975 149.992 29.7501 149.117 28.7013C148.243 27.6524 146.494 27.3032 145.272 27.3032C141.075 27.3032 140.726 30.2739 140.726 31.1496H136.531C136.704 29.9247 136.88 28.3521 138.105 26.9526C139.853 25.0309 142.999 24.5057 145.444 24.5057C148.768 24.5057 152.264 25.5546 153.489 27.8256C154.187 29.2264 154.187 30.2739 154.187 31.3214L154.013 42.1635C154.013 42.5113 154.013 45.4834 154.363 47.7571H150.517V47.5839ZM147.719 36.394C145.971 36.394 139.503 36.394 139.503 40.9401C139.503 42.3395 140.376 44.785 144.223 44.785C146.32 44.785 148.068 43.9121 149.117 42.3395C149.992 40.7627 150.166 39.5406 150.166 36.394C149.292 36.5672 148.768 36.394 147.719 36.394ZM158.035 27.6524V25.0309H162.23V28.7013C162.754 27.8256 164.33 24.6817 169.399 24.6817C171.496 24.6817 177.616 25.38 177.616 32.3716V47.7571H173.244V33.4205C173.244 32.0211 173.07 30.6244 172.022 29.5728C170.973 28.5253 169.399 28.0015 168 28.0015C164.852 28.0015 162.054 30.2739 162.054 34.8186V47.7571H157.857V27.6524H158.035ZM179.015 25.0309H183.036V20.1342L187.233 18.7362V24.8549H192.302V28.0015H187.233V41.4638C187.233 42.5113 187.233 44.4345 190.204 44.4345C191.078 44.4345 191.952 44.2599 192.302 44.2599V47.5839C191.602 47.7571 190.378 47.9317 188.804 47.9317C184.785 47.9317 183.036 46.7096 183.036 43.0378V28.0015H179.015V25.0309ZM195.274 15.063H200.345V19.7851H195.274V15.063ZM195.623 25.0309H199.82V47.5839H195.623V25.0309ZM203.842 29.5728C203.842 28.0015 203.665 26.4303 203.665 25.0309H207.862L208.036 29.401C208.911 26.2529 211.533 25.204 213.458 25.0309C214.682 24.8549 215.73 24.8549 216.43 24.8549V29.0518C216.256 29.0518 215.905 28.8758 215.556 28.8758C215.207 28.8758 214.856 28.8758 214.331 28.8758C209.263 28.8758 208.212 31.8479 208.212 35.6943V47.7571H204.017V29.5728H203.842ZM58.0293 10.6929C49.2863 10.6929 42.1173 17.8605 42.1173 26.6035C42.1173 35.3451 49.2863 42.5113 58.0293 42.5113C66.7695 42.5113 73.9385 35.3451 73.9385 26.6035C73.9385 17.8605 66.7695 10.6929 58.0293 10.6929ZM58.0293 37.6175C51.9106 37.6175 47.0153 32.7208 47.0153 26.6035C47.0153 20.4848 51.9106 15.5881 58.0293 15.5881C64.1466 15.5881 69.0419 20.4848 69.0419 26.6035C68.8673 32.7208 63.972 37.6175 58.0293 37.6175ZM72.1899 41.1147L58.0293 47.232L43.8659 41.1147L41.4189 45.4834L58.0293 52.4778L74.6382 45.4834L72.1899 41.1147Z" fill="#2B2A35"/>
</svg>
