<svg width="161" height="60" viewBox="0 0 161 60" fill="none" xmlns="http://www.w3.org/2000/svg">
<path d="M102.808 42.1011C99.2047 42.0948 96.1218 41.5091 93.1961 40.2517C91.3261 39.4485 89.6771 38.3588 88.2478 36.9742C87.3664 36.1201 87.1238 35.0813 87.4472 34.0086C87.7593 32.9751 88.6396 32.3343 89.7659 32.0934C90.7761 31.877 91.7509 31.9502 92.5231 32.7247C94.3509 34.555 96.6798 35.4951 99.2593 35.9641C101.75 36.4171 104.228 36.3588 106.67 35.6765C107.956 35.3168 109.127 34.7683 110.083 33.8558C111.089 32.8956 111.512 31.7316 111.57 30.4202C111.643 28.7639 110.831 27.5713 109.344 26.7405C107.908 25.9383 106.325 25.4672 104.737 25.0174C102.365 24.3447 99.9369 23.8555 97.5727 23.1563C95.5433 22.5558 93.5742 21.8406 91.8113 20.7021C89.2159 19.0257 87.5452 16.7816 87.1397 13.8372C86.6056 9.95593 87.56 6.49589 90.743 3.75736C92.7964 1.99073 95.2597 0.972134 97.9747 0.443737C99.5327 0.140281 101.11 0.00552885 102.702 0.0235665C104.037 0.039482 105.307 0.948791 105.671 2.13503C106.063 3.40828 105.567 4.68364 104.403 5.38393C103.905 5.6842 103.353 5.84654 102.761 5.83275C100.502 5.77863 98.3414 6.19244 96.3268 7.13039C94.8976 7.79566 93.9284 8.8949 93.5116 10.3485C93.031 12.026 93.1232 13.6356 94.3771 15.0415C95.0581 15.8054 95.9726 16.2702 96.9201 16.6819C98.1843 17.2325 99.5076 17.6304 100.84 18.005C102.949 18.5981 105.113 18.997 107.214 19.6199C109.198 20.2087 111.153 20.8496 112.915 21.9149C115.152 23.2677 116.811 25.0439 117.473 27.4959C118.645 31.8377 117.039 36.9912 112.1 39.7456C109.847 41.0019 107.408 41.7372 104.795 41.9844C104.004 42.0576 103.215 42.1085 102.808 42.1011Z" fill="#434343"/>
<path d="M79.4256 13.8435C79.4085 16.0006 79.0657 18.0972 78.0533 20.0633C76.9406 22.2247 75.1914 23.8215 72.9809 25.0078C70.8467 26.1526 68.5314 26.8805 66.1842 27.5203C64.0649 28.0975 61.9603 28.7108 59.9832 29.6381C57.1703 30.957 55.5246 33.0812 55.0372 35.9821C54.8573 37.0495 54.7821 38.1222 54.7787 39.2023C54.7741 40.6867 53.526 41.9716 51.9976 42.0894C50.2951 42.221 48.8396 41.2236 48.5709 39.6936C48.4501 39.0039 48.5287 38.2983 48.5674 37.6012C48.662 35.912 48.8977 34.243 49.4751 32.6324C50.7233 29.1522 53.1149 26.5569 56.5314 24.7531C58.5198 23.7027 60.6643 23.0141 62.8303 22.3828C64.5967 21.8682 66.3983 21.4575 68.0986 20.7562C69.1874 20.3074 70.2465 19.8055 71.1542 19.0776C72.2008 18.2383 72.7212 17.12 72.9592 15.8839C73.2906 14.1608 73.2804 12.4461 72.6449 10.774C71.9548 8.95852 70.5825 7.69694 68.7489 6.90329C65.0124 5.28627 61.3612 5.47513 57.9083 7.6057C55.9984 8.78345 55.093 10.5522 54.8379 12.6403C54.7685 13.2069 54.83 13.7788 54.7229 14.3422C54.4507 15.7651 53.0192 16.772 51.3941 16.6786C49.8851 16.5927 48.5765 15.3948 48.5412 13.9889C48.4729 11.3246 48.9979 8.78345 50.5695 6.50328C52.5534 3.62468 55.3663 1.75408 58.8569 0.780043C63.8394 -0.609915 68.6134 -0.105923 73.0207 2.48831C76.6332 4.61463 78.7776 7.69588 79.2912 11.6928C79.3835 12.4058 79.4256 13.1242 79.4256 13.8435Z" fill="#434343"/>
<path d="M21.0844 9.90597C20.3168 11.4561 19.5686 12.9671 18.8215 14.478C17.1349 17.8903 15.4483 21.3036 13.7616 24.7159C12.8882 26.4825 11.9828 28.2364 11.1446 30.0169C10.0388 32.366 7.19734 32.2726 5.78176 30.7787C4.91168 29.8609 4.85474 28.7871 5.38544 27.6996C6.4924 25.4321 7.62555 23.1753 8.74845 20.9142C11.9065 14.5491 15.0588 8.18284 18.2236 1.82086C19.2532 -0.24816 21.3885 -0.283174 22.6492 0.389524C23.3143 0.744971 23.7562 1.29247 24.0728 1.93121C25.1524 4.10952 26.2252 6.29207 27.3094 8.46826C31.4661 16.8123 35.6275 25.1552 39.7866 33.4981C40.4983 34.9263 41.209 36.3544 41.9185 37.7837C42.5232 38.9996 42.2818 40.4278 41.3297 41.2777C40.0029 42.4618 37.9109 42.3514 36.731 41.04C36.4463 40.7227 36.2345 40.3694 36.0489 39.9959C33.2632 34.3894 30.4719 28.7839 27.6829 23.1785C25.5362 18.8611 23.3917 14.5438 21.2473 10.2264C21.2017 10.1373 21.1562 10.0481 21.0844 9.90597Z" fill="#434343"/>
<path d="M142.054 31.3963C142.368 30.678 142.655 30.0255 142.941 29.3708C145.407 23.7229 147.872 18.075 150.339 12.4271C151.891 8.87263 153.44 5.31709 155.003 1.76686C155.541 0.543484 156.532 -0.0178045 157.993 0.0214539C159.172 0.053285 160.438 0.888321 160.821 1.89631C161.102 2.63585 161.039 3.36266 160.723 4.08523C158.847 8.38986 156.976 12.6955 155.105 17.0012C152.154 23.7929 149.206 30.5846 146.254 37.3763C145.851 38.3037 145.46 39.2363 145.03 40.152C144.192 41.9377 142.445 42.4895 140.814 41.8518C139.969 41.5207 139.441 40.8746 139.104 40.1021C136.739 34.6717 134.382 29.2371 132.021 23.8046C130.765 20.9122 129.507 18.0209 128.247 15.1306C127.83 14.1746 127.76 13.2271 128.351 12.3136C129.019 11.2822 130.045 10.843 131.309 10.9013C132.639 10.9618 133.477 11.6833 133.958 12.7847C136.219 17.9647 138.467 23.1499 140.719 28.3331C141.155 29.3326 141.59 30.3289 142.054 31.3963Z" fill="#434343"/>
<path d="M114.454 6.28999C116.118 4.93409 117.495 3.84127 118.428 6.43664C117.697 7.96381 113.857 9.31135 112.235 10.5905C112.34 7.249 110.183 5.75113 110.911 4.25262C113.773 2.63711 114.418 4.17248 114.454 6.28999Z" fill="#434343"/>
<path d="M129.454 2.9636C129.454 4.5838 128.072 5.86872 126.332 5.86872C124.56 5.86872 123.174 4.59441 123.173 2.9636C123.172 1.31262 124.554 0.0425629 126.347 0.0478681C128.088 0.0521123 129.455 1.33491 129.454 2.9636Z" fill="#434343"/>
<path d="M76.2706 42.0947C74.5418 42.0947 73.1433 40.7864 73.1558 39.1789C73.1684 37.5407 74.5669 36.2346 76.2979 36.2452C78.0495 36.2558 79.4286 37.5534 79.4275 39.1906C79.4263 40.8214 78.0404 42.0957 76.2706 42.0947Z" fill="#434343"/>
<path d="M6.24657 39.1196C6.24657 40.7292 4.8549 42.0236 3.12499 42.0268C1.39053 42.0289 -0.00113815 40.7207 6.98464e-07 39.0899C0.00113954 37.4781 1.39395 36.1847 3.12499 36.1858C4.87312 36.1869 6.24771 37.4792 6.24657 39.1196Z" fill="#434343"/>
<path d="M8.75443 57.3524C8.46744 57.433 8.31255 57.2792 8.19183 56.9937C7.98115 56.4929 7.71921 56.0123 7.49144 55.5178C7.42767 55.3788 7.34681 55.3268 7.18054 55.3279C5.82873 55.3343 4.47692 55.3364 3.12511 55.3268C2.92581 55.3258 2.84268 55.4001 2.77207 55.5539C2.55341 56.0303 2.29945 56.494 2.10129 56.9768C1.97943 57.2749 1.80633 57.381 1.46467 57.3598C0.98408 57.3301 0.985219 57.3534 1.18679 56.9428C2.31881 54.6425 3.45196 52.3421 4.57372 50.0386C4.67736 49.8254 4.79466 49.7277 5.04862 49.7606C5.30258 49.7935 5.55882 49.6885 5.72282 50.0312C6.83205 52.3411 7.97204 54.6382 9.10177 56.9396C9.30335 57.3513 9.30107 57.3524 8.75443 57.3524ZM3.20711 54.669C4.45756 54.669 5.65676 54.6658 6.85597 54.6711C7.08943 54.6722 7.03135 54.5735 6.97327 54.4515C6.62706 53.7342 6.28199 53.0159 5.93692 52.2976C5.68068 51.7649 5.42558 51.2323 5.14087 50.6402C4.4792 52.0175 3.85055 53.3289 3.20711 54.669Z" fill="#434343"/>
<path d="M69.623 55.8171C70.7618 56.6447 72.0043 56.9047 73.3687 56.5906C74.0907 56.424 74.4893 55.9413 74.4836 55.3386C74.4802 54.8675 74.1818 54.5853 73.7764 54.3826C73.2707 54.1311 72.7059 54.0431 72.1603 53.8998C71.7595 53.7948 71.3563 53.6929 70.9634 53.5645C69.9738 53.2409 69.5 52.6733 69.4829 51.8213C69.4658 50.983 69.9578 50.2753 70.8757 49.9644C72.2264 49.5061 73.5486 49.6345 74.8173 50.2583C74.9585 50.3273 75.0393 50.4069 74.9334 50.5629C74.8765 50.6456 74.8355 50.7411 74.807 50.8366C74.7546 51.0159 74.6761 51.0064 74.5189 50.9204C73.601 50.4228 72.6136 50.2806 71.5773 50.4907C70.853 50.6382 70.3906 51.1019 70.3519 51.6706C70.3166 52.1937 70.566 52.5619 71.1502 52.8144C71.6285 53.0213 72.1444 53.12 72.6523 53.2409C73.1295 53.3545 73.6067 53.469 74.0611 53.6452C74.8355 53.9455 75.3354 54.4473 75.3457 55.2707C75.3559 56.0601 75.004 56.6904 74.2296 57.014C72.6489 57.675 71.1012 57.5233 69.631 56.6946C69.2381 56.4728 69.254 56.4495 69.4727 56.0612C69.5182 55.9837 69.5683 55.9073 69.623 55.8171Z" fill="#434343"/>
<path d="M148.475 54.7391C147.724 54.7391 146.973 54.7529 146.223 54.7328C145.91 54.7243 145.904 54.841 145.957 55.0649C146.206 56.1227 147.224 56.7763 148.49 56.6989C149.073 56.6638 149.601 56.4813 150.021 56.0888C150.149 55.9699 150.215 55.9954 150.324 56.1057C150.685 56.4676 150.682 56.493 150.278 56.8018C148.894 57.8586 145.69 57.6506 145.139 55.1444C144.783 53.5211 145.698 51.9804 147.442 51.6547C149.406 51.2876 151.147 52.6956 151.022 54.5534C151.011 54.7243 150.939 54.7423 150.789 54.7412C150.019 54.737 149.247 54.7391 148.475 54.7391ZM148.091 54.1513C148.703 54.1513 149.313 54.1386 149.923 54.1577C150.195 54.1662 150.222 54.0717 150.179 53.8616C149.98 52.9078 149.103 52.2712 147.989 52.2828C146.976 52.2934 146.101 52.9927 145.939 53.9126C145.907 54.093 145.948 54.1598 146.161 54.1556C146.804 54.1428 147.448 54.1513 148.091 54.1513Z" fill="#434343"/>
<path d="M133.382 56.5375C132.489 57.486 131.402 57.5444 130.262 57.243C129.416 57.0192 129.007 56.3921 129.064 55.5783C129.113 54.8748 129.641 54.356 130.483 54.2053C131.291 54.0599 132.108 54.1565 132.92 54.1353C133.36 54.1236 133.361 54.1331 133.344 53.7289C133.302 52.7018 132.549 52.167 131.328 52.3018C130.755 52.3644 130.218 52.5214 129.754 52.8514C129.639 52.9331 129.582 52.9522 129.487 52.8175C129.17 52.3676 129.162 52.3485 129.663 52.0864C130.593 51.6005 131.591 51.4901 132.616 51.7108C133.634 51.9294 134.174 52.6466 134.187 53.7384C134.199 54.8557 134.183 55.974 134.195 57.0913C134.197 57.3067 134.12 57.3598 133.9 57.3576C133.382 57.3513 133.382 57.3608 133.381 56.8643C133.382 56.773 133.382 56.6828 133.382 56.5375ZM132.021 54.7146C131.612 54.7305 131.127 54.67 130.654 54.8016C130.201 54.9279 129.938 55.1942 129.898 55.5613C129.848 56.0122 129.998 56.3868 130.449 56.582C131.177 56.8972 131.909 56.8611 132.6 56.4791C133.236 56.1279 133.431 55.5804 133.35 54.9173C133.33 54.7623 133.283 54.7093 133.12 54.7135C132.777 54.7199 132.434 54.7146 132.021 54.7146Z" fill="#434343"/>
<path d="M120.016 49.786C120.035 49.7796 120.055 49.769 120.074 49.769C120.898 49.7308 120.9 49.7298 121.233 50.4311C122.125 52.3081 123.016 54.1851 123.906 56.0631C123.939 56.1321 123.974 56.2 124.028 56.3082C124.429 55.4732 124.813 54.6742 125.194 53.8742C125.794 52.6179 126.404 51.3659 126.986 50.1011C127.106 49.8391 127.245 49.7224 127.547 49.7627C127.694 49.7818 127.845 49.7659 128.044 49.7659C127.8 50.2794 127.567 50.7675 127.336 51.2545C126.405 53.2132 125.47 55.1697 124.55 57.1326C124.447 57.3502 124.296 57.3756 124.095 57.3501C123.874 57.3215 123.618 57.4573 123.471 57.1432C122.347 54.7527 121.206 52.3686 120.073 49.9812C120.042 49.9208 119.987 49.8624 120.016 49.786Z" fill="#434343"/>
<path d="M38.3497 56.5896C37.491 57.4713 36.4353 57.5381 35.3215 57.258C34.4731 57.0447 34.0221 56.4102 34.0654 55.624C34.1052 54.9014 34.6314 54.3731 35.4775 54.2043C35.7406 54.1524 36.0059 54.129 36.2759 54.1301C36.769 54.1322 37.2621 54.1311 37.7563 54.1311C38.4522 54.1311 38.4522 54.1311 38.3383 53.4924C38.2062 52.7475 37.7222 52.3465 36.8578 52.2955C36.1073 52.251 35.4069 52.4123 34.7976 52.8324C34.6234 52.9523 34.5676 52.9205 34.4696 52.7677C34.1952 52.3369 34.1849 52.3369 34.6632 52.0876C35.5823 51.6069 36.5685 51.4966 37.5867 51.695C38.557 51.8839 39.1526 52.5566 39.1845 53.5454C39.2232 54.7529 39.197 55.9614 39.2061 57.1699C39.2072 57.3217 39.1412 57.3652 38.9966 57.3503C38.9863 57.3493 38.9749 57.3503 38.9647 57.3503C38.3998 57.3684 38.4009 57.3684 38.3941 56.8421C38.393 56.7827 38.393 56.7222 38.3884 56.6628C38.3884 56.6458 38.3725 56.6299 38.3497 56.5896ZM37.1437 54.7073C36.6938 54.719 36.1642 54.6606 35.6518 54.8038C35.2247 54.9227 34.9423 55.1741 34.899 55.6039C34.8557 56.0325 35.0265 56.3837 35.4456 56.5715C36.1825 56.9015 36.925 56.8633 37.6242 56.4707C38.2677 56.11 38.4567 55.5466 38.3713 54.876C38.3554 54.7476 38.3155 54.7041 38.1811 54.7062C37.86 54.7115 37.5388 54.7073 37.1437 54.7073Z" fill="#434343"/>
<path d="M58.0347 57.3852C56.2125 57.3852 54.9222 56.1819 54.9233 54.4832C54.9245 52.8089 56.2205 51.6152 58.0358 51.6152C59.8716 51.6152 61.1449 52.8025 61.1437 54.514C61.1426 56.1904 59.8477 57.3862 58.0347 57.3852ZM60.2839 54.7623C60.2884 53.854 60.0823 53.3129 59.6689 52.9097C58.8091 52.0715 57.2033 52.081 56.3833 52.9288C55.478 53.8646 55.5873 55.5262 56.6191 56.2551C57.3787 56.791 58.2192 56.8578 59.0699 56.4812C59.9365 56.0971 60.26 55.3851 60.2839 54.7623Z" fill="#434343"/>
<path d="M100.373 57.3874C98.5613 57.3884 97.2642 56.1926 97.2574 54.5162C97.2505 52.8143 98.5374 51.6153 100.37 51.6143C102.201 51.6143 103.495 52.8164 103.486 54.513C103.477 56.1937 102.185 57.3863 100.373 57.3874ZM102.621 54.5141C102.625 53.1941 101.703 52.2848 100.366 52.287C99.0556 52.2891 98.1092 53.2143 98.1058 54.4939C98.1035 55.7693 99.0499 56.6998 100.36 56.7083C101.676 56.7168 102.618 55.8032 102.621 54.5141Z" fill="#434343"/>
<path d="M155.622 56.443C156.357 54.8992 157.068 53.4053 157.779 51.9113C157.88 51.6981 158.436 51.5304 158.647 51.6609C158.769 51.7363 158.653 51.819 158.621 51.8891C158.202 52.7729 157.778 53.6557 157.354 54.5385C156.769 55.7576 156.187 56.9778 155.593 58.1937C155.304 58.7847 154.905 59.2866 154.171 59.432C153.531 59.5593 152.917 59.4967 152.356 59.1413C152.176 59.0277 152.134 58.9216 152.278 58.7614C152.333 58.7009 152.378 58.6298 152.415 58.5587C152.485 58.4272 152.543 58.3985 152.694 58.5004C153.539 59.0691 154.324 58.8824 154.83 58.0357C155.095 57.5911 155.154 57.207 154.897 56.7072C154.087 55.1358 153.348 53.5326 152.581 51.9411C152.441 51.6503 152.445 51.6758 152.794 51.6418C153.195 51.6026 153.387 51.7352 153.546 52.0885C154.175 53.4743 154.847 54.843 155.504 56.2181C155.534 56.2818 155.569 56.3422 155.622 56.443Z" fill="#434343"/>
<path d="M106.962 52.6393C107.77 51.6801 108.786 51.4828 109.903 51.6642C111.107 51.8594 111.777 52.6902 111.787 53.9285C111.796 54.9768 111.781 56.0251 111.795 57.0734C111.797 57.3015 111.724 57.3652 111.485 57.3567C110.838 57.3344 110.949 57.4288 110.944 56.8463C110.938 55.9381 110.942 55.0298 110.943 54.1205C110.943 53.8192 110.914 53.5231 110.789 53.2409C110.619 52.8504 110.324 52.5767 109.899 52.4303C108.413 51.9178 107.006 52.8186 107.001 54.2892C106.997 55.2176 106.991 56.146 107.006 57.0744C107.01 57.3026 106.938 57.362 106.7 57.3567C106.153 57.345 106.153 57.3567 106.153 56.858C106.153 55.2304 106.159 53.6038 106.148 51.9762C106.145 51.7247 106.193 51.6239 106.493 51.6409C107.037 51.6716 106.956 51.5889 106.963 52.0992C106.963 52.2499 106.962 52.3984 106.962 52.6393Z" fill="#434343"/>
<path d="M50.2663 53.9008C50.2663 52.8525 50.2595 51.8042 50.272 50.7559C50.2743 50.5384 50.223 50.463 49.9736 50.4683C49.2129 50.4842 48.451 50.4651 47.6902 50.48C47.4499 50.4842 47.3759 50.4248 47.385 50.1978C47.401 49.767 47.3862 49.7659 47.8406 49.7659C49.7811 49.7659 51.7217 49.7723 53.6635 49.7596C53.9516 49.7574 54.0097 49.8497 53.9846 50.0832C53.963 50.2784 54.0621 50.498 53.6737 50.4832C52.9244 50.4545 52.1727 50.4842 51.4222 50.4694C51.1808 50.4651 51.117 50.5256 51.1181 50.7516C51.1284 52.8281 51.117 54.9045 51.1318 56.981C51.1341 57.2813 51.0612 57.3789 50.7298 57.3576C50.2686 57.3279 50.2674 57.3502 50.2674 56.9269C50.2663 55.9178 50.2663 54.9098 50.2663 53.9008Z" fill="#434343"/>
<path d="M29.5745 57.3895C28.1099 57.3885 26.9825 56.6659 26.5725 55.4648C26.1386 54.1905 26.5873 52.8324 27.676 52.1247C28.8923 51.3342 30.7384 51.4488 31.6779 52.3729C31.7371 52.4313 31.7872 52.496 31.8442 52.5554C31.9615 52.6775 31.9615 52.7793 31.7907 52.8568C31.7622 52.8695 31.7349 52.8876 31.7121 52.9077C31.4843 53.1072 31.3363 53.1029 31.0857 52.8642C30.4297 52.2361 29.5961 52.148 28.7363 52.4239C27.8742 52.6997 27.405 53.3141 27.2979 54.1428C27.1396 55.382 27.7535 56.3296 28.898 56.6129C29.792 56.8335 30.6017 56.6861 31.2281 55.9996C31.3317 55.885 31.3932 55.8956 31.5128 55.9667C32.0298 56.2744 32.0378 56.302 31.5982 56.702C31.0367 57.2155 30.3398 57.3917 29.5745 57.3895Z" fill="#434343"/>
<path d="M92.9655 51.6006C93.8447 51.607 94.6088 51.8446 95.1953 52.4887C95.3514 52.6606 95.3559 52.7592 95.1384 52.9025C94.8799 53.0733 94.7398 53.1242 94.4779 52.8579C93.7046 52.0706 92.1842 52.1046 91.3415 52.8802C90.5955 53.5677 90.4475 54.824 91.0067 55.7132C91.5191 56.5259 92.6204 56.8941 93.6738 56.6013C94.0428 56.4994 94.3674 56.3222 94.5963 56.0336C94.7182 55.8808 94.799 55.8872 94.9516 55.9869C95.4254 56.2957 95.4436 56.318 95.0154 56.6883C94.102 57.4787 93.0088 57.5498 91.8881 57.2379C90.7527 56.9227 90.0705 56.1588 89.8746 55.0755C89.5603 53.3417 90.5625 51.9656 92.3266 51.6526C92.535 51.6186 92.7525 51.6176 92.9655 51.6006Z" fill="#434343"/>
<path d="M12.4373 54.8291C12.4373 55.5771 12.427 56.3262 12.443 57.0742C12.4475 57.3002 12.3792 57.3628 12.1389 57.3575C11.5979 57.3448 11.5979 57.3575 11.5979 56.8514C11.5979 55.4349 11.5934 54.0174 11.6025 52.6009C11.6036 52.3866 11.5592 52.2826 11.3064 52.3155C11.1697 52.3335 11.0262 52.3038 10.8896 52.3219C10.5889 52.3622 10.4978 52.2699 10.4887 51.9728C10.4784 51.6311 10.6584 51.6428 10.9146 51.646C11.5979 51.6555 11.6036 51.6492 11.5968 51.0136C11.59 50.3759 11.771 49.8114 12.4065 49.491C13.0807 49.1515 13.7857 49.1791 14.4735 49.4868C14.8721 49.665 14.5157 49.8666 14.4724 50.0481C14.4154 50.2868 14.2731 50.1234 14.1694 50.0735C13.8392 49.9122 13.4873 49.8995 13.1365 49.9674C12.796 50.0332 12.5773 50.2401 12.4794 50.5584C12.3826 50.8725 12.4304 51.1929 12.4179 51.5102C12.4111 51.6683 12.5329 51.6481 12.6377 51.6481C13.0989 51.6492 13.559 51.6545 14.0203 51.646C14.2116 51.6417 14.3107 51.6683 14.3004 51.8858C14.2742 52.411 14.3562 52.3081 13.8449 52.3165C13.4588 52.3229 13.0727 52.3261 12.6878 52.3144C12.4885 52.3081 12.4327 52.3738 12.435 52.5553C12.443 53.3129 12.4373 54.0715 12.4373 54.8291Z" fill="#434343"/>
<path d="M83.015 53.331C83.015 54.5799 83.0081 55.8276 83.0206 57.0765C83.0229 57.3057 82.9489 57.363 82.712 57.3577C82.1677 57.346 82.1665 57.3577 82.1665 56.8526C82.1665 54.4462 82.1722 52.0387 82.1597 49.6322C82.1585 49.3617 82.2383 49.2938 82.5184 49.3054C83.0138 49.3267 83.015 49.3107 83.015 49.767C83.015 50.1362 83.015 50.5065 83.015 50.8758C83.015 51.6938 83.015 52.5119 83.015 53.331Z" fill="#434343"/>
<path d="M137.427 53.3247C137.427 52.0876 137.431 50.8514 137.422 49.6143C137.42 49.3946 137.46 49.296 137.731 49.3045C138.261 49.3214 138.262 49.3066 138.262 49.7915C138.262 52.1947 138.256 54.599 138.27 57.0023C138.273 57.3004 138.18 57.3726 137.878 57.3556C137.356 57.327 137.43 57.4034 137.428 56.9439C137.424 55.7386 137.427 54.5322 137.427 53.3247Z" fill="#434343"/>
<path d="M18.1454 52.5798C18.6374 51.9357 19.3161 51.6683 20.1247 51.61C20.3707 51.5919 20.4584 51.6683 20.4197 51.889C20.4117 51.9378 20.4117 51.9898 20.4197 52.0386C20.4573 52.2699 20.3878 52.3548 20.1031 52.3633C18.9039 52.3962 18.1841 53.1591 18.1682 54.392C18.1568 55.279 18.1579 56.1671 18.1716 57.0541C18.175 57.2823 18.1192 57.3661 17.8573 57.3576C17.3277 57.3417 17.3266 57.3555 17.3266 56.8706C17.3266 55.2451 17.3357 53.6196 17.3175 51.9941C17.314 51.6917 17.4154 51.6015 17.7126 51.6471C17.765 51.6556 17.8197 51.6535 17.8732 51.6471C18.0737 51.6248 18.1682 51.6821 18.1488 51.8911C18.1295 52.1203 18.1454 52.3506 18.1454 52.5798Z" fill="#434343"/>
<path d="M141.556 53.3333C141.556 52.1056 141.563 50.8791 141.55 49.6515C141.548 49.4042 141.588 49.2981 141.893 49.3141C142.391 49.3406 142.393 49.3194 142.393 49.7979C142.393 52.1926 142.385 54.5874 142.402 56.9822C142.405 57.2994 142.301 57.3885 141.992 57.3429C141.94 57.3355 141.884 57.3355 141.832 57.3429C141.598 57.3779 141.55 57.2761 141.553 57.0745C141.561 55.8278 141.556 54.58 141.556 53.3333Z" fill="#434343"/>
<path d="M86.287 54.5002C86.287 53.6418 86.2962 52.7834 86.2814 51.925C86.2779 51.6948 86.3577 51.6386 86.5934 51.6428C87.1526 51.6523 87.1526 51.6417 87.1526 52.1638C87.1526 53.8009 87.1469 55.4381 87.1583 57.0753C87.1594 57.3034 87.0888 57.3618 86.8519 57.3575C86.2882 57.3469 86.2882 57.3575 86.2882 56.8366C86.287 56.0578 86.287 55.279 86.287 54.5002Z" fill="#434343"/>
<path d="M78.8685 54.5311C78.8685 55.3789 78.8594 56.2277 78.8742 57.0744C78.8776 57.3015 78.8082 57.363 78.569 57.3577C78.0303 57.3461 78.0303 57.3577 78.0303 56.8484C78.0303 55.2219 78.0372 53.5963 78.0235 51.9698C78.0212 51.7035 78.0964 51.6027 78.3788 51.6451C78.4517 51.6568 78.5291 51.6547 78.6032 51.6451C78.8138 51.6196 78.8765 51.6982 78.8742 51.8955C78.8628 52.7751 78.8685 53.6536 78.8685 54.5311Z" fill="#434343"/>
<path d="M23.7451 54.4982C23.7451 55.3565 23.736 56.2139 23.7508 57.0722C23.7543 57.2972 23.6905 57.363 23.4479 57.3577C22.907 57.346 22.9058 57.3577 22.9058 56.8526C22.9058 55.2271 22.9126 53.6005 22.899 51.975C22.8967 51.714 22.9628 51.6026 23.2509 51.6493C23.3135 51.6599 23.3807 51.6578 23.4434 51.6493C23.678 51.6175 23.7554 51.6938 23.7508 51.9252C23.736 52.7825 23.7451 53.6398 23.7451 54.4982Z" fill="#434343"/>
<path d="M23.3326 49.313C23.6834 49.3162 23.9487 49.5634 23.9373 49.8785C23.9259 50.1969 23.6515 50.4356 23.3064 50.425C22.975 50.4154 22.7176 50.1735 22.7153 49.8722C22.7142 49.5602 22.9909 49.3098 23.3326 49.313Z" fill="#434343"/>
<path d="M79.0619 49.8488C79.0653 50.1778 78.8193 50.4186 78.4731 50.425C78.1337 50.4314 77.8479 50.1799 77.8433 49.8722C77.8388 49.5772 78.136 49.3098 78.4685 49.313C78.8102 49.3141 79.0585 49.539 79.0619 49.8488Z" fill="#434343"/>
<path d="M86.1206 49.8615C86.1229 49.5432 86.3905 49.3065 86.7413 49.3119C87.0659 49.3172 87.3437 49.5697 87.3437 49.8583C87.3437 50.1649 87.0624 50.4228 86.7265 50.4238C86.3803 50.4259 86.1183 50.183 86.1206 49.8615Z" fill="#434343"/>
</svg>
